<svg width="158" height="74" viewBox="0 0 158 74" fill="none" xmlns="http://www.w3.org/2000/svg">
<g clip-path="url(#clip0_129_6819)">
<path d="M155.703 46.3837C155.668 46.339 155.634 46.2943 155.604 46.2495L156.732 44.7235C158.442 42.4072 158.204 39.1911 156.166 37.1581C154.391 35.3835 152.313 34.0066 149.976 33.0572C147.669 32.1178 145.258 31.6455 142.812 31.6455C140.367 31.6455 137.836 32.1874 135.624 33.261C134.54 33.7879 133.551 34.4192 132.656 35.1499C131.527 34.285 130.304 33.5742 128.977 33.0324C127.804 32.5502 126.601 32.2023 125.373 31.9786C127.878 29.6423 130.215 25.9044 130.215 20.0588C130.215 16.3308 129.131 12.901 126.994 9.85391C125 7.01066 122.355 4.74898 119.139 3.1335C115.972 1.54287 112.601 0.737608 109.112 0.737608C107.764 0.737608 106.457 0.871818 105.224 1.1303C104.438 0.74755 103.568 0.54375 102.679 0.54375C102.609 0.54375 102.539 0.54375 102.47 0.54375L96.2009 0.767433C94.0433 0.846964 92.194 2.09462 91.2544 3.88905L90.5683 2.98934C89.5194 1.61246 87.9136 0.777374 86.1836 0.702813L79.9197 0.444336C79.8401 0.444336 79.7606 0.444336 79.681 0.444336C78.1747 0.444336 76.7231 1.03088 75.6343 2.0797C75.525 2.18906 75.4156 2.29841 75.3162 2.41771C74.297 1.53292 72.9796 1.00603 71.5628 0.996086C71.5628 0.996086 65.0602 0.931467 65.0404 0.931467C62.8231 0.931467 60.7948 2.19403 59.8204 4.18729L59.3133 5.2212C59.0449 4.22705 58.513 3.31244 57.7573 2.58175C56.6686 1.52298 55.212 0.931467 53.7007 0.931467C53.6609 0.931467 53.6211 0.931467 53.5863 0.931467L47.1236 1.06071C45.8509 1.08556 44.6776 1.51801 43.7331 2.2338C42.7388 1.43848 41.4761 0.961291 40.099 0.961291H33.6362C30.4247 0.961291 27.8197 3.56595 27.8197 6.77703V31.2628C27.8197 31.4666 27.8297 31.6654 27.8496 31.8643H25.2645C23.788 31.8643 22.4407 32.416 21.4166 33.3207C19.0652 32.247 16.5347 31.7002 13.89 31.7002C10.5243 31.7002 6.92011 32.6596 3.18164 34.5584C1.17818 35.5824 -0.064665 37.6651 -3.71896e-05 39.9168L0.64624 62.3696C0.735725 65.516 3.31089 68.0163 6.45777 68.0163H12.9205C14.4865 68.0163 15.9879 67.385 17.0816 66.2617C18.1753 65.1383 18.7718 63.6222 18.7321 62.0564L18.7122 61.2114C18.9608 61.1517 19.2044 61.0822 19.448 61.0126V62.1658C19.448 65.3769 22.0529 67.9815 25.2645 67.9815H31.7272C33.0446 67.9815 34.2626 67.5441 35.237 66.8035C36.2462 67.6733 37.5636 68.2002 39.0003 68.2102C39.0003 68.2102 45.483 68.245 45.4929 68.245C46.7656 68.245 47.9985 67.8274 49.0027 67.0669L58.1998 72.3756C59.4078 73.0765 60.7898 73.4443 62.1868 73.4443C63.5837 73.4443 64.9608 73.0765 66.1738 72.3756L75.52 66.9774C76.5391 67.7727 77.7969 68.2102 79.0994 68.2102C79.169 68.2102 79.2386 68.2102 79.3082 68.2102L85.5771 67.9815C87.6203 67.907 89.3802 66.7885 90.3595 65.1482L90.7423 65.6652C91.841 67.1464 93.571 68.0163 95.4154 68.0163H101.684C101.868 68.0163 102.052 68.0064 102.236 67.9915C102.42 68.0064 102.599 68.0163 102.783 68.0163H109.052C110.782 68.0163 112.333 67.2608 113.397 66.0628C115.952 67.5093 118.731 68.245 121.684 68.245C124.234 68.245 126.725 67.6882 129.086 66.5847C130.016 66.1523 130.886 65.6502 131.706 65.0886C132.596 65.6701 133.551 66.1921 134.57 66.6394C137.046 67.723 139.606 68.2748 142.171 68.2748C144.871 68.2748 147.431 67.6733 149.777 66.4853C152.183 65.2625 154.152 63.5476 155.624 61.3854C157.205 59.064 158.005 56.4693 158.005 53.6708C158.005 50.8723 157.234 48.4516 155.713 46.3837H155.703Z" fill="#70BE90"/>
<path d="M19.2242 38.7135C20.8846 39.5088 22.212 40.6073 23.2162 42.0091C24.2154 43.4108 24.7175 44.9816 24.7175 46.7263C24.7175 48.471 24.2751 49.9125 23.3952 51.3143C22.5103 52.716 21.3022 53.8245 19.7611 54.6397C18.22 55.4598 16.5347 55.8674 14.7052 55.8674C14.1236 55.8674 13.4773 55.8128 12.7664 55.7084L12.9255 62.2001H6.46268L5.81641 39.7474C8.74454 38.2611 11.439 37.5205 13.8949 37.5205C15.789 37.5205 17.5687 37.9182 19.2242 38.7185V38.7135ZM14.1534 50.0865C14.8444 50.0865 15.5056 49.9374 16.1419 49.6342C16.7783 49.3309 17.2903 48.9233 17.6781 48.4064C18.0659 47.8894 18.2597 47.3277 18.2597 46.7263C18.2597 45.6725 17.872 44.7927 17.0964 44.0918C16.3209 43.3909 15.4161 43.043 14.3821 43.043C13.7358 43.043 13.1094 43.202 12.5079 43.5251L12.6371 49.7932C13.1343 49.9871 13.6364 50.0815 14.1584 50.0815L14.1534 50.0865Z" fill="white"/>
<path d="M38.9657 53.3181L31.7274 52.5427V62.171H25.2646V37.6852H31.7274V46.1155L38.9309 46.8562L38.8663 37.7796L45.3291 37.6504L45.4882 62.4294L39.0254 62.3946L38.9608 53.3181H38.9657Z" fill="white"/>
<path d="M101.873 37.2624L101.679 62.2005H95.4104L85.234 48.4714L85.3633 62.1707L79.0944 62.3993L78.8657 37.168L85.1346 37.4264L95.5049 51.0263L95.6043 37.4911L101.873 37.2674V37.2624Z" fill="white"/>
<path d="M102.972 37.6504H109.241L109.047 62.2058H102.778L102.972 37.6504Z" fill="white"/>
<path d="M115.753 60.6995C113.934 59.5463 112.492 58.0054 111.423 56.0817C110.359 54.1531 109.822 52.0803 109.822 49.8633C109.822 47.6464 110.374 45.5289 111.468 43.645C112.566 41.7611 114.058 40.2649 115.942 39.1564C117.826 38.0479 119.879 37.4912 122.097 37.4912C123.712 37.4912 125.268 37.7994 126.765 38.4108C128.261 39.0222 129.559 39.9567 130.657 41.2043C131.756 42.452 132.531 43.973 132.984 45.7575L127.361 47.4674C127.038 46.5429 126.392 45.7227 125.422 45.0119C124.453 44.3011 123.31 43.9432 121.997 43.9432C120.362 43.9432 118.999 44.4452 117.911 45.4444C116.822 46.4435 116.28 47.8949 116.28 49.7888C116.28 51.0613 116.539 52.1648 117.056 53.0993C117.573 54.0338 118.264 54.7446 119.124 55.2317C119.984 55.7139 120.923 55.9574 121.933 55.9574C122.837 55.9574 123.677 55.7636 124.453 55.3759C125.229 54.9881 125.87 54.511 126.377 53.9393C126.884 53.3677 127.212 52.8259 127.361 52.3089L132.626 54.1183C132.367 55.6244 131.701 57.0162 130.622 58.2837C129.544 59.5562 128.211 60.5603 126.616 61.3059C125.02 62.0515 123.374 62.4194 121.674 62.4194C119.541 62.4194 117.563 61.8428 115.743 60.6896L115.753 60.6995Z" fill="white"/>
<path d="M136.902 61.3105C135.157 60.5451 133.725 59.531 132.606 58.2585L136.966 53.4767C137.657 54.2521 138.468 54.8635 139.407 55.3009C140.347 55.7433 141.286 55.962 142.236 55.962C143.096 55.962 143.797 55.803 144.334 55.4799C144.871 55.1568 145.139 54.779 145.139 54.3515C145.139 53.9241 144.881 53.6059 144.364 53.417C143.847 53.2232 143.181 53.1238 142.36 53.1238C140.764 53.1238 139.298 52.7907 137.951 52.1247C136.603 51.4586 135.53 50.534 134.719 49.3609C133.914 48.1878 133.506 46.8706 133.506 45.4042C133.506 43.9379 133.929 42.5411 134.769 41.3332C135.609 40.1253 136.738 39.1809 138.159 38.49C139.581 37.799 141.132 37.4561 142.813 37.4561C144.493 37.4561 146.173 37.7841 147.789 38.4403C149.405 39.0964 150.827 40.0408 152.054 41.2686L148.405 46.2095C146.382 44.7232 144.463 43.9826 142.654 43.9826C141.858 43.9826 141.167 44.1218 140.585 44.4002C140.004 44.6785 139.711 45.0165 139.711 45.3993C139.711 45.8069 140.054 46.1151 140.745 46.3189C141.436 46.5226 142.251 46.627 143.2 46.627C144.925 46.627 146.462 46.8955 147.819 47.4323C149.176 47.9691 150.24 48.7694 151.015 49.8232C151.791 50.877 152.179 52.1594 152.179 53.6656C152.179 55.2811 151.721 56.7623 150.807 58.1094C149.892 59.4565 148.669 60.5152 147.138 61.2907C145.607 62.0661 143.951 62.4538 142.161 62.4538C140.372 62.4538 138.642 62.0711 136.897 61.3056L136.902 61.3105Z" fill="white"/>
<path d="M49.2612 58.01V43.0879L62.1818 50.5489V65.471L49.2612 58.01Z" fill="#70BE90"/>
<path d="M49.2612 43.088L62.1818 35.627L75.1074 43.088L62.1818 50.5491L49.2612 43.088Z" fill="#92D7AE"/>
<path d="M62.1816 50.5489L75.1072 43.0879V58.01L62.1816 65.471V50.5489Z" fill="#92D7AE"/>
<path d="M47.3373 22.4149L40.099 21.6394V31.2677H33.6362V6.77698H40.099V15.2073L47.3025 15.948L47.2379 6.87143L53.7007 6.74219L53.8597 31.5212L47.397 31.4864L47.3323 22.4099L47.3373 22.4149Z" fill="white"/>
<path d="M71.18 25.9043L62.9723 25.8695L60.9042 31.0043L54.4414 28.3549L65.0404 6.74219L71.5031 6.80681L79.0944 29.7467L72.6316 31.2975L71.18 25.9043ZM69.435 19.4424L67.884 13.6266L65.5574 19.4076L69.435 19.4424Z" fill="white"/>
<path d="M102.684 6.35421L102.49 31.2923H96.221L86.0446 17.5632L86.1738 31.2625L79.9049 31.4911L79.6763 6.25977L85.9452 6.51824L96.3154 20.1181L96.4149 6.58286L102.684 6.35918V6.35421Z" fill="white"/>
<path d="M116.529 8.32835C118.885 9.51138 120.789 11.1318 122.231 13.1897C123.673 15.2476 124.394 17.5341 124.394 20.0543C124.394 23.9116 122.992 26.7846 120.193 28.6785C117.394 30.5723 113.621 31.5217 108.883 31.5217C106.989 31.5217 105.115 31.4124 103.26 31.1986L103.519 7.7766C104.508 7.34414 105.443 7.03099 106.313 6.8421C107.183 6.64824 108.117 6.54883 109.107 6.54883C111.692 6.54883 114.162 7.14034 116.524 8.32338L116.529 8.32835ZM117.384 19.0552C117.384 17.9566 117.076 16.9973 116.464 16.1821C115.853 15.3619 115.052 14.7356 114.073 14.2932C113.094 13.8508 112.084 13.6321 111.05 13.6321C110.513 13.6321 110.061 13.6768 109.693 13.7613V24.7118C114.819 24.8212 117.384 22.9373 117.384 19.0601V19.0552Z" fill="white"/>
<path d="M62.1818 67.6289C61.8089 67.6289 61.4361 67.5345 61.103 67.3406L48.1774 59.8796C47.5113 59.4968 47.0986 58.786 47.0986 58.0156V43.0935C47.0986 42.323 47.5113 41.6122 48.1774 41.2294C48.8436 40.8467 49.6639 40.8467 50.33 41.2294L63.2556 48.6905C63.9217 49.0732 64.3344 49.784 64.3344 50.5545V65.4766C64.3344 66.2471 63.9217 66.9579 63.2556 67.3406C62.9225 67.5345 62.5496 67.6289 62.1768 67.6289H62.1818ZM51.4138 56.7679L60.0292 61.7436V51.7972L51.4138 46.8215V56.7729V56.7679Z" fill="white"/>
<path d="M62.1818 52.7069C61.8089 52.7069 61.4361 52.6125 61.103 52.4186L48.1774 44.9576C47.5113 44.5749 47.0986 43.864 47.0986 43.0936C47.0986 42.3231 47.5113 41.6123 48.1774 41.2296L61.103 33.7685C61.7691 33.3858 62.5894 33.3858 63.2556 33.7685L76.1811 41.2296C76.8473 41.6123 77.2599 42.3231 77.2599 43.0936C77.2599 43.864 76.8473 44.5749 76.1811 44.9576L63.2556 52.4186C62.9225 52.6125 62.5496 52.7069 62.1768 52.7069H62.1818ZM53.5664 43.0886L62.1818 48.0643L70.7971 43.0886L62.1818 38.1129L53.5664 43.0886Z" fill="white"/>
<path d="M62.182 67.6289C61.8091 67.6289 61.4363 67.5345 61.1032 67.3406C60.437 66.9579 60.0244 66.2471 60.0244 65.4766V50.5545C60.0244 49.784 60.437 49.0732 61.1032 48.6905L74.0288 41.2294C74.6949 40.8467 75.5152 40.8467 76.1814 41.2294C76.8475 41.6122 77.2601 42.323 77.2601 43.0935V58.0156C77.2601 58.786 76.8475 59.4968 76.1814 59.8796L63.2558 67.3406C62.9227 67.5345 62.5499 67.6289 62.177 67.6289H62.182ZM64.3396 51.7972V61.7436L72.9549 56.7679V46.8215L64.3396 51.7972Z" fill="white"/>
</g>
<defs>
<clipPath id="clip0_129_6819">
<rect width="158" height="73" fill="white" transform="translate(0 0.444336)"/>
</clipPath>
</defs>
</svg>
