<svg width="157" height="74" viewBox="0 0 157 74" fill="none" xmlns="http://www.w3.org/2000/svg">
<g clip-path="url(#clip0_129_6837)">
<path d="M148.909 17.0092H86.5503L79.8794 3.30284C78.396 0.457862 74.6331 0.448845 74.6331 0.448845H25.1868C25.1868 0.448845 25.1868 0.448845 25.1868 0.444336H8.11819C3.6498 0.444336 0.027136 4.05579 0.027136 8.51036V24.444C0.00904534 24.6514 0 24.8633 0 25.0752V65.3828C0 69.8374 3.62266 73.4488 8.09106 73.4488H148.909C153.377 73.4488 157 69.8374 157 65.3828V25.0752C157 20.6207 153.377 17.0092 148.909 17.0092Z" fill="#70BE90"/>
<path d="M101.245 49.8638C102.796 49.2958 109.173 46.0405 109.173 38.1368C109.173 38.0556 109.123 36.969 109.123 36.969C108.861 33.7138 107.518 30.959 105.338 28.7858C102.9 26.3556 101.303 25.012 97.6039 23.8623L85.7274 25.012L79.3188 31.3963L77.374 66.032L79.3188 67.583H88.337V50.9459H91.8104L98.522 66.032L100.467 67.583H110.417L101.245 49.8638ZM96.3195 41.9556H88.337V34.0519H96.3195C98.5492 34.0519 100.051 35.8599 100.051 38.0286C100.051 40.1972 98.5492 41.9556 96.3195 41.9556Z" fill="#70BE90"/>
<path d="M73.8372 34.0518V25.0119L71.8924 23.4609L53.8108 25.0119L47.4067 31.3962L45.4619 66.1356L47.4067 67.6866H73.8372V58.6467L71.8924 57.0957L56.4746 58.6467V49.7601H71.5035V40.7698L69.5587 39.2188L56.4746 40.7698V34.0518H73.8372Z" fill="#70BE90"/>
<path d="M32.6445 25.0119V40.5624H18.9136V25.0119L16.9689 23.4609L9.89091 31.288L7.95068 66.0319L9.89091 67.5829H18.9136V49.5527H32.6445L30.6997 66.0319L32.6445 67.5829H41.7169V25.0119L39.7722 23.4609L32.6445 25.0119Z" fill="#70BE90"/>
<path d="M130.85 23.6322C120.611 22.0858 113.393 35.2331 111.543 47.5733C110.412 55.1299 118.951 67.5468 130.8 67.5468C141.655 67.5468 148.995 58.3761 149.049 46.3966C149 34.5207 143.125 25.4853 130.85 23.6322ZM128.942 34.1149L122.7 44.8726L124.645 46.4236H131.777L124.668 55.9414L124.423 55.7025C122.605 53.5022 121.452 50.265 121.452 46.3064C121.452 40.418 124.437 35.2782 128.942 34.1239V34.1149ZM130.85 58.8766C129.38 58.8901 126.513 57.6818 125.256 56.9108L137.72 43.6057L135.775 42.0547L131.836 43.6057L134.984 35.1294C138.213 37.2034 140.194 41.5903 140.194 46.347C140.194 53.4662 135.92 58.9262 130.846 58.8766H130.85Z" fill="#70BE90"/>
<g opacity="0.2">
<path d="M101.244 49.8638C102.795 49.2958 109.172 46.0405 109.172 38.1368C109.172 38.0556 109.123 36.969 109.123 36.969C108.86 33.7138 107.517 30.959 105.337 28.7858C102.899 26.3556 101.303 25.012 97.6034 23.8623L85.7269 25.012L79.3183 31.3963L77.3735 66.032L79.3183 67.583H88.3365V50.9459H91.8099L98.5215 66.032L100.466 67.583H110.416L101.244 49.8638ZM96.319 41.9556H88.3365V34.0519H96.319C98.5487 34.0519 100.05 35.8599 100.05 38.0286C100.05 40.1972 98.5487 41.9556 96.319 41.9556Z" fill="url(#paint0_linear_129_6837)"/>
<path d="M73.8372 34.0518V25.0119L71.8924 23.4609L53.8108 25.0119L47.4067 31.3962L45.4619 66.1356L47.4067 67.6866H73.8372V58.6467L71.8924 57.0957L56.4746 58.6467V49.7601H71.5035V40.7698L69.5587 39.2188L56.4746 40.7698V34.0518H73.8372Z" fill="url(#paint1_linear_129_6837)"/>
<path d="M32.6445 25.0119V40.5624H18.9136V25.0119L16.9689 23.4609L9.89091 31.288L7.95068 66.0319L9.89091 67.5829H18.9136V49.5527H32.6445L30.6997 66.0319L32.6445 67.5829H41.7169V25.0119L39.7722 23.4609L32.6445 25.0119Z" fill="url(#paint2_linear_129_6837)"/>
<path d="M130.85 23.6322C120.61 22.0858 113.392 35.2331 111.542 47.5733C110.412 55.1299 118.95 67.5468 130.8 67.5468C141.654 67.5468 148.995 58.3761 149.049 46.3966C148.999 34.5207 143.124 25.4853 130.85 23.6322ZM128.941 34.1149L122.7 44.8726L124.645 46.4236H131.777L124.667 55.9414L124.423 55.7025C122.605 53.5022 121.452 50.265 121.452 46.3064C121.452 40.418 124.436 35.2782 128.941 34.1239V34.1149ZM130.85 58.8766C129.38 58.8901 126.512 57.6818 125.255 56.9108L137.72 43.6057L135.775 42.0547L131.836 43.6057L134.983 35.1294C138.213 37.2034 140.193 41.5903 140.193 46.347C140.193 53.4662 135.92 58.9262 130.845 58.8766H130.85Z" fill="url(#paint3_linear_129_6837)"/>
</g>
<path d="M99.2999 48.3128C100.856 47.7447 107.228 44.4894 107.228 36.5857C107.228 36.5045 107.178 35.418 107.178 35.418C106.916 32.1627 105.573 29.4079 103.393 27.2347C100.955 24.8045 97.8979 23.4609 94.429 23.4609H83.7826L77.374 29.8452V66.0319H86.3922V49.3949H89.8656L98.522 66.0319H108.472L99.2999 48.3128ZM94.3747 40.4091H86.3922V32.5053H94.3747C96.6044 32.5053 98.1059 34.3133 98.1059 36.482C98.1059 38.6507 96.6044 40.4091 94.3747 40.4091Z" fill="white"/>
<path d="M71.8924 32.5008V23.4609H51.866L45.4619 29.8452V66.1356H71.8924V57.0957H54.5299V48.2091H69.5587V39.2188H54.5299V32.5008H71.8924Z" fill="white"/>
<path d="M30.6997 23.4609V39.0114H16.9689V23.4609H14.2462L7.95068 29.737V34.399V66.0319H16.9689V48.0017H30.6997V66.0319H39.7722V23.4609H30.6997Z" fill="white"/>
<path d="M128.91 23.5518C118.553 23.5518 110.661 32.3707 110.711 44.8507C110.661 57.2271 118.702 66.0506 128.856 66.001C139.715 66.001 147.05 56.8303 147.105 44.8507C147.055 32.9749 139.412 23.5518 128.905 23.5518H128.91ZM126.997 32.5646L122.696 44.8688H129.828L123.94 55.5814C121.303 53.5074 119.503 49.6886 119.503 44.7471C119.503 38.8587 122.483 33.7188 126.992 32.5646H126.997ZM128.91 57.3263C127.44 57.3398 126.029 56.9295 124.772 56.1585L135.78 42.0509H129.896L133.044 33.5745C136.273 35.6485 138.254 40.0355 138.254 44.7921C138.254 51.9068 133.98 57.3713 128.905 57.3218L128.91 57.3263Z" fill="white"/>
<path d="M39.4873 13.0731C39.4692 16.3058 37.4521 18.5511 34.3586 18.5376C31.6359 18.5556 29.3655 16.4591 29.3836 13.1768C29.3836 10.0117 31.7354 7.94672 34.3586 7.93319C36.9817 7.95123 39.4692 9.87643 39.4873 13.0776V13.0731ZM36.5792 13.2715C36.5611 11.8963 35.6023 10.8413 34.4264 10.8233C33.3183 10.8413 32.3098 11.9144 32.3234 13.2534C32.3234 14.7458 33.4495 15.7016 34.5259 15.6836C35.6204 15.652 36.5747 14.6962 36.5747 13.2715H36.5792ZM41.2782 8.00984H44.2044V9.1325C44.4893 8.59597 45.3125 8.09099 46.4386 8.09099C47.2934 8.09099 47.9854 8.39307 48.6909 9.07839C49.3964 9.78175 49.7673 10.7691 49.7673 11.8783V18.2941H46.8276V12.3111C46.8276 11.4725 46.2396 10.972 45.516 10.972C44.7924 10.972 44.2044 11.477 44.2044 12.3111V18.2941H41.2782V8.00533V8.00984ZM51.8432 8.00984V18.3167H54.7694V8.00984H51.8432ZM61.2413 7.94221C63.4755 7.94221 65.461 9.20013 65.9313 11.9279L63.0594 11.9459C62.7926 11.1569 62.1006 10.8728 61.3092 10.8728C60.4182 10.8728 59.4096 11.7791 59.4096 13.2038C59.4096 14.7638 60.4001 15.616 61.3092 15.616C62.1006 15.616 62.7881 15.3319 63.0594 14.5429L65.9313 14.5609C65.4112 17.2752 63.6429 18.5511 61.2413 18.5331C58.8714 18.5331 56.4654 16.5899 56.4654 13.2038C56.4654 10.0523 58.9212 7.94221 61.2413 7.94221ZM68.8394 14.6151C69.8118 15.3364 70.9379 15.652 71.8153 15.6701C72.5525 15.6881 73.1585 15.5348 73.1947 15.2012C73.2626 14.9171 72.9912 14.7638 72.557 14.6331L69.7349 13.9793C68.2243 13.6276 67.5143 12.487 67.5143 11.0983C67.5143 9.2362 68.9434 8.23076 71.1595 8.01435C72.8239 7.86105 74.6736 8.29839 76.2701 9.43909L74.6736 11.716C73.6289 11.0622 72.5209 10.7962 71.7475 10.7601C70.9424 10.7421 70.5716 10.9946 70.5535 11.2786C70.5354 11.4319 70.6394 11.5807 70.956 11.6664L73.9138 12.4013C75.1892 12.7034 76.234 13.5555 76.234 15.2823C76.234 16.1029 75.8812 16.7882 75.3927 17.3248C74.4701 18.2806 73.0907 18.497 71.761 18.497C70.1329 18.497 68.6675 18.1093 67.2565 17.0227L68.8349 14.6105L68.8394 14.6151ZM23.9971 8.00984C23.3775 8.00984 22.4865 8.36151 22.1473 8.614V4.5066H21.3287L19.2257 6.60313V18.3302H22.1519V12.1984C22.1519 11.477 22.7398 10.927 23.4318 10.927C24.1238 10.927 24.7434 11.3959 24.7434 12.1984V18.3302H27.6695V11.743C27.6695 9.93504 26.3263 8.00533 24.0062 8.00533L23.9971 8.00984ZM16.4216 5.47145C15.5985 4.73203 14.6081 4.26313 13.4955 4.26313H10.0537L7.95068 6.35966V18.0552H10.8904V12.6583H13.6312C14.6081 12.6583 15.5985 12.2074 16.4216 11.468C17.1769 10.6654 17.6654 9.67354 17.6654 8.56891C17.6654 7.34706 17.2131 6.25596 16.4216 5.46694V5.47145ZM13.4774 9.74568H10.8904V7.19828H13.4774C14.201 7.19828 14.7211 7.75284 14.7211 8.4562C14.7211 9.15955 14.201 9.74568 13.4774 9.74568ZM53.9462 4.0918L51.8432 6.18833V7.09007H54.7694V4.0918H53.9462Z" fill="white"/>
</g>
<defs>
<linearGradient id="paint0_linear_129_6837" x1="93.8948" y1="63.8453" x2="93.8948" y2="18.8982" gradientUnits="userSpaceOnUse">
<stop stop-color="#1C1C1B"/>
<stop offset="0.27" stop-color="#1C1C1B" stop-opacity="0.47"/>
<stop offset="0.59" stop-color="#1C1C1B" stop-opacity="0.11"/>
<stop offset="1" stop-color="#1C1C1B" stop-opacity="0"/>
</linearGradient>
<linearGradient id="paint1_linear_129_6837" x1="59.6495" y1="63.8452" x2="59.6495" y2="18.8982" gradientUnits="userSpaceOnUse">
<stop stop-color="#1C1C1B"/>
<stop offset="0.27" stop-color="#1C1C1B" stop-opacity="0.47"/>
<stop offset="0.59" stop-color="#1C1C1B" stop-opacity="0.11"/>
<stop offset="1" stop-color="#1C1C1B" stop-opacity="0"/>
</linearGradient>
<linearGradient id="paint2_linear_129_6837" x1="24.8338" y1="63.8452" x2="24.8338" y2="18.8982" gradientUnits="userSpaceOnUse">
<stop stop-color="#1C1C1B"/>
<stop offset="0.27" stop-color="#1C1C1B" stop-opacity="0.47"/>
<stop offset="0.59" stop-color="#1C1C1B" stop-opacity="0.11"/>
<stop offset="1" stop-color="#1C1C1B" stop-opacity="0"/>
</linearGradient>
<linearGradient id="paint3_linear_129_6837" x1="130.248" y1="63.8451" x2="130.248" y2="18.8981" gradientUnits="userSpaceOnUse">
<stop stop-color="#1C1C1B"/>
<stop offset="0.27" stop-color="#1C1C1B" stop-opacity="0.47"/>
<stop offset="0.59" stop-color="#1C1C1B" stop-opacity="0.11"/>
<stop offset="1" stop-color="#1C1C1B" stop-opacity="0"/>
</linearGradient>
<clipPath id="clip0_129_6837">
<rect width="157" height="73" fill="white" transform="translate(0 0.444336)"/>
</clipPath>
</defs>
</svg>
