<svg width="275" height="53" viewBox="0 0 275 53" fill="none" xmlns="http://www.w3.org/2000/svg">
<g clip-path="url(#clip0_129_6745)">
<path d="M11.7901 44.344C8.46301 44.344 5.67768 43.4435 3.44178 41.6501C1.14484 39.8491 0.0078125 37.3231 0.0078125 34.0569V19.2521C0.0078125 16.0622 1.14484 13.5362 3.44178 11.7199C5.79214 9.89605 8.56984 8.97266 11.7901 8.97266C15.0104 8.97266 17.6737 9.89605 20.0317 11.7199C22.3515 13.5057 23.5191 16.0317 23.5191 19.2521V20.0992H14.6899V16.3064C14.6899 15.4898 14.4076 14.7877 13.8353 14.2154C13.2477 13.6354 12.5685 13.3454 11.7901 13.3454C10.9507 13.3454 10.2563 13.6354 9.68398 14.2154C9.11928 14.7877 8.82167 15.4898 8.82167 16.3064V37.0102C8.82167 37.8039 9.11928 38.4907 9.68398 39.0631C10.2563 39.6354 10.9507 39.9178 11.7901 39.9178C12.5685 39.9178 13.2477 39.6278 13.8353 39.0631C14.4076 38.4907 14.6899 37.8039 14.6899 37.0102V32.5535H23.5191V34.0569C23.5191 37.3231 22.3591 39.8491 20.0317 41.6501C17.8034 43.4435 15.0333 44.344 11.7901 44.344Z" fill="#231F20"/>
<path d="M39.7273 8.98044C42.8789 8.98044 45.6337 9.90384 47.9841 11.7277C50.3115 13.5135 51.4715 16.0394 51.4715 19.2599V43.3291H42.6423V16.3065C42.6423 15.49 42.3524 14.7879 41.78 14.2155C41.2077 13.6356 40.5133 13.3456 39.7197 13.3456C38.926 13.3456 38.2011 13.6356 37.6211 14.2155C37.0488 14.7879 36.7588 15.49 36.7588 16.3065V43.3215H27.9297V1.2041H36.7588V9.2857C37.2319 9.17123 37.7203 9.08728 38.224 9.04913C38.72 9.00334 39.2236 8.97281 39.712 8.97281L39.7273 8.98044Z" fill="#231F20"/>
<path d="M67.9089 44.3438C64.5665 44.3438 61.8041 43.4433 59.5529 41.6499C57.2636 39.8489 56.1113 37.323 56.1113 34.0568V9.99512H64.9557V36.5675C64.9557 37.3611 65.2304 38.0403 65.7951 38.6127C66.3751 39.1926 67.0771 39.4826 67.9089 39.4826C68.7407 39.4826 69.3817 39.1926 69.954 38.6127C70.5264 38.0403 70.8164 37.3611 70.8164 36.5675V9.99512H79.6378V34.0568C79.6378 37.323 78.4779 39.8489 76.1505 41.6499C73.9069 43.4433 71.1597 44.3438 67.9013 44.3438H67.9089Z" fill="#231F20"/>
<path d="M109.055 43.3213H100.211V16.6574C100.211 15.8638 99.9287 15.1846 99.364 14.6046C98.7917 14.0246 98.0973 13.7346 97.3036 13.7346C96.51 13.7346 95.7851 14.0246 95.2051 14.6046C94.6328 15.1769 94.3428 15.8561 94.3428 16.6574V43.3213H85.5137V19.2521C85.5137 16.0622 86.6736 13.5362 88.9629 11.7199C91.3209 9.89605 94.0986 8.97266 97.3036 8.97266C100.509 8.97266 103.202 9.89605 105.56 11.7199C107.88 13.5057 109.055 16.0317 109.055 19.2521V43.3213Z" fill="#231F20"/>
<path d="M130.056 52.9443H124.539C125.203 51.0136 125.798 49.0523 126.302 47.1216C126.798 45.1756 127.194 43.1991 127.484 41.1539L125.149 41.3752C121.822 41.3752 119.045 40.4823 116.801 38.6813C114.519 36.888 113.359 34.3467 113.359 31.0881V19.2443C113.359 16.0544 114.512 13.5284 116.801 11.7121C119.174 9.88824 121.937 8.96484 125.149 8.96484C128.362 8.96484 131.063 9.88824 133.406 11.7121C135.741 13.4979 136.901 16.0238 136.901 19.2443V32.5457C136.901 36.3919 136.176 39.9863 134.734 43.3136C134.032 45.0764 133.292 46.74 132.506 48.3045C131.727 49.8689 130.911 51.4104 130.056 52.9367V52.9443ZM128.064 34.4536C128.118 31.4239 128.133 28.3943 128.118 25.3799C128.072 22.3655 128.064 19.3435 128.064 16.3062C128.064 15.4896 127.782 14.7876 127.202 14.2152C126.63 13.6352 125.935 13.3452 125.149 13.3452C124.363 13.3452 123.638 13.6352 123.066 14.2152C122.478 14.7876 122.196 15.4896 122.196 16.3062V34.0567C122.196 34.8657 122.478 35.5754 123.066 36.1477C123.638 36.7277 124.333 37.0101 125.149 37.0101C126.828 37.0101 127.805 36.1477 128.064 34.4536Z" fill="#231F20"/>
<path d="M152.316 44.3441C148.988 44.3441 146.211 43.4436 143.975 41.6503C141.678 39.8493 140.533 37.3233 140.533 34.0647V19.2599C140.533 16.07 141.678 13.544 143.975 11.7278C146.325 9.90386 149.11 8.98047 152.316 8.98047C155.521 8.98047 158.222 9.90386 160.572 11.7278C162.892 13.5135 164.06 16.0395 164.06 19.2599V19.7101H155.223V16.3142C155.223 15.4976 154.933 14.7956 154.368 14.2232C153.788 13.6432 153.102 13.3532 152.308 13.3532C151.514 13.3532 150.782 13.6432 150.209 14.2232C149.637 14.7956 149.347 15.4976 149.347 16.3142V37.018C149.347 37.7812 149.629 38.4604 150.186 39.048C150.759 39.6356 151.453 39.9256 152.3 39.9256C153.094 39.9256 153.781 39.6356 154.361 39.0709C154.925 38.4985 155.215 37.8193 155.215 37.018V33.3092H164.052V34.0647C164.052 37.3233 162.885 39.8493 160.565 41.6503C158.329 43.4436 155.574 44.3441 152.308 44.3441H152.316Z" fill="#231F20"/>
<path d="M180.222 8.98044C183.382 8.98044 186.129 9.90384 188.479 11.7277C190.799 13.5135 191.966 16.0394 191.966 19.2599V43.3291H183.137V16.3065C183.137 15.49 182.855 14.7879 182.283 14.2155C181.703 13.6356 181.016 13.3456 180.215 13.3456C179.413 13.3456 178.696 13.6356 178.131 14.2155C177.551 14.7879 177.269 15.49 177.269 16.3065V43.3215H168.44V1.2041H177.269V9.2857C177.742 9.17123 178.223 9.08728 178.727 9.04913C179.207 9.00334 179.711 8.97281 180.215 8.97281L180.222 8.98044Z" fill="#231F20"/>
<path d="M211.884 52.9443H206.366C207.046 51.0136 207.633 49.0676 208.129 47.1445C208.633 45.2138 209.03 43.2373 209.32 41.1997C208.907 41.2684 208.511 41.3065 208.129 41.3294C207.755 41.36 207.374 41.3752 206.984 41.3752C203.665 41.3752 200.887 40.4747 198.636 38.6814C196.354 36.8804 195.202 34.3468 195.202 31.0882V9.99512H204.039V34.0644C204.039 34.8733 204.321 35.583 204.901 36.1477C205.474 36.7277 206.176 37.0101 206.992 37.0101C208.671 37.0101 209.64 36.1477 209.915 34.4536V9.99512H218.744V32.5534C218.744 36.3996 218.011 39.9939 216.569 43.3212C215.867 45.0841 215.127 46.7477 214.341 48.3121C213.555 49.8765 212.746 51.4181 211.891 52.9443H211.884Z" fill="#231F20"/>
<path d="M246.193 24.0828C245.384 24.0828 244.75 24.3881 244.292 24.991C243.827 25.5862 243.59 26.3493 243.59 27.2498C243.59 28.1503 243.827 28.8982 244.323 29.4935C244.804 30.0811 245.414 30.3711 246.139 30.3711C246.864 30.3711 247.505 30.0811 248.009 29.4858C248.512 28.8906 248.757 28.1351 248.757 27.1888C248.757 26.3417 248.528 25.6091 248.07 24.9986C247.604 24.3881 246.986 24.0752 246.2 24.0752L246.193 24.0828Z" fill="#4155A4"/>
<path d="M249.619 0.944336C235.609 0.944336 224.246 12.315 224.246 26.3186C224.246 40.3221 235.609 51.6928 249.619 51.6928C263.63 51.6928 275 40.3374 275 26.3186C275 12.2998 263.638 0.944336 249.619 0.944336ZM236.578 29.4551C237.135 29.9969 237.829 30.264 238.684 30.264C239.348 30.264 239.997 30.1343 240.615 29.8595L240.874 31.0576C240.172 31.3934 239.348 31.5537 238.394 31.5537C237.127 31.5537 236.089 31.1569 235.303 30.3785C234.517 29.6001 234.128 28.5775 234.128 27.3335C234.128 26.021 234.548 24.9526 235.395 24.1436C236.242 23.3042 237.364 22.8997 238.722 22.8997C239.554 22.8997 240.287 23.0447 240.905 23.3576L240.569 24.5786C240.042 24.3039 239.447 24.1665 238.737 24.1665C237.829 24.1665 237.104 24.4565 236.57 25.0365C236.028 25.6089 235.754 26.3415 235.754 27.2267C235.754 28.1577 236.028 28.9056 236.578 29.4551ZM249.856 29.478C249.49 30.1495 248.971 30.6608 248.307 31.0195C247.628 31.3782 246.903 31.5613 246.132 31.5613C244.926 31.5613 243.934 31.1645 243.148 30.3708C242.362 29.5772 241.965 28.5546 241.965 27.303C241.965 25.9675 242.377 24.8915 243.186 24.0979C243.995 23.3042 245.025 22.9074 246.254 22.9074C247.483 22.9074 248.49 23.3042 249.253 24.075C250.031 24.8763 250.413 25.8912 250.413 27.1351C250.413 28.0204 250.222 28.7988 249.856 29.4703V29.478ZM264.889 31.0958H263.363V26.7459C263.363 25.937 263.027 25.296 262.714 24.861C262.409 24.4184 261.86 24.2047 261.272 24.2047C260.761 24.2047 260.425 24.4031 260.036 24.777C259.647 25.1739 259.555 25.6775 259.555 26.2804V31.0882H258.029V26.4712C258.029 25.7691 257.693 25.2197 257.38 24.8076C257.067 24.4031 256.556 24.2047 256.007 24.2047C255.457 24.2047 255.129 24.4184 254.724 24.861C254.32 25.3112 254.221 25.8302 254.221 26.4178V31.0882H252.695V25.3647C252.695 24.4413 252.328 23.4568 252.283 23.4568H253.671L253.786 24.6244C254.404 23.6018 255.304 22.9989 256.487 22.9989C257.029 22.9989 257.502 23.0981 257.945 23.3958C258.364 23.6934 258.693 24.0902 258.914 24.6092C259.593 23.495 260.539 22.9226 261.753 22.9226C262.577 22.9226 263.424 23.2279 263.958 23.8537C264.477 24.4718 264.904 25.3723 264.904 26.5704V31.0958H264.889Z" fill="#4155A4"/>
</g>
<defs>
<clipPath id="clip0_129_6745">
<rect width="275" height="52" fill="white" transform="translate(0 0.944336)"/>
</clipPath>
</defs>
</svg>
