<svg width="1920" height="847" viewBox="0 0 1920 847" fill="none" xmlns="http://www.w3.org/2000/svg">
<g opacity="0.6" clip-path="url(#clip0_167_1977)">
<path d="M13.5586 459.162C13.7377 455.401 10.8724 452.238 7.1116 452.058C3.35085 451.879 0.18704 454.745 0.00795629 458.506C-0.171127 462.266 2.69421 465.43 6.45496 465.609C10.2157 465.788 13.3795 462.923 13.5586 459.162Z" fill="#00F0A0"/>
<path d="M13.7377 184.323C13.8571 180.562 10.8724 177.458 7.17131 177.338C3.41056 177.219 0.306444 180.204 0.187055 183.905C0.0676658 187.666 3.05239 190.77 6.75345 190.889C10.5142 191.008 13.6183 188.024 13.7377 184.323Z" fill="#00F0A0"/>
<path d="M345.786 8.70752C349.546 8.70752 352.591 11.7519 352.591 15.5127C352.591 19.2734 349.546 22.3179 345.786 22.3179C342.025 22.3179 338.98 19.2734 338.98 15.5127C338.98 11.7519 342.025 8.70752 345.786 8.70752Z" fill="#00F0A0"/>
<path d="M788.241 17.4895C792.001 17.4895 795.046 14.4451 795.046 10.6843C795.046 6.92357 792.001 3.87915 788.241 3.87915C784.48 3.87915 781.436 6.92357 781.436 10.6843C781.436 14.4451 784.48 17.4895 788.241 17.4895Z" fill="#00F0A0"/>
<path d="M1640.51 430.503C1643.92 431.995 1645.47 436.054 1643.97 439.457C1642.48 442.859 1638.42 444.412 1635.02 442.919C1631.62 441.427 1630.07 437.368 1631.56 433.965C1633.05 430.562 1637.11 429.01 1640.51 430.503Z" fill="#00F0A0"/>
<path d="M1453.06 668.67C1451.45 672.073 1447.39 673.506 1443.99 671.834C1440.58 670.223 1439.21 666.163 1440.82 662.761C1442.43 659.358 1446.49 657.925 1449.89 659.597C1453.3 661.209 1454.73 665.268 1453.06 668.67Z" fill="#00F0A0"/>
<path d="M1647.75 504.994C1649.78 501.83 1648.88 497.652 1645.78 495.622C1642.62 493.592 1638.44 494.488 1636.41 497.592C1634.38 500.756 1635.27 504.934 1638.38 506.964C1641.54 508.993 1645.72 508.098 1647.75 504.994Z" fill="#00F0A0"/>
<path d="M1916.67 295.229C1919.89 297.139 1920.96 301.317 1919.05 304.541C1917.14 307.764 1912.96 308.839 1909.74 306.929C1906.52 305.018 1905.44 300.84 1907.35 297.616C1909.26 294.393 1913.44 293.318 1916.67 295.229Z" fill="#00F0A0"/>
<path d="M1815.66 234.579C1818.65 236.847 1819.18 241.145 1816.92 244.07C1814.65 247.055 1810.35 247.592 1807.43 245.324C1804.44 243.055 1803.9 238.757 1806.17 235.832C1808.44 232.848 1812.74 232.31 1815.66 234.579Z" fill="#00F0A0"/>
<path d="M1830.27 167.35C1828.66 170.752 1824.6 172.185 1821.26 170.573C1817.92 168.961 1816.43 164.902 1818.04 161.559C1819.65 158.157 1823.71 156.724 1827.05 158.336C1830.45 159.948 1831.89 164.007 1830.27 167.35Z" fill="#00F0A0"/>
<path d="M1672.28 124.661C1674.01 127.944 1672.75 132.063 1669.47 133.854C1666.19 135.585 1662.07 134.331 1660.28 131.048C1658.55 127.765 1659.8 123.646 1663.08 121.855C1666.37 120.064 1670.49 121.378 1672.28 124.661Z" fill="#00F0A0"/>
<path d="M1899.41 15.4C1903 14.3255 1905.03 10.505 1903.89 6.92337C1902.82 3.3417 1899 1.31208 1895.42 2.44628C1891.83 3.52078 1889.8 7.34123 1890.94 10.9229C1892.01 14.5046 1895.83 16.5342 1899.41 15.4Z" fill="#00F0A0"/>
<path d="M969.752 62.8904C966.17 63.9649 964.141 67.7853 965.275 71.367C966.349 74.9487 970.17 76.9783 973.752 75.8441C977.333 74.7696 979.363 70.9491 978.229 67.3675C977.154 63.7858 973.334 61.7562 969.752 62.8904Z" fill="#00F0A0"/>
<path d="M1917.06 708.44C1917.06 712.201 1913.95 715.186 1910.19 715.186C1906.43 715.186 1903.45 712.081 1903.45 708.321C1903.45 704.56 1906.55 701.575 1910.31 701.575C1914.07 701.575 1917.06 704.679 1917.06 708.44Z" fill="#00F0A0"/>
<path d="M858.229 132.243C859.961 135.586 858.647 139.645 855.304 141.376C851.962 143.107 847.902 141.794 846.171 138.451C844.44 135.108 845.753 131.049 849.096 129.318C852.439 127.586 856.498 128.9 858.229 132.243Z" fill="#00F0A0"/>
<path d="M650.851 99.6622C647.866 101.931 647.269 106.169 649.538 109.154C651.806 112.138 656.044 112.735 659.029 110.467C662.014 108.199 662.611 103.96 660.342 100.976C658.074 97.9908 653.836 97.3938 650.851 99.6622Z" fill="#00F0A0"/>
<path d="M534.393 22.139C530.632 22.139 527.588 19.214 527.528 15.4532C527.528 11.6925 530.453 8.64807 534.214 8.58838C537.975 8.58838 541.019 11.5134 541.079 15.2742C541.079 19.0349 538.154 22.0793 534.393 22.139Z" fill="#00F0A0"/>
<path d="M1559.31 643.42C1557.29 646.584 1553.05 647.479 1549.94 645.39C1546.78 643.36 1545.88 639.122 1547.97 636.018C1550 632.854 1554.24 631.958 1557.34 634.048C1560.51 636.077 1561.4 640.316 1559.31 643.42Z" fill="#00F0A0"/>
<path d="M1463.82 696.734C1464.65 700.375 1462.32 704.016 1458.68 704.852C1455.04 705.688 1451.4 703.36 1450.57 699.718C1449.73 696.077 1452.06 692.436 1455.7 691.6C1459.34 690.764 1462.98 693.092 1463.82 696.734Z" fill="#00F0A0"/>
<path d="M97.3366 467.407C101.038 468.004 103.545 471.526 102.888 475.227C102.291 478.928 98.7693 481.435 95.0682 480.778C91.3672 480.181 88.86 476.659 89.5166 472.958C90.1136 469.257 93.6356 466.75 97.3366 467.407Z" fill="#00F0A0"/>
<path d="M1790.83 485.17C1788.68 488.214 1784.44 488.93 1781.4 486.781C1778.35 484.632 1777.64 480.394 1779.79 477.35C1781.94 474.305 1786.17 473.589 1789.22 475.738C1792.26 477.887 1792.98 482.125 1790.83 485.17Z" fill="#00F0A0"/>
<path d="M1699.93 347.753C1701.6 351.096 1705.66 352.528 1709 350.857C1712.35 349.186 1713.78 345.126 1712.11 341.783C1710.43 338.441 1706.38 337.008 1703.03 338.679C1699.69 340.351 1698.26 344.41 1699.93 347.753Z" fill="#00F0A0"/>
<path d="M1718.35 159.064C1721.34 161.333 1721.88 165.631 1719.61 168.556C1717.34 171.541 1713.04 172.078 1710.12 169.809C1707.13 167.541 1706.59 163.243 1708.86 160.318C1711.13 157.333 1715.43 156.796 1718.35 159.064Z" fill="#00F0A0"/>
<path d="M250.241 605.878C246.898 607.55 242.839 606.177 241.167 602.834C239.496 599.491 240.869 595.432 244.212 593.76C247.555 592.089 251.614 593.462 253.285 596.805C254.957 600.148 253.584 604.207 250.241 605.878Z" fill="#00F0A0"/>
<path d="M1025.09 299.566C1025.81 303.267 1023.42 306.789 1019.72 307.506C1016.02 308.222 1012.49 305.834 1011.78 302.133C1011.06 298.432 1013.45 294.91 1017.15 294.194C1020.85 293.477 1024.37 295.865 1025.09 299.566Z" fill="#00F0A0"/>
<path d="M1540.44 22.4185C1543.36 24.7466 1547.66 24.269 1549.99 21.344C1552.32 18.419 1551.84 14.121 1548.91 11.7929C1545.99 9.46481 1541.69 9.94237 1539.36 12.8674C1537.04 15.7924 1537.51 20.0904 1540.44 22.4185Z" fill="#00F0A0"/>
<path d="M1015.58 3.08374C1011.82 3.08374 1008.84 6.18785 1008.84 9.88891C1008.84 13.6497 1011.94 16.6344 1015.64 16.6344C1019.4 16.6344 1022.39 13.5303 1022.39 9.82922C1022.39 6.06847 1019.28 3.08374 1015.58 3.08374Z" fill="#00F0A0"/>
<path d="M56.0012 289.497C52.5389 290.87 48.5991 289.139 47.2261 285.617C45.8532 282.095 47.5843 278.215 51.1063 276.842C54.5686 275.469 58.5084 277.2 59.8814 280.722C61.2543 284.185 59.5232 288.124 56.0012 289.497Z" fill="#00F0A0"/>
<path d="M180.79 14.3653C180.372 10.6643 176.969 7.97801 173.268 8.39588C169.567 8.81374 166.881 12.2163 167.299 15.9174C167.717 19.6184 171.119 22.3047 174.82 21.8868C178.521 21.469 181.208 18.0664 180.79 14.3653Z" fill="#00F0A0"/>
<path d="M1741.37 591.001C1741.61 594.762 1744.83 597.568 1748.59 597.329C1752.35 597.09 1755.16 593.867 1754.92 590.106C1754.68 586.345 1751.46 583.54 1747.7 583.778C1743.94 584.017 1741.13 587.241 1741.37 591.001Z" fill="#00F0A0"/>
<path d="M1293.5 92.6717C1291.59 95.8953 1287.41 96.9698 1284.19 95.0595C1280.97 93.1493 1279.89 88.9707 1281.8 85.7472C1283.71 82.5237 1287.89 81.4492 1291.11 83.3594C1294.34 85.2696 1295.41 89.4482 1293.5 92.6717Z" fill="#00F0A0"/>
<path d="M1242.95 78.2252C1241.04 81.4487 1242.11 85.6273 1245.34 87.5376C1248.56 89.4478 1252.74 88.3733 1254.65 85.1498C1256.56 81.9263 1255.48 77.7477 1252.26 75.8374C1249.04 73.9272 1244.86 75.0017 1242.95 78.2252Z" fill="#00F0A0"/>
<path d="M1176.72 13.729C1172.96 13.729 1169.91 10.6846 1169.91 6.92383C1169.91 3.16307 1172.96 0.118652 1176.72 0.118652C1180.48 0.118652 1183.52 3.16307 1183.52 6.92383C1183.52 10.6846 1180.48 13.729 1176.72 13.729Z" fill="#00F0A0"/>
<path d="M1177.38 0.834888C1173.67 0.476721 1170.33 3.22267 1169.97 6.92373C1169.62 10.6248 1172.36 13.9677 1176.06 14.3258C1179.76 14.684 1183.11 11.9381 1183.46 8.23701C1183.82 4.53595 1181.08 1.19305 1177.38 0.834888Z" fill="#00F0A0"/>
<path d="M1299.35 257.455C1303.11 257.754 1305.91 260.977 1305.61 264.738C1305.31 268.499 1302.09 271.304 1298.33 271.006C1294.57 270.708 1291.76 267.484 1292.06 263.723C1292.36 259.963 1295.58 257.157 1299.35 257.455Z" fill="#00F0A0"/>
<path d="M364.576 677.114C367.202 679.8 367.083 684.098 364.397 686.725C361.71 689.351 357.412 689.232 354.786 686.545C352.219 683.859 352.279 679.561 354.965 676.935C357.651 674.368 361.949 674.427 364.576 677.114Z" fill="#00F0A0"/>
<path d="M357.831 679.74C357.711 683.501 360.696 686.605 364.397 686.725C368.158 686.844 371.262 683.859 371.381 680.158C371.501 676.397 368.516 673.293 364.815 673.174C361.054 673.054 357.95 676.039 357.831 679.74Z" fill="#00F0A0"/>
<path d="M268.978 580.88C265.456 582.133 263.546 585.954 264.8 589.535C266.053 593.057 269.874 594.967 273.455 593.714C276.977 592.52 278.888 588.64 277.634 585.118C276.44 581.596 272.56 579.686 268.978 580.939V580.88Z" fill="#00F0A0"/>
<path d="M152.116 522.207C148.415 521.729 145.013 524.416 144.535 528.117C144.057 531.818 146.744 535.22 150.445 535.698C154.146 536.175 157.548 533.489 158.026 529.788C158.504 526.087 155.817 522.684 152.116 522.207Z" fill="#00F0A0"/>
<path d="M731.584 450.56C728.122 452.052 724.182 450.5 722.69 447.038C721.197 443.576 722.749 439.576 726.212 438.143C729.674 436.651 733.673 438.203 735.106 441.665C736.598 445.128 735.046 449.127 731.584 450.619V450.56Z" fill="#00F0A0"/>
<path d="M815.243 402.195C812.616 399.568 808.318 399.568 805.632 402.195C803.005 404.821 803.005 409.119 805.632 411.805C808.259 414.432 812.557 414.432 815.243 411.805C817.869 409.179 817.869 404.881 815.243 402.195Z" fill="#00F0A0"/>
<path d="M849.786 194.848C853.487 194.311 856.113 190.908 855.576 187.207C855.039 183.506 851.636 180.88 847.935 181.417C844.234 181.954 841.608 185.357 842.145 189.058C842.682 192.759 846.085 195.385 849.786 194.848Z" fill="#00F0A0"/>
<path d="M626.959 111.197C624.87 108.093 620.632 107.317 617.528 109.406C614.424 111.495 613.648 115.734 615.737 118.838C617.826 121.942 622.065 122.718 625.169 120.629C628.273 118.539 629.049 114.301 626.959 111.197Z" fill="#00F0A0"/>
<path d="M282.045 190.219C284.791 192.726 284.97 197.024 282.463 199.83C279.956 202.576 275.658 202.755 272.852 200.248C270.106 197.741 269.927 193.443 272.434 190.637C274.942 187.891 279.24 187.712 282.045 190.219Z" fill="#00F0A0"/>
<path d="M183.927 106.123C180.345 107.257 178.435 111.077 179.569 114.659C180.703 118.241 184.524 120.151 188.105 119.017C191.687 117.883 193.597 114.062 192.463 110.48C191.329 106.899 187.508 104.989 183.927 106.123Z" fill="#00F0A0"/>
<path d="M373.112 546.263C374.007 549.905 371.858 553.606 368.217 554.501C364.576 555.397 360.875 553.248 359.979 549.606C359.084 545.965 361.233 542.264 364.874 541.369C368.515 540.473 372.216 542.622 373.112 546.263Z" fill="#00F0A0"/>
<path d="M364.218 545.786C362.904 549.308 364.636 553.188 368.157 554.561C371.679 555.874 375.56 554.143 376.933 550.621C378.246 547.099 376.515 543.219 372.993 541.906C369.471 540.592 365.591 542.324 364.218 545.846V545.786Z" fill="#00F0A0"/>
<path d="M691.675 207.458C693.765 210.562 692.989 214.8 689.885 216.89C686.78 218.979 682.542 218.203 680.453 215.099C678.363 211.995 679.14 207.756 682.244 205.667C685.348 203.578 689.586 204.354 691.675 207.458Z" fill="#00F0A0"/>
<path d="M1130.07 440.571C1132.28 443.556 1131.68 447.854 1128.64 450.063C1125.59 452.271 1121.36 451.674 1119.15 448.63C1116.94 445.645 1117.54 441.347 1120.58 439.139C1123.56 436.93 1127.86 437.527 1130.07 440.571Z" fill="#00F0A0"/>
<path d="M1097.35 252.659C1100.69 250.987 1102.06 246.928 1100.39 243.585C1098.72 240.242 1094.66 238.869 1091.32 240.541C1087.97 242.212 1086.6 246.272 1088.27 249.614C1089.94 252.957 1094 254.33 1097.35 252.659Z" fill="#00F0A0"/>
<path d="M1151.71 564.749C1152.37 568.45 1149.92 571.972 1146.28 572.628C1142.58 573.285 1139.06 570.838 1138.4 567.196C1137.75 563.495 1140.19 559.973 1143.83 559.317C1147.54 558.66 1151.06 561.107 1151.71 564.749Z" fill="#00F0A0"/>
<path d="M945.861 508.032C942.399 506.6 938.459 508.271 937.026 511.733C935.593 515.196 937.265 519.136 940.727 520.568C944.189 522.001 948.129 520.33 949.562 516.867C950.995 513.405 949.323 509.465 945.861 508.032Z" fill="#00F0A0"/>
<path d="M1053.07 555.264C1056.53 556.697 1058.2 560.637 1056.77 564.099C1055.33 567.561 1051.39 569.233 1047.93 567.8C1044.47 566.368 1042.8 562.428 1044.23 558.965C1045.66 555.503 1049.6 553.832 1053.07 555.264Z" fill="#00F0A0"/>
<path d="M483.666 274.713C481.099 277.459 476.801 277.638 474.055 275.071C471.309 272.504 471.13 268.206 473.697 265.46C476.264 262.714 480.562 262.535 483.308 265.102C486.054 267.669 486.233 271.967 483.666 274.713Z" fill="#00F0A0"/>
<path d="M468.086 267.61C467.668 271.311 470.354 274.654 474.115 275.071C477.816 275.489 481.159 272.803 481.577 269.042C481.995 265.341 479.308 261.998 475.548 261.58C471.847 261.163 468.504 263.849 468.086 267.61Z" fill="#00F0A0"/>
<path d="M468.086 267.61C467.668 271.311 470.354 274.654 474.115 275.071C477.816 275.489 481.159 272.803 481.577 269.042C481.995 265.341 479.308 261.998 475.548 261.58C471.847 261.163 468.504 263.849 468.086 267.61Z" fill="#00F0A0"/>
<path d="M363.223 85.7467C361.133 88.8508 356.895 89.6268 353.791 87.4778C350.687 85.3885 349.911 81.1502 352 78.0461C354.089 74.942 358.328 74.166 361.432 76.2553C364.536 78.3446 365.312 82.5829 363.163 85.687L363.223 85.7467Z" fill="#00F0A0"/>
<path d="M605.125 69.3377C607.93 71.8449 608.169 76.0832 605.722 78.8888C603.214 81.6945 598.976 81.9333 596.17 79.4858C593.365 76.9786 593.126 72.6806 595.574 69.9347C598.081 67.129 602.319 66.8902 605.125 69.3377Z" fill="#00F0A0"/>
<path d="M1574.09 413.775C1570.86 415.625 1566.68 414.551 1564.83 411.267C1562.98 408.044 1564.06 403.865 1567.34 402.015C1570.56 400.164 1574.74 401.239 1576.59 404.522C1578.44 407.745 1577.37 411.924 1574.15 413.775H1574.09Z" fill="#00F0A0"/>
<path d="M1648.54 364.155C1649.02 367.856 1646.4 371.259 1642.69 371.736C1638.99 372.214 1635.59 369.587 1635.11 365.886C1634.64 362.185 1637.26 358.782 1640.96 358.305C1644.66 357.827 1648.07 360.454 1648.54 364.155Z" fill="#00F0A0"/>
<path d="M1616.51 167.396C1620.21 166.918 1622.84 163.456 1622.3 159.755C1621.82 156.054 1618.36 153.427 1614.66 153.964C1610.96 154.442 1608.33 157.904 1608.87 161.605C1609.35 165.306 1612.81 167.933 1616.51 167.396Z" fill="#00F0A0"/>
<path d="M1343.7 3.91244C1341.67 0.748628 1337.49 -0.14679 1334.33 1.82313C1331.16 3.85274 1330.27 8.03136 1332.24 11.1952C1334.27 14.359 1338.44 15.2544 1341.61 13.2845C1344.77 11.2549 1345.67 7.07625 1343.7 3.91244Z" fill="#00F0A0"/>
<path d="M802.117 10.4797L1020.78 6.86792L1005.8 10.5981L802.117 10.5981" stroke="#00F0A0" stroke-width="0.25" stroke-miterlimit="1"/>
<path d="M22.855 708.446L19.184 456.39L0.473633 845.932L21.8484 721.117" stroke="#00F0A0" stroke-width="0.25" stroke-miterlimit="1"/>
<path d="M19.184 449.995L19.184 182.899L0.473633 845.932L18.8879 462.785" stroke="#00F0A0" stroke-width="0.25" stroke-miterlimit="1"/>
<path d="M19.0655 176.505L15.4537 14.3291L0.473633 845.932L19.0063 189.294" stroke="#00F0A0" stroke-width="0.25" stroke-miterlimit="1"/>
<path d="M550.771 14.2694L795.722 10.5984L416.838 10.5984L537.981 14.151" stroke="#00F0A0" stroke-width="0.25" stroke-miterlimit="1"/>
<path d="M350.405 14.3286L187.992 14.3286L416.838 10.5984L363.194 13.9734" stroke="#00F0A0" stroke-width="0.25" stroke-miterlimit="1"/>
<path d="M181.597 14.3289L15.4536 14.3289L416.838 10.5986L194.386 14.2696" stroke="#00F0A0" stroke-width="0.25" stroke-miterlimit="1"/>
<path d="M802.117 10.4797L1020.78 6.86792L416.838 10.5981L789.327 10.5981" stroke="#00F0A0" stroke-width="0.25" stroke-miterlimit="1"/>
<path d="M1633.9 431.285L1572.26 403.93L1643.49 497.601L1640.11 440.285" stroke="#00F0A0" stroke-width="0.25" stroke-miterlimit="1"/>
<path d="M1451.24 656.638L1572.26 403.93L1553.49 636.211L1454.67 660.842" stroke="#00F0A0" stroke-width="0.25" stroke-miterlimit="1"/>
<path d="M1639.64 492.508L1572.26 403.93L1553.49 636.211L1640.06 502.929" stroke="#00F0A0" stroke-width="0.25" stroke-miterlimit="1"/>
<path d="M856.531 128.545L795.722 10.5984L979.51 66.7886L865.057 131.091" stroke="#00F0A0" stroke-width="0.25" stroke-miterlimit="1"/>
<path d="M802.117 10.5984L1005.8 10.5984L979.51 66.7886L801.821 12.4931" stroke="#00F0A0" stroke-width="0.25" stroke-miterlimit="1"/>
<path d="M1012.02 9.05869L1020.78 6.86792L979.51 66.7884L1003.08 16.4007" stroke="#00F0A0" stroke-width="0.25" stroke-miterlimit="1"/>
<path d="M1908.1 295.813L1812.3 239.09L1823.55 164.189L1910.05 293.741" stroke="#00F0A0" stroke-width="0.25" stroke-miterlimit="1"/>
<path d="M1913.25 292.674L1898.57 6.86792L1823.55 164.189L1910.05 293.74" stroke="#00F0A0" stroke-width="0.25" stroke-miterlimit="1"/>
<path d="M1807.26 235.241L1714.78 164.189H1823.55L1813.24 232.814" stroke="#00F0A0" stroke-width="0.25" stroke-miterlimit="1"/>
<path d="M22.8551 708.446L19.1841 456.39L109.242 471.37L25.1051 708.802" stroke="#00F0A0" stroke-width="0.25" stroke-miterlimit="1"/>
<path d="M1909.88 727.157L1913.61 299.069L1909.88 707.381V727.157Z" stroke="#00F0A0" stroke-width="0.25" stroke-miterlimit="1"/>
<path d="M1721.17 164.189H1823.55L1849.84 21.8484L1719.16 159.571" stroke="#00F0A0" stroke-width="0.25" stroke-miterlimit="1"/>
<path d="M1826.33 158.445L1898.57 6.86792L1849.84 21.848L1824.73 157.912" stroke="#00F0A0" stroke-width="0.25" stroke-miterlimit="1"/>
<path d="M1709.69 160.281L1666.05 126.709L1849.84 21.8484L1719.16 159.571" stroke="#00F0A0" stroke-width="0.25" stroke-miterlimit="1"/>
<path d="M1663.03 121.084L1602.22 6.86792L1849.84 21.848L1671.56 123.571" stroke="#00F0A0" stroke-width="0.25" stroke-miterlimit="1"/>
<path d="M1892.23 6.86792L1602.22 6.86792L1849.84 21.848L1892.47 8.76264" stroke="#00F0A0" stroke-width="0.25" stroke-miterlimit="1"/>
<path d="M636.743 113.505L664.394 104.268L634.434 96.7488L631.888 109.242" stroke="#00F0A0" stroke-width="0.25" stroke-miterlimit="1"/>
<path d="M628.04 109.657L611.935 74.3083L634.434 96.7489L631.888 109.242" stroke="#00F0A0" stroke-width="0.25" stroke-miterlimit="1"/>
<path d="M658.888 101.071L611.935 74.3083L634.434 96.7489L658.237 102.729" stroke="#00F0A0" stroke-width="0.25" stroke-miterlimit="1"/>
<path d="M1300.49 255.431L1253.36 81.7683L1099.59 246.609L1295.75 261.115" stroke="#00F0A0" stroke-width="0.25" stroke-miterlimit="1"/>
<path d="M1300.49 255.431L1253.36 81.7683L1290.89 89.288L1301.73 255.194" stroke="#00F0A0" stroke-width="0.25" stroke-miterlimit="1"/>
<path d="M1103.91 241.931L1253.36 81.7685L1174.61 6.86792L1101.48 240.51" stroke="#00F0A0" stroke-width="0.25" stroke-miterlimit="1"/>
<path d="M1096.03 241.28L979.51 66.7884L1174.61 6.86792L1101.48 240.51" stroke="#00F0A0" stroke-width="0.25" stroke-miterlimit="1"/>
<path d="M983.181 61.5187L1020.78 6.86792L1174.61 6.86792L985.667 64.8936" stroke="#00F0A0" stroke-width="0.25" stroke-miterlimit="1"/>
<path d="M1909.88 700.986L1913.61 299.069L1786.07 478.83L1906.8 701.756" stroke="#00F0A0" stroke-width="0.25" stroke-miterlimit="1"/>
<path d="M853.156 133.282L664.395 104.269L758.183 33.0984L854.991 129.729" stroke="#00F0A0" stroke-width="0.25" stroke-miterlimit="1"/>
<path d="M856.531 128.545L795.722 10.5984L758.183 33.0982L854.991 129.729" stroke="#00F0A0" stroke-width="0.25" stroke-miterlimit="1"/>
<path d="M658.888 101.071L611.935 74.3085L758.183 33.0984L669.487 100.42" stroke="#00F0A0" stroke-width="0.25" stroke-miterlimit="1"/>
<path d="M607.138 70.0454L544.376 14.3289L758.183 33.0984L618.033 72.5322" stroke="#00F0A0" stroke-width="0.25" stroke-miterlimit="1"/>
<path d="M550.771 14.2694L795.722 10.5984L758.183 33.0982L550.771 14.9207" stroke="#00F0A0" stroke-width="0.25" stroke-miterlimit="1"/>
<path d="M1906.8 701.756L1786.07 478.831L1748.53 587.481L1904.72 703.532" stroke="#00F0A0" stroke-width="0.25" stroke-miterlimit="1"/>
<path d="M1556.98 630.823L1643.49 497.6L1748.53 587.481L1559.71 634.612" stroke="#00F0A0" stroke-width="0.25" stroke-miterlimit="1"/>
<path d="M1454.55 689.855L1448.45 662.381L1497.18 673.631L1461.54 693.052" stroke="#00F0A0" stroke-width="0.25" stroke-miterlimit="1"/>
<path d="M1454.67 660.842L1553.49 636.211L1497.18 673.631L1454.67 663.862" stroke="#00F0A0" stroke-width="0.25" stroke-miterlimit="1"/>
<path d="M102.907 470.304L19.1841 456.39L67.9731 280.3L107.881 465.094" stroke="#00F0A0" stroke-width="0.25" stroke-miterlimit="1"/>
<path d="M19.1841 449.995L19.1841 182.899L67.9731 280.3L20.9012 450.232" stroke="#00F0A0" stroke-width="0.25" stroke-miterlimit="1"/>
<path d="M1789.74 473.62L1913.61 299.069L1707.26 344.009L1782.81 473.324" stroke="#00F0A0" stroke-width="0.25" stroke-miterlimit="1"/>
<path d="M1807.26 235.241L1714.78 164.189L1707.26 344.01L1807.8 243.649" stroke="#00F0A0" stroke-width="0.25" stroke-miterlimit="1"/>
<path d="M107.881 465.094L67.9731 280.3L289.3 194.149L112.736 465.982" stroke="#00F0A0" stroke-width="0.25" stroke-miterlimit="1"/>
<path d="M1707.55 337.615L1714.78 164.189L1617.26 160.459L1704.48 338.266" stroke="#00F0A0" stroke-width="0.25" stroke-miterlimit="1"/>
<path d="M1709.69 160.281L1666.05 126.709L1617.26 160.458L1708.38 163.952" stroke="#00F0A0" stroke-width="0.25" stroke-miterlimit="1"/>
<path d="M1663.03 121.084L1602.22 6.86792L1617.26 160.458L1660.78 130.38" stroke="#00F0A0" stroke-width="0.25" stroke-miterlimit="1"/>
<path d="M1552.25 16.8152L1602.22 6.86792L1617.26 160.458L1548.81 23.802" stroke="#00F0A0" stroke-width="0.25" stroke-miterlimit="1"/>
<path d="M301.734 751.492L22.9736 714.841L259.28 595L306.175 746.223" stroke="#00F0A0" stroke-width="0.25" stroke-miterlimit="1"/>
<path d="M306.175 746.223L259.28 595L375.569 681.151L312.451 747.644" stroke="#00F0A0" stroke-width="0.25" stroke-miterlimit="1"/>
<path d="M265.024 592.099L281.78 583.75L375.569 681.151L264.432 598.79" stroke="#00F0A0" stroke-width="0.25" stroke-miterlimit="1"/>
<path d="M1023.32 292.793L979.509 66.7888L855.761 186.689L1019.24 295.517" stroke="#00F0A0" stroke-width="0.25" stroke-miterlimit="1"/>
<path d="M865.057 131.091L979.509 66.7888L855.761 186.689L859.017 140.624" stroke="#00F0A0" stroke-width="0.25" stroke-miterlimit="1"/>
<path d="M1633.9 431.285L1572.26 403.93L1643.49 362.719L1640.11 427.495" stroke="#00F0A0" stroke-width="0.25" stroke-miterlimit="1"/>
<path d="M1643.61 428.798L1707.26 344.01L1643.49 362.72L1640.11 427.495" stroke="#00F0A0" stroke-width="0.25" stroke-miterlimit="1"/>
<path d="M1704.48 338.266L1617.26 160.459L1643.49 362.72L1701.16 345.786" stroke="#00F0A0" stroke-width="0.25" stroke-miterlimit="1"/>
<path d="M28.6574 711.94L259.28 595L165.492 523.83L26.7627 709.749" stroke="#00F0A0" stroke-width="0.25" stroke-miterlimit="1"/>
<path d="M25.105 708.802L109.242 471.37L165.492 523.83L26.7629 709.749" stroke="#00F0A0" stroke-width="0.25" stroke-miterlimit="1"/>
<path d="M265.024 592.099L281.78 583.75L165.492 523.83L254.188 591.093" stroke="#00F0A0" stroke-width="0.25" stroke-miterlimit="1"/>
<path d="M112.736 465.982L289.3 194.149L165.492 523.83L113.92 475.693" stroke="#00F0A0" stroke-width="0.25" stroke-miterlimit="1"/>
<path d="M1552.25 16.8159L1602.22 6.86865L1527.2 3.13843L1541 14.0923" stroke="#00F0A0" stroke-width="0.25" stroke-miterlimit="1"/>
<path d="M1333.29 6.86865L1174.61 6.86865L1527.2 3.13843L1346.02 6.75023" stroke="#00F0A0" stroke-width="0.25" stroke-miterlimit="1"/>
<path d="M1027.17 6.86865L1174.61 6.86865L1527.2 3.13843L1027.17 6.80944" stroke="#00F0A0" stroke-width="0.25" stroke-miterlimit="1"/>
<path d="M1892.23 6.86865L1602.22 6.86865L1527.2 3.13843L1892.23 6.80944" stroke="#00F0A0" stroke-width="0.25" stroke-miterlimit="1"/>
<path d="M73.9532 277.991L289.3 194.15L199.241 111.729L71.8809 275.267" stroke="#00F0A0" stroke-width="0.25" stroke-miterlimit="1"/>
<path d="M65.131 274.616L19.1841 182.9L199.241 111.729L71.8809 275.267" stroke="#00F0A0" stroke-width="0.25" stroke-miterlimit="1"/>
<path d="M19.0654 176.505L15.4536 14.3291L199.241 111.729L25.164 180.591" stroke="#00F0A0" stroke-width="0.25" stroke-miterlimit="1"/>
<path d="M181.597 14.3291L15.4536 14.3291L199.241 111.729L188.761 20.7238" stroke="#00F0A0" stroke-width="0.25" stroke-miterlimit="1"/>
<path d="M1743.67 583.336L1643.49 497.6L1741.07 475.1L1748.11 581.086" stroke="#00F0A0" stroke-width="0.25" stroke-miterlimit="1"/>
<path d="M1750.66 581.441L1786.07 478.831L1741.07 475.1L1748.11 581.086" stroke="#00F0A0" stroke-width="0.25" stroke-miterlimit="1"/>
<path d="M1643.13 491.206L1639.76 433.89L1741.07 475.1L1649.77 496.12" stroke="#00F0A0" stroke-width="0.25" stroke-miterlimit="1"/>
<path d="M1782.81 473.324L1707.26 344.01L1741.07 475.1L1779.67 478.298" stroke="#00F0A0" stroke-width="0.25" stroke-miterlimit="1"/>
<path d="M1643.61 428.798L1707.26 344.01L1741.07 475.1L1645.68 436.318" stroke="#00F0A0" stroke-width="0.25" stroke-miterlimit="1"/>
<path d="M1284.62 88.0448L1253.36 81.7686L1290.89 18.1179V82.8936" stroke="#00F0A0" stroke-width="0.25" stroke-miterlimit="1"/>
<path d="M1294.15 83.7816L1339.68 6.86792L1290.89 18.1178V82.8935" stroke="#00F0A0" stroke-width="0.25" stroke-miterlimit="1"/>
<path d="M1248.74 77.3869L1174.61 6.86792L1290.89 18.1178L1256.61 76.262" stroke="#00F0A0" stroke-width="0.25" stroke-miterlimit="1"/>
<path d="M1181 6.86792L1339.68 6.86792L1290.89 18.1178L1180.94 7.46002" stroke="#00F0A0" stroke-width="0.25" stroke-miterlimit="1"/>
<path d="M1019.24 295.516L855.761 186.688L818.222 403.929L1018.82 301.97" stroke="#00F0A0" stroke-width="0.25" stroke-miterlimit="1"/>
<path d="M951.622 506.541L1024.57 299.069L1129.61 441.41L955.471 510.212" stroke="#00F0A0" stroke-width="0.25" stroke-miterlimit="1"/>
<path d="M1295.75 261.116L1099.59 246.609L1129.61 441.41L1297.7 266.208" stroke="#00F0A0" stroke-width="0.25" stroke-miterlimit="1"/>
<path d="M371.128 676.533L281.78 583.751L379.299 550.001L375.746 674.756" stroke="#00F0A0" stroke-width="0.25" stroke-miterlimit="1"/>
<path d="M276.096 580.79L165.492 523.83L379.299 550.001L287.819 581.678" stroke="#00F0A0" stroke-width="0.25" stroke-miterlimit="1"/>
<path d="M167.742 517.791L289.3 194.149L379.299 550.001L171.827 524.6" stroke="#00F0A0" stroke-width="0.25" stroke-miterlimit="1"/>
<path d="M951.622 506.541L1024.57 299.069L908.28 493.87L943.688 509.916" stroke="#00F0A0" stroke-width="0.25" stroke-miterlimit="1"/>
<path d="M737.815 438.864L818.222 403.93L908.28 493.87L738.052 443.187" stroke="#00F0A0" stroke-width="0.25" stroke-miterlimit="1"/>
<path d="M823.906 401.029L1024.57 299.069L908.28 493.87L822.722 408.43" stroke="#00F0A0" stroke-width="0.25" stroke-miterlimit="1"/>
<path d="M363.194 13.9734L416.838 10.5984L368.049 81.7687L357.865 20.6641" stroke="#00F0A0" stroke-width="0.25" stroke-miterlimit="1"/>
<path d="M819.288 397.653L855.761 186.688L694.414 209.129L814.788 398.541" stroke="#00F0A0" stroke-width="0.25" stroke-miterlimit="1"/>
<path d="M856.176 180.294L859.491 134.228L694.414 209.129L849.426 187.576" stroke="#00F0A0" stroke-width="0.25" stroke-miterlimit="1"/>
<path d="M853.156 133.281L664.395 104.268L694.414 209.129L853.689 136.893" stroke="#00F0A0" stroke-width="0.25" stroke-miterlimit="1"/>
<path d="M636.744 113.505L664.395 104.268L694.414 209.129L634.257 120.788" stroke="#00F0A0" stroke-width="0.25" stroke-miterlimit="1"/>
<path d="M284.563 189.827L199.241 111.729L349.338 63.0583L291.964 188.347" stroke="#00F0A0" stroke-width="0.25" stroke-miterlimit="1"/>
<path d="M292.971 188.939L368.049 81.7687L349.339 63.0583L291.964 188.347" stroke="#00F0A0" stroke-width="0.25" stroke-miterlimit="1"/>
<path d="M198.531 105.394L187.992 14.3289L349.339 63.0586L205.34 109.775" stroke="#00F0A0" stroke-width="0.25" stroke-miterlimit="1"/>
<path d="M367.042 75.4927L356.799 14.3289L349.338 63.0586L363.549 77.269" stroke="#00F0A0" stroke-width="0.25" stroke-miterlimit="1"/>
<path d="M350.405 14.3289L187.992 14.3289L349.339 63.0586L355.852 20.6643" stroke="#00F0A0" stroke-width="0.25" stroke-miterlimit="1"/>
<path d="M377.759 543.843L289.3 194.149L484.337 272.839L381.608 544.08" stroke="#00F0A0" stroke-width="0.25" stroke-miterlimit="1"/>
<path d="M690.862 203.86L630.645 115.518L484.337 272.839L688.316 211.024" stroke="#00F0A0" stroke-width="0.25" stroke-miterlimit="1"/>
<path d="M292.971 188.938L368.049 81.7683L484.337 272.839L295.221 196.576" stroke="#00F0A0" stroke-width="0.25" stroke-miterlimit="1"/>
<path d="M1125.82 436.259L1024.57 299.069L1077.09 257.859L1127.83 435.252" stroke="#00F0A0" stroke-width="0.25" stroke-miterlimit="1"/>
<path d="M1128.6 435.074L1099.59 246.609L1077.09 257.859L1127.83 435.252" stroke="#00F0A0" stroke-width="0.25" stroke-miterlimit="1"/>
<path d="M1023.33 292.793L979.51 66.7888L1077.09 257.859L1029.6 295.102" stroke="#00F0A0" stroke-width="0.25" stroke-miterlimit="1"/>
<path d="M1096.03 241.28L979.51 66.7888L1077.09 257.859L1093.84 249.451" stroke="#00F0A0" stroke-width="0.25" stroke-miterlimit="1"/>
<path d="M1150.92 558.705L1129.61 441.41L1058.32 557.521L1145.71 564.507" stroke="#00F0A0" stroke-width="0.25" stroke-miterlimit="1"/>
<path d="M955.47 510.212L1129.61 441.41L1058.32 557.521L955.411 515.008" stroke="#00F0A0" stroke-width="0.25" stroke-miterlimit="1"/>
<path d="M1052.4 555.093L949.549 512.58L942.03 523.83L1052.16 555.744" stroke="#00F0A0" stroke-width="0.25" stroke-miterlimit="1"/>
<path d="M943.688 509.916L908.28 493.87L942.03 523.83L945.997 517.909" stroke="#00F0A0" stroke-width="0.25" stroke-miterlimit="1"/>
<path d="M488.719 268.162L630.645 115.518L506.896 63.0583L485.048 266.444" stroke="#00F0A0" stroke-width="0.25" stroke-miterlimit="1"/>
<path d="M481.021 267.392L368.049 81.7687L506.896 63.0583L485.048 266.444" stroke="#00F0A0" stroke-width="0.25" stroke-miterlimit="1"/>
<path d="M628.039 109.657L611.934 74.3082L506.896 63.0583L624.783 113.032" stroke="#00F0A0" stroke-width="0.25" stroke-miterlimit="1"/>
<path d="M371.661 76.499L416.838 10.5984L506.896 63.0584L374.384 80.9398" stroke="#00F0A0" stroke-width="0.25" stroke-miterlimit="1"/>
<path d="M607.138 70.0454L544.376 14.3289L506.896 63.0586L605.54 73.598" stroke="#00F0A0" stroke-width="0.25" stroke-miterlimit="1"/>
<path d="M537.981 14.151L416.838 10.5984L506.896 63.0584L540.468 19.4207" stroke="#00F0A0" stroke-width="0.25" stroke-miterlimit="1"/>
<path d="M1577.77 400.732L1643.49 362.72L1452.18 182.899L1569.18 398.305" stroke="#00F0A0" stroke-width="0.25" stroke-miterlimit="1"/>
<path d="M1566.58 400.969L1302.14 261.589L1452.18 182.899L1569.18 398.305" stroke="#00F0A0" stroke-width="0.25" stroke-miterlimit="1"/>
<path d="M1642.66 356.384L1617.26 160.459L1452.18 182.899L1638.87 358.338" stroke="#00F0A0" stroke-width="0.25" stroke-miterlimit="1"/>
<path d="M1301.73 255.195L1290.89 89.2888L1452.18 182.9L1307.83 258.629" stroke="#00F0A0" stroke-width="0.25" stroke-miterlimit="1"/>
<path d="M1614.36 154.715L1545.97 18.1179L1452.18 182.899L1610.92 161.288" stroke="#00F0A0" stroke-width="0.25" stroke-miterlimit="1"/>
<path d="M1294.15 83.7816L1339.68 6.86792L1452.18 182.899L1296.4 92.4855" stroke="#00F0A0" stroke-width="0.25" stroke-miterlimit="1"/>
<path d="M1541 14.0923L1527.2 3.13843L1452.18 182.9L1542.83 23.6251" stroke="#00F0A0" stroke-width="0.25" stroke-miterlimit="1"/>
<path d="M1346.02 6.75023L1527.2 3.13843L1452.18 182.9L1343.12 12.2568" stroke="#00F0A0" stroke-width="0.25" stroke-miterlimit="1"/>
</g>
<defs>
<clipPath id="clip0_167_1977">
<rect width="1920" height="846.051" fill="white"/>
</clipPath>
</defs>
</svg>
