<svg width="1920" height="847" viewBox="0 0 1920 847" fill="none" xmlns="http://www.w3.org/2000/svg">
<g opacity="0.6" clip-path="url(#clip0_167_1571)">
<path d="M1892.42 391.316C1892.24 395.046 1895.09 398.185 1898.82 398.362C1902.55 398.54 1905.68 395.698 1905.86 391.968C1906.04 388.237 1903.2 385.099 1899.47 384.922C1895.74 384.744 1892.6 387.586 1892.42 391.316Z" fill="#00F0A0"/>
<path d="M1892.24 663.924C1892.13 667.655 1895.09 670.734 1898.76 670.852C1902.49 670.97 1905.57 668.01 1905.69 664.339C1905.8 660.609 1902.84 657.53 1899.17 657.411C1895.44 657.293 1892.36 660.253 1892.24 663.924Z" fill="#00F0A0"/>
<path d="M1562.89 838.114C1559.16 838.114 1556.14 835.095 1556.14 831.364C1556.14 827.634 1559.16 824.614 1562.89 824.614C1566.62 824.614 1569.64 827.634 1569.64 831.364C1569.64 835.095 1566.62 838.114 1562.89 838.114Z" fill="#00F0A0"/>
<path d="M1124.03 829.403C1120.3 829.403 1117.28 832.423 1117.28 836.153C1117.28 839.884 1120.3 842.903 1124.03 842.903C1127.76 842.903 1130.78 839.884 1130.78 836.153C1130.78 832.423 1127.76 829.403 1124.03 829.403Z" fill="#00F0A0"/>
<path d="M278.675 419.743C275.3 418.262 273.76 414.236 275.24 410.861C276.721 407.486 280.747 405.947 284.122 407.427C287.497 408.907 289.036 412.933 287.556 416.308C286.076 419.683 282.05 421.223 278.675 419.743Z" fill="#00F0A0"/>
<path d="M462.607 187.509C464.206 184.134 468.232 182.713 471.607 184.371C474.982 185.969 476.344 189.996 474.745 193.371C473.146 196.746 469.12 198.167 465.745 196.509C462.37 194.91 460.949 190.884 462.607 187.509Z" fill="#00F0A0"/>
<path d="M466.633 192.482C470.245 191.594 472.436 187.923 471.548 184.311C470.66 180.699 466.989 178.509 463.377 179.397C459.765 180.285 457.574 183.956 458.462 187.568C459.35 191.18 463.021 193.37 466.633 192.482Z" fill="#00F0A0"/>
<path d="M271.497 345.856C269.484 348.994 270.373 353.139 273.451 355.152C276.59 357.165 280.734 356.277 282.747 353.198C284.76 350.06 283.872 345.915 280.793 343.902C277.655 341.889 273.511 342.777 271.497 345.856Z" fill="#00F0A0"/>
<path d="M4.7631 553.919C1.56576 552.024 0.500021 547.879 2.39474 544.682C4.28946 541.485 8.43414 540.419 11.6315 542.314C14.8288 544.208 15.8945 548.353 13.9998 551.55C12.1051 554.748 7.96043 555.813 4.7631 553.919Z" fill="#00F0A0"/>
<path d="M104.946 614.076C101.986 611.826 101.453 607.563 103.703 604.662C105.953 601.701 110.216 601.168 113.117 603.418C116.078 605.668 116.611 609.931 114.361 612.833C112.111 615.793 107.848 616.326 104.946 614.076Z" fill="#00F0A0"/>
<path d="M90.4531 680.76C92.0518 677.385 96.0781 675.964 99.3938 677.562C102.71 679.161 104.19 683.187 102.591 686.503C100.992 689.878 96.9662 691.299 93.6505 689.7C90.2755 688.102 88.8544 684.075 90.4531 680.76Z" fill="#00F0A0"/>
<path d="M247.168 723.102C245.451 719.845 246.695 715.76 249.951 713.983C253.208 712.266 257.293 713.51 259.069 716.766C260.787 720.023 259.543 724.108 256.287 725.885C253.03 727.661 248.945 726.358 247.168 723.102Z" fill="#00F0A0"/>
<path d="M21.8746 831.476C18.322 832.542 16.3089 836.331 17.4339 839.884C18.4997 843.436 22.289 845.449 25.8416 844.324C29.3942 843.259 31.4073 839.469 30.2824 835.917C29.2166 832.364 25.4272 830.351 21.8746 831.476Z" fill="#00F0A0"/>
<path d="M943.99 784.371C947.543 783.305 949.556 779.516 948.431 775.963C947.365 772.411 943.576 770.398 940.023 771.523C936.47 772.588 934.457 776.378 935.582 779.93C936.648 783.483 940.437 785.496 943.99 784.371Z" fill="#00F0A0"/>
<path d="M4.37466 144.062C4.37466 140.332 7.45372 137.371 11.1839 137.371C14.9142 137.371 17.8745 140.45 17.8745 144.18C17.8745 147.911 14.7956 150.871 11.0654 150.871C7.33518 150.871 4.37466 147.792 4.37466 144.062Z" fill="#00F0A0"/>
<path d="M1054.61 715.582C1052.89 712.266 1054.19 708.24 1057.51 706.523C1060.82 704.805 1064.85 706.108 1066.57 709.424C1068.29 712.74 1066.98 716.766 1063.67 718.483C1060.35 720.2 1056.32 718.897 1054.61 715.582Z" fill="#00F0A0"/>
<path d="M1260.3 747.898C1263.26 745.648 1263.86 741.444 1261.61 738.483C1259.36 735.523 1255.15 734.931 1252.19 737.181C1249.23 739.431 1248.64 743.635 1250.89 746.595C1253.14 749.556 1257.34 750.148 1260.3 747.898Z" fill="#00F0A0"/>
<path d="M1375.81 824.792C1379.55 824.792 1382.56 827.693 1382.62 831.423C1382.62 835.154 1379.72 838.173 1375.99 838.232C1372.26 838.232 1369.24 835.331 1369.18 831.601C1369.18 827.871 1372.08 824.851 1375.81 824.792Z" fill="#00F0A0"/>
<path d="M359.214 207.554C361.227 204.416 365.431 203.528 368.51 205.6C371.648 207.613 372.536 211.817 370.463 214.896C368.45 218.034 364.247 218.923 361.168 216.85C358.029 214.837 357.141 210.633 359.214 207.554Z" fill="#00F0A0"/>
<path d="M458.936 158.673C458.107 155.061 460.416 151.449 464.028 150.62C467.64 149.791 471.252 152.101 472.081 155.712C472.91 159.324 470.601 162.936 466.989 163.765C463.377 164.594 459.765 162.285 458.936 158.673Z" fill="#00F0A0"/>
<path d="M461.363 159.739C464.62 157.963 465.804 153.878 464.028 150.621C462.252 147.364 458.166 146.18 454.91 147.957C451.653 149.733 450.469 153.818 452.186 157.075C453.962 160.331 458.048 161.516 461.304 159.739L461.363 159.739Z" fill="#00F0A0"/>
<path d="M463.377 179.456C466.989 178.568 470.66 180.759 471.548 184.371C472.436 187.983 470.245 191.654 466.633 192.542C463.021 193.43 459.35 191.239 458.462 187.627C457.574 184.016 459.765 180.345 463.377 179.456Z" fill="#00F0A0"/>
<path d="M463.495 189.403C467.107 190.232 470.719 187.982 471.548 184.37C472.377 180.759 470.127 177.147 466.515 176.318C462.903 175.489 459.291 177.739 458.463 181.351C457.634 184.963 459.884 188.574 463.495 189.403Z" fill="#00F0A0"/>
<path d="M1809.32 383.139C1805.65 382.546 1803.17 379.053 1803.82 375.382C1804.41 371.711 1807.9 369.224 1811.57 369.875C1815.24 370.468 1817.73 373.961 1817.08 377.632C1816.49 381.303 1812.99 383.79 1809.32 383.139Z" fill="#00F0A0"/>
<path d="M129.578 365.52C131.709 362.5 135.913 361.789 138.933 363.921C141.953 366.053 142.663 370.256 140.532 373.276C138.4 376.296 134.196 377.006 131.176 374.875C128.157 372.743 127.446 368.539 129.578 365.52Z" fill="#00F0A0"/>
<path d="M219.741 501.821C218.083 498.505 214.057 497.084 210.741 498.742C207.425 500.4 206.004 504.426 207.662 507.742C209.32 511.058 213.346 512.479 216.662 510.821C219.978 509.163 221.399 505.137 219.741 501.821Z" fill="#00F0A0"/>
<path d="M201.465 688.977C198.504 686.727 197.972 682.464 200.222 679.563C202.472 676.603 206.735 676.07 209.636 678.32C212.596 680.57 213.129 684.833 210.879 687.734C208.629 690.695 204.366 691.227 201.465 688.977Z" fill="#00F0A0"/>
<path d="M1657.66 245.791C1660.98 244.133 1665 245.494 1666.66 248.81C1668.32 252.126 1666.96 256.152 1663.64 257.81C1660.33 259.468 1656.3 258.106 1654.64 254.79C1652.98 251.475 1654.35 247.448 1657.66 245.791Z" fill="#00F0A0"/>
<path d="M889.102 549.617C888.392 545.946 890.76 542.452 894.431 541.742C898.102 541.031 901.596 543.4 902.306 547.071C903.017 550.742 900.648 554.235 896.977 554.945C893.306 555.656 889.813 553.288 889.102 549.617Z" fill="#00F0A0"/>
<path d="M377.937 824.515C375.036 822.205 370.773 822.679 368.463 825.58C366.154 828.482 366.628 832.745 369.529 835.054C372.43 837.363 376.694 836.89 379.003 833.988C381.312 831.087 380.838 826.824 377.937 824.515Z" fill="#00F0A0"/>
<path d="M898.53 843.692C902.261 843.692 905.221 840.613 905.221 836.942C905.221 833.212 902.142 830.252 898.471 830.252C894.741 830.252 891.781 833.331 891.781 837.002C891.781 840.732 894.859 843.692 898.53 843.692Z" fill="#00F0A0"/>
<path d="M1850.32 559.604C1853.76 558.242 1857.67 559.959 1859.03 563.452C1860.39 566.946 1858.67 570.794 1855.18 572.156C1851.74 573.518 1847.84 571.801 1846.47 568.307C1845.11 564.873 1846.83 560.965 1850.32 559.604Z" fill="#00F0A0"/>
<path d="M1726.55 832.502C1726.96 836.173 1730.34 838.838 1734.01 838.423C1737.68 838.009 1740.34 834.634 1739.93 830.963C1739.52 827.292 1736.14 824.627 1732.47 825.042C1728.8 825.456 1726.13 828.831 1726.55 832.502Z" fill="#00F0A0"/>
<path d="M178.636 260.547C178.399 256.817 175.202 254.034 171.472 254.271C167.742 254.508 164.959 257.705 165.196 261.435C165.433 265.165 168.63 267.948 172.36 267.712C176.09 267.475 178.873 264.277 178.636 260.547Z" fill="#00F0A0"/>
<path d="M622.869 754.831C624.764 751.634 628.908 750.568 632.106 752.463C635.303 754.358 636.369 758.502 634.474 761.7C632.579 764.897 628.435 765.963 625.237 764.068C622.04 762.173 620.974 758.029 622.869 754.831Z" fill="#00F0A0"/>
<path d="M673.013 769.161C674.908 765.963 673.842 761.819 670.645 759.924C667.447 758.029 663.303 759.095 661.408 762.292C659.513 765.49 660.579 769.634 663.776 771.529C666.974 773.424 671.118 772.358 673.013 769.161Z" fill="#00F0A0"/>
<path d="M738.703 833.133C742.433 833.133 745.453 836.153 745.453 839.883C745.453 843.613 742.433 846.633 738.703 846.633C734.972 846.633 731.953 843.613 731.953 839.883C731.953 836.153 734.972 833.133 738.703 833.133Z" fill="#00F0A0"/>
<path d="M738.052 845.923C741.723 846.278 745.038 843.555 745.394 839.884C745.749 836.213 743.025 832.897 739.354 832.541C735.683 832.186 732.367 834.91 732.012 838.581C731.657 842.252 734.381 845.568 738.052 845.923Z" fill="#00F0A0"/>
<path d="M963.924 332.316C965.168 328.823 969.016 326.987 972.51 328.171C976.003 329.355 977.839 333.263 976.654 336.757C975.411 340.25 971.562 342.086 968.069 340.901C964.576 339.717 962.74 335.809 963.924 332.316Z" fill="#00F0A0"/>
<path d="M617.073 591.386C613.342 591.09 610.56 587.892 610.856 584.162C611.152 580.432 614.349 577.649 618.079 577.945C621.809 578.241 624.592 581.438 624.296 585.169C624 588.899 620.803 591.682 617.073 591.386Z" fill="#00F0A0"/>
<path d="M1544.25 175.134C1541.65 172.47 1541.77 168.206 1544.43 165.601C1547.1 162.996 1551.36 163.114 1553.96 165.779C1556.51 168.443 1556.45 172.706 1553.79 175.312C1551.12 177.858 1546.86 177.798 1544.25 175.134Z" fill="#00F0A0"/>
<path d="M1550.94 172.528C1551.06 168.798 1548.1 165.719 1544.43 165.601C1540.7 165.482 1537.62 168.443 1537.5 172.114C1537.39 175.844 1540.35 178.923 1544.02 179.041C1547.75 179.16 1550.83 176.199 1550.94 172.528Z" fill="#00F0A0"/>
<path d="M1639.08 270.587C1642.57 269.344 1644.46 265.554 1643.22 262.002C1641.98 258.508 1638.19 256.613 1634.63 257.857C1631.14 259.041 1629.25 262.89 1630.49 266.383C1631.67 269.876 1635.52 271.771 1639.08 270.528L1639.08 270.587Z" fill="#00F0A0"/>
<path d="M1754.99 328.783C1758.66 329.257 1762.03 326.593 1762.51 322.922C1762.98 319.251 1760.32 315.876 1756.65 315.402C1752.98 314.928 1749.6 317.593 1749.13 321.264C1748.65 324.935 1751.32 328.31 1754.99 328.783Z" fill="#00F0A0"/>
<path d="M1180.22 399.849C1183.66 398.369 1187.57 399.908 1189.05 403.342C1190.53 406.776 1188.99 410.744 1185.55 412.165C1182.12 413.645 1178.15 412.105 1176.73 408.671C1175.25 405.237 1176.79 401.27 1180.22 399.79L1180.22 399.849Z" fill="#00F0A0"/>
<path d="M1097.25 447.821C1099.85 450.427 1104.11 450.427 1106.78 447.821C1109.38 445.216 1109.38 440.953 1106.78 438.289C1104.17 435.683 1099.91 435.683 1097.25 438.289C1094.64 440.894 1094.64 445.157 1097.25 447.821Z" fill="#00F0A0"/>
<path d="M1062.98 653.485C1059.31 654.017 1056.71 657.392 1057.24 661.063C1057.77 664.734 1061.15 667.34 1064.82 666.807C1068.49 666.274 1071.09 662.899 1070.56 659.228C1070.03 655.557 1066.65 652.952 1062.98 653.485Z" fill="#00F0A0"/>
<path d="M1284 736.457C1286.07 739.536 1290.28 740.305 1293.36 738.233C1296.43 736.161 1297.2 731.957 1295.13 728.878C1293.06 725.799 1288.86 725.029 1285.78 727.102C1282.7 729.174 1281.93 733.378 1284 736.457Z" fill="#00F0A0"/>
<path d="M1626.11 658.076C1623.39 655.589 1623.21 651.326 1625.7 648.543C1628.19 645.82 1632.45 645.642 1635.23 648.129C1637.96 650.616 1638.13 654.879 1635.65 657.662C1633.16 660.385 1628.9 660.563 1626.11 658.076Z" fill="#00F0A0"/>
<path d="M1723.44 741.49C1726.99 740.365 1728.88 736.575 1727.76 733.023C1726.63 729.47 1722.84 727.575 1719.29 728.7C1715.74 729.825 1713.84 733.615 1714.97 737.167C1716.09 740.72 1719.88 742.615 1723.44 741.49Z" fill="#00F0A0"/>
<path d="M1535.79 304.922C1534.9 301.31 1537.03 297.639 1540.64 296.751C1544.25 295.863 1547.92 297.995 1548.81 301.606C1549.7 305.218 1547.57 308.889 1543.96 309.777C1540.35 310.666 1536.67 308.534 1535.79 304.922Z" fill="#00F0A0"/>
<path d="M1544.61 305.395C1545.91 301.902 1544.19 298.053 1540.7 296.691C1537.21 295.389 1533.36 297.106 1532 300.599C1530.69 304.093 1532.41 307.941 1535.91 309.244C1539.4 310.547 1543.25 308.829 1544.61 305.336L1544.61 305.395Z" fill="#00F0A0"/>
<path d="M1219.81 640.977C1217.74 637.898 1218.51 633.694 1221.59 631.622C1224.66 629.55 1228.87 630.319 1230.94 633.398C1233.01 636.477 1232.24 640.681 1229.16 642.754C1226.09 644.826 1221.88 644.056 1219.81 640.977Z" fill="#00F0A0"/>
<path d="M784.972 409.756C782.781 406.796 783.373 402.532 786.393 400.342C789.413 398.151 793.617 398.743 795.808 401.763C797.998 404.723 797.406 408.986 794.387 411.177C791.426 413.368 787.163 412.776 784.972 409.756Z" fill="#00F0A0"/>
<path d="M817.432 596.143C814.117 597.801 812.755 601.827 814.413 605.143C816.07 608.459 820.097 609.821 823.412 608.163C826.728 606.505 828.09 602.479 826.432 599.163C824.774 595.847 820.748 594.485 817.432 596.143Z" fill="#00F0A0"/>
<path d="M763.505 284.586C762.854 280.915 765.282 277.422 768.893 276.771C772.565 276.119 776.058 278.547 776.709 282.159C777.361 285.83 774.933 289.323 771.321 289.974C767.65 290.626 764.157 288.198 763.505 284.586Z" fill="#00F0A0"/>
<path d="M864.03 283.672C860.478 282.666 856.748 284.679 855.682 288.231C854.675 291.784 856.688 295.514 860.241 296.58C863.794 297.586 867.524 295.573 868.59 292.021C869.596 288.468 867.583 284.738 864.03 283.672Z" fill="#00F0A0"/>
<path d="M1426.13 574.268C1428.68 571.544 1432.94 571.367 1435.66 573.913C1438.39 576.459 1438.56 580.722 1436.02 583.446C1433.47 586.169 1429.21 586.347 1426.49 583.801C1423.76 581.255 1423.58 576.992 1426.13 574.268Z" fill="#00F0A0"/>
<path d="M1441.58 581.314C1442 577.643 1439.33 574.327 1435.6 573.913C1431.93 573.499 1428.62 576.163 1428.2 579.893C1427.79 583.564 1430.45 586.88 1434.18 587.294C1437.85 587.709 1441.17 585.044 1441.58 581.314Z" fill="#00F0A0"/>
<path d="M1441.58 581.314C1442 577.643 1439.33 574.327 1435.6 573.913C1431.93 573.499 1428.62 576.163 1428.2 579.893C1427.79 583.564 1430.45 586.88 1434.18 587.294C1437.85 587.709 1441.17 585.044 1441.58 581.314Z" fill="#00F0A0"/>
<path d="M1545.6 761.7C1547.67 758.622 1551.87 757.852 1554.95 759.983C1558.03 762.056 1558.8 766.26 1556.73 769.339C1554.66 772.417 1550.45 773.187 1547.37 771.115C1544.29 769.042 1543.52 764.839 1545.66 761.76L1545.6 761.7Z" fill="#00F0A0"/>
<path d="M1305.66 777.976C1302.87 775.489 1302.64 771.286 1305.07 768.503C1307.55 765.72 1311.76 765.483 1314.54 767.911C1317.32 770.397 1317.56 774.66 1315.13 777.384C1312.64 780.167 1308.44 780.404 1305.66 777.976Z" fill="#00F0A0"/>
<path d="M344.562 436.335C347.76 434.5 351.904 435.566 353.74 438.822C355.575 442.019 354.51 446.164 351.253 448C348.056 449.835 343.911 448.769 342.076 445.513C340.24 442.316 341.306 438.171 344.503 436.335L344.562 436.335Z" fill="#00F0A0"/>
<path d="M270.708 485.552C270.234 481.881 272.84 478.506 276.511 478.032C280.182 477.559 283.557 480.164 284.03 483.835C284.504 487.506 281.899 490.881 278.228 491.355C274.557 491.828 271.182 489.223 270.708 485.552Z" fill="#00F0A0"/>
<path d="M302.484 680.714C298.813 681.188 296.208 684.622 296.74 688.293C297.214 691.964 300.648 694.569 304.319 694.036C307.99 693.563 310.596 690.128 310.063 686.457C309.589 682.786 306.155 680.181 302.484 680.714Z" fill="#00F0A0"/>
<path d="M1117.88 836.272L899.221 839.884L914.201 836.154L1117.88 836.154" stroke="#00F0A0" stroke-width="0.25" stroke-miterlimit="1"/>
<path d="M1897.15 138.306L1900.82 390.362L1919.53 0.820256L1898.15 125.635" stroke="#00F0A0" stroke-width="0.25" stroke-miterlimit="1"/>
<path d="M1900.82 396.757L1900.82 663.853L1919.53 0.819838L1901.11 383.967" stroke="#00F0A0" stroke-width="0.25" stroke-miterlimit="1"/>
<path d="M1900.93 670.247L1904.55 832.423L1919.53 0.819491L1900.99 657.458" stroke="#00F0A0" stroke-width="0.25" stroke-miterlimit="1"/>
<path d="M1369.23 832.482L1124.28 836.153L1503.16 836.153L1382.02 832.601" stroke="#00F0A0" stroke-width="0.25" stroke-miterlimit="1"/>
<path d="M1569.6 832.423L1732.01 832.423L1503.16 836.153L1556.81 832.778" stroke="#00F0A0" stroke-width="0.25" stroke-miterlimit="1"/>
<path d="M1738.4 832.423L1904.55 832.423L1503.16 836.153L1725.61 832.482" stroke="#00F0A0" stroke-width="0.25" stroke-miterlimit="1"/>
<path d="M1117.88 836.272L899.221 839.884L1503.16 836.154L1130.67 836.154" stroke="#00F0A0" stroke-width="0.25" stroke-miterlimit="1"/>
<path d="M286.102 415.466L347.74 442.821L276.51 349.151L279.885 406.466" stroke="#00F0A0" stroke-width="0.25" stroke-miterlimit="1"/>
<path d="M468.765 190.113L347.74 442.821L366.51 210.541L465.331 185.909" stroke="#00F0A0" stroke-width="0.25" stroke-miterlimit="1"/>
<path d="M280.359 354.243L347.74 442.821L366.509 210.541L279.944 343.822" stroke="#00F0A0" stroke-width="0.25" stroke-miterlimit="1"/>
<path d="M1063.47 718.207L1124.28 836.153L940.49 779.963L1054.94 715.661" stroke="#00F0A0" stroke-width="0.25" stroke-miterlimit="1"/>
<path d="M1117.88 836.153L914.201 836.153L940.49 779.963L1118.18 834.259" stroke="#00F0A0" stroke-width="0.25" stroke-miterlimit="1"/>
<path d="M907.984 837.693L899.221 839.884L940.49 779.963L916.925 830.351" stroke="#00F0A0" stroke-width="0.25" stroke-miterlimit="1"/>
<path d="M11.9013 550.939L107.703 607.662L96.4531 682.562L9.94749 553.011" stroke="#00F0A0" stroke-width="0.25" stroke-miterlimit="1"/>
<path d="M6.75015 554.077L21.4343 839.884L96.4531 682.563L9.94754 553.012" stroke="#00F0A0" stroke-width="0.25" stroke-miterlimit="1"/>
<path d="M112.736 611.511L205.222 682.562L96.4529 682.562L106.756 613.938" stroke="#00F0A0" stroke-width="0.25" stroke-miterlimit="1"/>
<path d="M1897.15 138.306L1900.82 390.362L1810.76 375.382L1894.9 137.95" stroke="#00F0A0" stroke-width="0.25" stroke-miterlimit="1"/>
<path d="M10.125 119.595L6.39475 547.683L10.125 139.371L10.125 119.595Z" stroke="#00F0A0" stroke-width="0.25" stroke-miterlimit="1"/>
<path d="M198.827 682.563L96.4527 682.563L70.1635 824.903L200.84 687.181" stroke="#00F0A0" stroke-width="0.25" stroke-miterlimit="1"/>
<path d="M93.6703 688.306L21.4343 839.884L70.1639 824.904L95.2691 688.839" stroke="#00F0A0" stroke-width="0.25" stroke-miterlimit="1"/>
<path d="M210.313 686.471L253.951 720.043L70.1635 824.903L200.84 687.181" stroke="#00F0A0" stroke-width="0.25" stroke-miterlimit="1"/>
<path d="M256.971 725.668L317.78 839.884L70.1638 824.904L248.445 723.181" stroke="#00F0A0" stroke-width="0.25" stroke-miterlimit="1"/>
<path d="M27.7697 839.884L317.78 839.884L70.1638 824.904L27.5328 837.989" stroke="#00F0A0" stroke-width="0.25" stroke-miterlimit="1"/>
<path d="M1283.26 733.247L1255.61 742.483L1285.57 750.003L1288.11 737.51" stroke="#00F0A0" stroke-width="0.25" stroke-miterlimit="1"/>
<path d="M1291.96 737.095L1308.07 772.443L1285.57 750.003L1288.11 737.509" stroke="#00F0A0" stroke-width="0.25" stroke-miterlimit="1"/>
<path d="M1261.11 745.68L1308.07 772.443L1285.57 750.003L1261.76 744.023" stroke="#00F0A0" stroke-width="0.25" stroke-miterlimit="1"/>
<path d="M619.513 591.321L666.645 764.983L820.413 600.143L624.25 585.637" stroke="#00F0A0" stroke-width="0.25" stroke-miterlimit="1"/>
<path d="M619.513 591.321L666.645 764.983L629.105 757.464L618.27 591.558" stroke="#00F0A0" stroke-width="0.25" stroke-miterlimit="1"/>
<path d="M816.09 604.82L666.645 764.983L745.394 839.884L818.518 606.241" stroke="#00F0A0" stroke-width="0.25" stroke-miterlimit="1"/>
<path d="M823.965 605.472L940.49 779.963L745.393 839.884L818.518 606.241" stroke="#00F0A0" stroke-width="0.25" stroke-miterlimit="1"/>
<path d="M936.819 785.233L899.221 839.884L745.394 839.884L934.333 781.858" stroke="#00F0A0" stroke-width="0.25" stroke-miterlimit="1"/>
<path d="M10.1252 145.766L6.39488 547.683L133.933 367.921L13.204 144.996" stroke="#00F0A0" stroke-width="0.25" stroke-miterlimit="1"/>
<path d="M1066.84 713.47L1255.61 742.483L1161.82 813.653L1065.01 717.023" stroke="#00F0A0" stroke-width="0.25" stroke-miterlimit="1"/>
<path d="M1063.47 718.207L1124.28 836.153L1161.82 813.654L1065.01 717.023" stroke="#00F0A0" stroke-width="0.25" stroke-miterlimit="1"/>
<path d="M1261.11 745.68L1308.07 772.443L1161.82 813.653L1250.51 746.332" stroke="#00F0A0" stroke-width="0.25" stroke-miterlimit="1"/>
<path d="M1312.86 776.706L1375.62 832.423L1161.82 813.653L1301.97 774.219" stroke="#00F0A0" stroke-width="0.25" stroke-miterlimit="1"/>
<path d="M1369.23 832.482L1124.28 836.153L1161.82 813.654L1369.23 831.831" stroke="#00F0A0" stroke-width="0.25" stroke-miterlimit="1"/>
<path d="M13.204 144.996L133.933 367.921L171.472 259.271L15.2764 143.219" stroke="#00F0A0" stroke-width="0.25" stroke-miterlimit="1"/>
<path d="M363.016 215.929L276.51 349.151L171.472 259.271L360.292 212.14" stroke="#00F0A0" stroke-width="0.25" stroke-miterlimit="1"/>
<path d="M465.449 156.897L471.548 184.37L422.818 173.12L458.463 153.699" stroke="#00F0A0" stroke-width="0.25" stroke-miterlimit="1"/>
<path d="M465.331 185.91L366.51 210.541L422.818 173.12L465.331 182.89" stroke="#00F0A0" stroke-width="0.25" stroke-miterlimit="1"/>
<path d="M1817.09 376.447L1900.82 390.362L1852.03 566.452L1812.12 381.658" stroke="#00F0A0" stroke-width="0.25" stroke-miterlimit="1"/>
<path d="M1900.82 396.757L1900.82 663.853L1852.03 566.452L1899.1 396.52" stroke="#00F0A0" stroke-width="0.25" stroke-miterlimit="1"/>
<path d="M130.262 373.132L6.39459 547.683L212.741 502.742L137.189 373.428" stroke="#00F0A0" stroke-width="0.25" stroke-miterlimit="1"/>
<path d="M112.736 611.511L205.222 682.562L212.741 502.742L112.203 603.103" stroke="#00F0A0" stroke-width="0.25" stroke-miterlimit="1"/>
<path d="M1812.12 381.658L1852.03 566.452L1630.7 652.603L1807.26 380.77" stroke="#00F0A0" stroke-width="0.25" stroke-miterlimit="1"/>
<path d="M212.445 509.137L205.222 682.563L302.74 686.293L215.524 508.486" stroke="#00F0A0" stroke-width="0.25" stroke-miterlimit="1"/>
<path d="M210.314 686.471L253.951 720.043L302.74 686.293L211.616 682.8" stroke="#00F0A0" stroke-width="0.25" stroke-miterlimit="1"/>
<path d="M256.971 725.668L317.78 839.884L302.74 686.293L259.221 716.372" stroke="#00F0A0" stroke-width="0.25" stroke-miterlimit="1"/>
<path d="M367.753 829.937L317.78 839.884L302.74 686.293L371.187 822.95" stroke="#00F0A0" stroke-width="0.25" stroke-miterlimit="1"/>
<path d="M1618.27 95.2591L1897.03 131.91L1660.72 251.751L1613.83 100.529" stroke="#00F0A0" stroke-width="0.25" stroke-miterlimit="1"/>
<path d="M1613.83 100.529L1660.72 251.751L1544.43 165.601L1607.55 99.1078" stroke="#00F0A0" stroke-width="0.25" stroke-miterlimit="1"/>
<path d="M1654.98 254.652L1638.22 263.001L1544.43 165.601L1655.57 247.962" stroke="#00F0A0" stroke-width="0.25" stroke-miterlimit="1"/>
<path d="M896.675 553.959L940.491 779.963L1064.24 660.063L900.761 551.235" stroke="#00F0A0" stroke-width="0.25" stroke-miterlimit="1"/>
<path d="M1054.94 715.661L940.491 779.963L1064.24 660.063L1060.98 706.128" stroke="#00F0A0" stroke-width="0.25" stroke-miterlimit="1"/>
<path d="M286.102 415.467L347.74 442.822L276.51 484.032L279.885 419.257" stroke="#00F0A0" stroke-width="0.25" stroke-miterlimit="1"/>
<path d="M276.392 417.954L212.741 502.742L276.51 484.032L279.885 419.256" stroke="#00F0A0" stroke-width="0.25" stroke-miterlimit="1"/>
<path d="M215.524 508.486L302.74 686.293L276.51 484.032L218.84 500.966" stroke="#00F0A0" stroke-width="0.25" stroke-miterlimit="1"/>
<path d="M1891.34 134.812L1660.72 251.752L1754.51 322.922L1893.24 137.003" stroke="#00F0A0" stroke-width="0.25" stroke-miterlimit="1"/>
<path d="M1894.9 137.95L1810.76 375.382L1754.51 322.922L1893.24 137.003" stroke="#00F0A0" stroke-width="0.25" stroke-miterlimit="1"/>
<path d="M1654.98 254.653L1638.22 263.001L1754.51 322.922L1665.81 255.659" stroke="#00F0A0" stroke-width="0.25" stroke-miterlimit="1"/>
<path d="M1807.26 380.77L1630.7 652.603L1754.51 322.922L1806.08 371.059" stroke="#00F0A0" stroke-width="0.25" stroke-miterlimit="1"/>
<path d="M367.753 829.936L317.78 839.883L392.799 843.613L379.003 832.659" stroke="#00F0A0" stroke-width="0.25" stroke-miterlimit="1"/>
<path d="M586.711 839.883L745.394 839.883L392.799 843.613L573.981 840.001" stroke="#00F0A0" stroke-width="0.25" stroke-miterlimit="1"/>
<path d="M892.826 839.883L745.393 839.883L392.798 843.613L892.826 839.942" stroke="#00F0A0" stroke-width="0.25" stroke-miterlimit="1"/>
<path d="M27.7697 839.883L317.78 839.883L392.799 843.613L27.7697 839.942" stroke="#00F0A0" stroke-width="0.25" stroke-miterlimit="1"/>
<path d="M1846.05 568.761L1630.7 652.602L1720.76 735.022L1848.12 571.485" stroke="#00F0A0" stroke-width="0.25" stroke-miterlimit="1"/>
<path d="M1854.87 572.136L1900.82 663.852L1720.76 735.022L1848.12 571.485" stroke="#00F0A0" stroke-width="0.25" stroke-miterlimit="1"/>
<path d="M1900.94 670.247L1904.55 832.423L1720.76 735.023L1894.84 666.161" stroke="#00F0A0" stroke-width="0.25" stroke-miterlimit="1"/>
<path d="M1738.4 832.423L1904.55 832.423L1720.76 735.023L1731.24 826.028" stroke="#00F0A0" stroke-width="0.25" stroke-miterlimit="1"/>
<path d="M176.327 263.416L276.51 349.152L178.932 371.651L171.886 265.666" stroke="#00F0A0" stroke-width="0.25" stroke-miterlimit="1"/>
<path d="M169.34 265.31L133.933 367.921L178.933 371.651L171.887 265.666" stroke="#00F0A0" stroke-width="0.25" stroke-miterlimit="1"/>
<path d="M276.866 355.546L280.241 412.861L178.933 371.651L270.234 350.632" stroke="#00F0A0" stroke-width="0.25" stroke-miterlimit="1"/>
<path d="M137.189 373.428L212.741 502.742L178.932 371.651L140.327 368.454" stroke="#00F0A0" stroke-width="0.25" stroke-miterlimit="1"/>
<path d="M276.392 417.954L212.741 502.742L178.933 371.651L274.32 410.434" stroke="#00F0A0" stroke-width="0.25" stroke-miterlimit="1"/>
<path d="M635.382 758.707L666.645 764.983L629.105 828.634L629.105 763.858" stroke="#00F0A0" stroke-width="0.25" stroke-miterlimit="1"/>
<path d="M625.849 762.97L580.317 839.884L629.105 828.634L629.105 763.858" stroke="#00F0A0" stroke-width="0.25" stroke-miterlimit="1"/>
<path d="M671.263 769.365L745.394 839.884L629.105 828.634L663.388 770.49" stroke="#00F0A0" stroke-width="0.25" stroke-miterlimit="1"/>
<path d="M738.999 839.884L580.316 839.884L629.105 828.634L739.058 839.292" stroke="#00F0A0" stroke-width="0.25" stroke-miterlimit="1"/>
<path d="M900.761 551.236L1064.24 660.063L1101.78 442.822L901.175 544.782" stroke="#00F0A0" stroke-width="0.25" stroke-miterlimit="1"/>
<path d="M968.378 340.211L895.431 547.683L790.393 405.342L964.529 336.54" stroke="#00F0A0" stroke-width="0.25" stroke-miterlimit="1"/>
<path d="M624.25 585.636L820.413 600.143L790.393 405.342L622.296 580.544" stroke="#00F0A0" stroke-width="0.25" stroke-miterlimit="1"/>
<path d="M1548.87 170.219L1638.22 263.001L1540.7 296.751L1544.25 171.996" stroke="#00F0A0" stroke-width="0.25" stroke-miterlimit="1"/>
<path d="M1643.9 265.962L1754.51 322.922L1540.7 296.751L1632.18 265.074" stroke="#00F0A0" stroke-width="0.25" stroke-miterlimit="1"/>
<path d="M1752.26 328.961L1630.7 652.603L1540.7 296.751L1748.17 322.152" stroke="#00F0A0" stroke-width="0.25" stroke-miterlimit="1"/>
<path d="M968.378 340.211L895.431 547.683L1011.72 352.882L976.312 336.836" stroke="#00F0A0" stroke-width="0.25" stroke-miterlimit="1"/>
<path d="M1182.19 407.887L1101.78 442.821L1011.72 352.881L1181.95 403.565" stroke="#00F0A0" stroke-width="0.25" stroke-miterlimit="1"/>
<path d="M1096.09 445.723L895.432 547.683L1011.72 352.882L1097.28 438.322" stroke="#00F0A0" stroke-width="0.25" stroke-miterlimit="1"/>
<path d="M1556.81 832.778L1503.16 836.153L1551.95 764.983L1562.14 826.088" stroke="#00F0A0" stroke-width="0.25" stroke-miterlimit="1"/>
<path d="M1100.71 449.098L1064.24 660.063L1225.59 637.623L1105.21 448.21" stroke="#00F0A0" stroke-width="0.25" stroke-miterlimit="1"/>
<path d="M1063.82 666.458L1060.51 712.523L1225.59 637.623L1070.57 659.175" stroke="#00F0A0" stroke-width="0.25" stroke-miterlimit="1"/>
<path d="M1066.84 713.471L1255.61 742.483L1225.59 637.623L1066.31 709.859" stroke="#00F0A0" stroke-width="0.25" stroke-miterlimit="1"/>
<path d="M1283.26 733.247L1255.61 742.483L1225.59 637.623L1285.74 725.964" stroke="#00F0A0" stroke-width="0.25" stroke-miterlimit="1"/>
<path d="M1635.44 656.925L1720.76 735.023L1570.66 783.693L1628.04 658.405" stroke="#00F0A0" stroke-width="0.25" stroke-miterlimit="1"/>
<path d="M1627.03 657.813L1551.95 764.983L1570.66 783.693L1628.04 658.405" stroke="#00F0A0" stroke-width="0.25" stroke-miterlimit="1"/>
<path d="M1721.47 741.358L1732.01 832.423L1570.66 783.693L1714.66 736.976" stroke="#00F0A0" stroke-width="0.25" stroke-miterlimit="1"/>
<path d="M1552.96 771.259L1563.2 832.423L1570.66 783.693L1556.45 769.483" stroke="#00F0A0" stroke-width="0.25" stroke-miterlimit="1"/>
<path d="M1569.6 832.423L1732.01 832.423L1570.66 783.693L1564.15 826.087" stroke="#00F0A0" stroke-width="0.25" stroke-miterlimit="1"/>
<path d="M1542.24 302.909L1630.7 652.603L1435.66 573.913L1538.39 302.672" stroke="#00F0A0" stroke-width="0.25" stroke-miterlimit="1"/>
<path d="M1229.14 642.892L1289.35 731.233L1435.66 573.913L1231.68 635.728" stroke="#00F0A0" stroke-width="0.25" stroke-miterlimit="1"/>
<path d="M1627.03 657.813L1551.95 764.983L1435.66 573.913L1624.78 650.175" stroke="#00F0A0" stroke-width="0.25" stroke-miterlimit="1"/>
<path d="M794.183 410.493L895.432 547.682L842.912 588.893L792.17 411.5" stroke="#00F0A0" stroke-width="0.25" stroke-miterlimit="1"/>
<path d="M791.4 411.677L820.412 600.143L842.912 588.893L792.169 411.5" stroke="#00F0A0" stroke-width="0.25" stroke-miterlimit="1"/>
<path d="M896.675 553.959L940.49 779.963L842.912 588.892L890.399 551.649" stroke="#00F0A0" stroke-width="0.25" stroke-miterlimit="1"/>
<path d="M823.965 605.471L940.49 779.963L842.912 588.892L826.156 597.3" stroke="#00F0A0" stroke-width="0.25" stroke-miterlimit="1"/>
<path d="M769.077 288.047L790.393 405.342L861.682 289.231L774.288 282.244" stroke="#00F0A0" stroke-width="0.25" stroke-miterlimit="1"/>
<path d="M964.53 336.54L790.393 405.342L861.682 289.231L964.589 331.744" stroke="#00F0A0" stroke-width="0.25" stroke-miterlimit="1"/>
<path d="M867.603 291.659L970.451 334.172L977.97 322.922L867.84 291.008" stroke="#00F0A0" stroke-width="0.25" stroke-miterlimit="1"/>
<path d="M976.312 336.836L1011.72 352.882L977.97 322.922L974.003 328.843" stroke="#00F0A0" stroke-width="0.25" stroke-miterlimit="1"/>
<path d="M1431.28 578.59L1289.35 731.233L1413.1 783.693L1434.95 580.307" stroke="#00F0A0" stroke-width="0.25" stroke-miterlimit="1"/>
<path d="M1438.98 579.36L1551.95 764.983L1413.1 783.693L1434.95 580.307" stroke="#00F0A0" stroke-width="0.25" stroke-miterlimit="1"/>
<path d="M1291.96 737.095L1308.07 772.443L1413.1 783.693L1295.22 733.72" stroke="#00F0A0" stroke-width="0.25" stroke-miterlimit="1"/>
<path d="M1548.34 770.253L1503.16 836.153L1413.1 783.693L1545.62 765.812" stroke="#00F0A0" stroke-width="0.25" stroke-miterlimit="1"/>
<path d="M1312.86 776.706L1375.62 832.423L1413.1 783.693L1314.46 773.154" stroke="#00F0A0" stroke-width="0.25" stroke-miterlimit="1"/>
<path d="M1382.02 832.601L1503.16 836.153L1413.1 783.693L1379.53 827.331" stroke="#00F0A0" stroke-width="0.25" stroke-miterlimit="1"/>
<path d="M342.234 446.019L276.511 484.032L467.818 663.853L350.819 448.447" stroke="#00F0A0" stroke-width="0.25" stroke-miterlimit="1"/>
<path d="M353.424 445.782L617.855 585.163L467.818 663.853L350.819 448.447" stroke="#00F0A0" stroke-width="0.25" stroke-miterlimit="1"/>
<path d="M277.34 490.367L302.74 686.293L467.818 663.852L281.129 488.413" stroke="#00F0A0" stroke-width="0.25" stroke-miterlimit="1"/>
<path d="M618.27 591.557L629.105 757.463L467.818 663.852L612.171 588.122" stroke="#00F0A0" stroke-width="0.25" stroke-miterlimit="1"/>
<path d="M305.642 692.036L374.029 828.634L467.818 663.853L309.076 685.464" stroke="#00F0A0" stroke-width="0.25" stroke-miterlimit="1"/>
<path d="M625.849 762.97L580.316 839.884L467.817 663.853L623.599 754.266" stroke="#00F0A0" stroke-width="0.25" stroke-miterlimit="1"/>
<path d="M379.003 832.659L392.799 843.613L467.818 663.852L377.167 823.127" stroke="#00F0A0" stroke-width="0.25" stroke-miterlimit="1"/>
<path d="M573.981 840.001L392.799 843.613L467.818 663.852L576.882 834.495" stroke="#00F0A0" stroke-width="0.25" stroke-miterlimit="1"/>
<path d="M573.08 842.87C575.093 846.008 579.238 846.897 582.376 844.943C585.514 842.93 586.402 838.785 584.448 835.647C582.435 832.509 578.29 831.62 575.152 833.574C572.014 835.587 571.126 839.732 573.08 842.87Z" fill="#00F0A0"/>
</g>
<defs>
<clipPath id="clip0_167_1571">
<rect width="1920" height="846.051" fill="white" transform="translate(1920 846.752) rotate(-180)"/>
</clipPath>
</defs>
</svg>
