<svg width="149" height="74" viewBox="0 0 149 74" fill="none" xmlns="http://www.w3.org/2000/svg">
<g clip-path="url(#clip0_129_6875)">
<path d="M81.0646 73.4447L147.594 65.4021L149 38.5801L72.8403 48.5812L81.0646 73.4447Z" fill="#92D7AE"/>
<path d="M87.5742 53.6115L90.6602 53.0498L91.9075 63.1602C91.9174 63.2398 91.9572 63.3094 92.0218 63.3591C92.0714 63.3988 92.1361 63.4187 92.1957 63.4187C92.2106 63.4187 92.2255 63.4187 92.2404 63.4187L96.8519 62.7029L97.17 65.3026L89.234 66.5403L87.5742 53.6214V53.6115Z" fill="white"/>
<path d="M97.7611 57.4385L100.37 57.0706L101.13 64.6808L98.5761 65.0934L97.7562 57.4385H97.7611ZM98.7003 56.2306C97.9947 56.2306 97.2195 55.7385 97.1052 54.794C96.981 53.7601 97.7413 52.9946 98.5165 52.8704C98.596 52.8604 98.6705 52.8555 98.75 52.8555C99.4557 52.8555 100.231 53.3476 100.345 54.292C100.469 55.3259 99.7141 56.0914 98.9339 56.2157C98.8544 56.2256 98.7749 56.2306 98.7003 56.2356V56.2306Z" fill="white"/>
<path d="M101.334 51.7022L104.132 51.3145L104.525 55.2513C104.435 55.1866 104.485 55.2662 104.56 55.3109C104.599 55.3358 104.644 55.3457 104.689 55.3507C104.729 55.3507 104.768 55.3457 104.808 55.3258C104.992 55.2463 105.196 55.1966 105.474 55.1618C105.712 55.132 105.951 55.122 106.189 55.127C108.028 55.1817 109.996 56.4293 110.239 59.0887C110.473 61.6585 109.151 63.4231 107.014 63.6915C106.865 63.7114 106.716 63.7164 106.572 63.7114C106.259 63.7015 105.966 63.6418 105.683 63.5176C105.648 63.5027 105.618 63.4977 105.583 63.4927C105.524 63.4927 105.459 63.5126 105.409 63.5474C105.33 63.6021 105.29 63.7015 105.3 63.7959L105.37 64.5366L103.004 64.9988L101.334 51.7022ZM105.628 57.8957C105.429 57.8857 105.225 57.8957 105.022 57.9205C104.848 57.9404 104.724 58.0895 104.738 58.2635L105.047 61.584C105.056 61.7331 105.171 61.8524 105.32 61.8723C105.484 61.8971 105.658 61.922 105.837 61.9269C105.956 61.9269 106.08 61.9269 106.199 61.917C107.323 61.7927 107.909 60.9974 107.809 59.7349C107.715 58.4623 106.91 57.9504 105.633 57.8957H105.628Z" fill="white"/>
<path d="M110.632 53.7553L113.072 53.457L113.276 54.8041C113.29 54.9035 113.365 54.988 113.469 55.0178C113.494 55.0228 113.519 55.0278 113.539 55.0278C113.618 55.0278 113.703 54.998 113.753 54.9383C114.478 54.138 115.174 53.7205 115.939 53.626C116.038 53.6111 116.128 53.6012 116.212 53.6062C116.277 53.6062 116.302 53.6161 116.302 53.6161L116.565 55.9623C115.586 56.0915 114.329 56.4941 113.758 57.6275C113.733 57.6722 113.728 57.7269 113.733 57.7766L114.553 63.0903L112.053 63.4482L110.632 53.7553Z" fill="white"/>
<path d="M124.948 51.7868L127.388 51.4736L127.602 52.8207C127.617 52.9201 127.696 53.0046 127.796 53.0344C127.821 53.0344 127.845 53.0394 127.865 53.0394C127.945 53.0394 128.024 53.0096 128.079 52.9499C128.8 52.1447 129.49 51.7222 130.256 51.6228C130.355 51.6078 130.444 51.5979 130.529 51.5979C130.593 51.5979 130.618 51.6078 130.618 51.6078L130.897 53.954C129.918 54.0932 128.66 54.4958 128.099 55.6391C128.074 55.6838 128.069 55.7335 128.074 55.7882L128.924 61.0969L126.424 61.4697L124.943 51.7868H124.948Z" fill="white"/>
<path d="M122.901 61.7929C122.867 61.6139 122.847 61.435 122.827 61.256L122.787 60.9528C122.772 60.8584 122.712 60.7739 122.623 60.7391C122.583 60.7192 122.539 60.7142 122.494 60.7192C122.444 60.7192 122.394 60.7391 122.355 60.7639C121.788 61.1566 121.152 61.435 120.466 61.5891C120.218 61.6438 119.979 61.6786 119.746 61.6935C118.727 61.7581 117.44 61.4598 117.097 59.6604C116.58 56.9067 120.094 55.9771 120.804 55.823C121.068 55.7634 121.351 55.7236 121.689 55.7037L121.778 55.6988C121.858 55.6988 121.927 55.654 121.977 55.5944C122.027 55.5298 122.047 55.4502 122.032 55.3757C122.017 55.2961 122.007 55.2216 121.997 55.1421C121.987 55.0526 121.972 54.9631 121.957 54.8736C121.813 54.1231 121.217 53.6061 120.531 53.6508C120.466 53.6508 120.402 53.6608 120.337 53.6807C119.542 53.8596 119.363 54.4561 119.269 54.7792C119.254 54.8339 119.234 54.9035 119.219 54.9432L117.042 55.7882C117.211 53.8845 118.27 52.5374 119.89 52.1795C120.198 52.1099 120.496 52.0652 120.774 52.0453C122.499 51.9359 123.547 52.8058 123.89 54.64C124.168 56.1263 124.357 57.6572 124.536 59.1385C124.601 59.6754 124.665 60.2172 124.74 60.749C124.75 60.8335 124.765 60.928 124.78 61.0224C124.8 61.1367 124.819 61.2511 124.824 61.3555C124.824 61.3555 124.824 61.3555 124.824 61.3604L122.896 61.8128L122.901 61.7929ZM122.027 57.2049C121.853 57.2248 121.664 57.2496 121.49 57.2844C120.273 57.5529 119.636 58.2239 119.795 59.0689C119.915 59.7002 120.392 60.0382 121.107 59.9935C121.251 59.9835 121.391 59.9637 121.525 59.9338C121.798 59.8742 122.086 59.7797 122.424 59.6306C122.539 59.5809 122.603 59.4666 122.588 59.3423L122.33 57.4435C122.31 57.2993 122.181 57.195 122.042 57.2049H122.027Z" fill="white"/>
<path d="M136.08 63.3738C135.826 63.3738 135.622 63.3539 135.493 63.3141L135.21 60.8337C135.27 60.8586 135.359 60.8586 135.449 60.8636H135.528C135.677 60.8636 135.831 60.8586 135.975 60.8337C137.387 60.615 138.082 59.8396 137.938 58.6466C137.908 58.3981 137.874 58.1545 137.839 57.9159C137.804 57.6674 137.769 57.4139 137.739 57.1604C137.724 57.046 137.64 56.9516 137.531 56.9267C137.511 56.9267 137.486 56.9168 137.466 56.9218C137.377 56.9218 137.287 56.9665 137.237 57.046C136.686 57.8762 136.214 58.2142 135.434 58.3384C135.265 58.3633 135.106 58.3782 134.952 58.3782C132.869 58.3782 132.149 56.0171 131.905 54.0338C131.761 52.8408 131.736 53.0098 131.652 51.8119C131.617 51.3297 131.577 50.8177 131.533 50.2511L133.948 50.0373L134.112 51.5435C134.231 52.632 134.291 52.9999 134.42 54.0835C134.589 55.4803 135.051 55.7338 135.747 55.7338C135.796 55.7338 135.846 55.7338 135.896 55.7238C136.676 55.5996 137.208 55.0528 137.347 54.2276C137.347 54.1978 137.352 54.173 137.347 54.1431L136.591 49.1327L139.131 48.7549C139.449 51.3496 139.712 52.7812 139.966 55.3808L140.025 55.9873C140.145 57.1753 140.284 58.5223 140.234 59.601C140.14 61.8279 138.823 63.001 136.81 63.3141C136.646 63.339 136.368 63.3688 136.07 63.3688L136.08 63.3738Z" fill="white"/>
<path d="M12.5426 58.7509L133.511 43.2025L141.303 0.444336H0L12.5426 58.7509Z" fill="#70BE90"/>
<path d="M40.997 16.3607C39.218 16.3359 38.3136 17.5338 38.3086 18.8461C38.3484 20.5163 39.8193 21.0084 40.4007 21.0531C40.9871 21.1028 42.8059 20.9537 43.1786 19.0797C43.5463 17.1958 41.8965 16.4303 40.997 16.3657V16.3607ZM41.9561 23.5086C41.3349 23.106 40.515 23.0314 39.9734 22.9718C37.6179 23.0016 38.1297 24.1051 38.2192 24.3189C38.3086 24.5276 38.254 26.5308 38.254 26.5308C38.254 26.5308 38.1397 31.7352 38.1446 32.2322C38.1446 32.7293 37.9757 34.8319 38.1844 35.4284C38.3881 36.0299 38.5869 36.1243 39.5559 36.2635C40.52 36.4126 41.6083 36.4126 41.7524 35.8857C41.9064 35.3539 41.6729 35.0606 41.6232 34.6182C41.4443 33.3755 41.7027 29.2349 41.7524 28.1712C41.807 27.1025 42.0754 25.1191 42.1251 24.8259C42.1748 24.5276 42.6916 23.9808 41.9611 23.5037L41.9561 23.5086Z" fill="white"/>
<path d="M54.6525 32.9127C54.568 31.2326 54.5481 26.8683 54.5481 26.8683C54.5481 26.8683 54.6227 25.044 54.6326 24.8204C54.6525 24.5967 55.2736 23.8262 54.4736 23.3441C53.6685 22.8569 52.5803 23.1701 52.3219 23.2049C52.0635 23.2347 51.815 22.9116 51.815 22.9116C51.815 22.9116 51.6858 22.7078 50.8559 22.2107C49.0322 21.2862 47.8892 21.5944 46.9997 21.9622C44.5697 23.1949 43.5659 27.1367 43.5659 27.1367C43.5659 27.1367 42.6565 30.9045 43.2429 32.684C43.8343 34.4636 45.2704 35.3881 46.8059 35.9001C48.3365 36.4171 49.7726 35.8156 50.1155 35.6217C50.4633 35.4279 51.3727 34.8364 51.3727 34.8364C51.3727 34.8364 51.492 36.1884 51.4323 36.8247C51.3727 37.451 51.8945 40.6968 50.2844 41.522C48.6793 42.3422 47.1836 40.493 47.0544 40.3539C46.9301 40.2147 46.7214 39.9661 46.8606 39.5635C46.9997 39.1609 46.9451 38.8477 46.7711 38.6539C46.5922 38.465 46.0953 38.1121 44.5498 38.6588C43.0143 39.2106 43.1038 39.7723 43.1485 40.1849C43.1883 40.6024 43.6007 41.5816 44.0579 42.0141C46.0605 44.2956 47.5612 44.6237 49.7428 44.5591C50.6869 44.5243 53.0126 43.3114 53.9766 41.7655C54.3941 41.0945 54.5928 40.2793 54.6674 39.4641C54.9109 36.7551 54.7419 34.5928 54.6574 32.9226L54.6525 32.9127ZM51.159 30.4025C51.1392 31.6551 49.544 33.4346 47.8843 33.3253C46.786 33.2557 46.468 31.5805 46.622 29.6718C46.7811 27.763 47.7054 24.6663 49.4247 24.9198C49.4247 24.9198 50.4981 24.9943 50.9354 26.401C51.0447 26.6744 51.2584 30.1689 51.1541 30.4025H51.159Z" fill="white"/>
<path d="M56.4961 13.0753C56.4961 13.0753 56.511 12.3993 56.3818 12.2502C56.2526 12.1061 55.7805 11.6338 56.3918 11.1268C57.008 10.6248 58.6528 10.5303 59.3982 10.7888C60.1486 11.0523 60.3921 11.5145 60.2976 12.116C60.2082 12.7125 60.1833 13.5277 60.1038 14.1788C60.0194 14.83 59.8355 17.882 59.8355 17.882L59.6119 24.0507L59.6616 25.1691C59.6616 25.1691 61.863 22.8925 64.3874 23.2007C65.7937 23.4691 67.1603 24.4533 67.1603 24.4533C67.1603 24.4533 68.502 25.1293 68.7902 27.9975C69.0039 30.1498 68.9045 32.3816 68.9045 32.3816C68.9045 32.3816 68.9343 34.5489 68.8399 35.1006C68.7455 35.6573 68.1591 35.7468 68.1591 35.7468C68.1591 35.7468 67.3342 36.0252 65.9875 35.876C64.6458 35.7319 64.9489 34.6582 65.1378 33.9971C65.2371 33.5 65.2371 29.9609 65.1974 29.2451C65.1576 28.5293 64.8843 26.0688 63.5376 26.0837C62.1959 26.0937 61.3064 27.5153 60.9039 28.3106C60.5014 29.1059 60.2479 29.5086 60.1237 30.0951C59.9647 30.8705 59.9647 31.8597 59.9299 32.322C59.8951 32.7743 59.8554 34.7626 60.079 35.9854C60.2976 36.4676 60.4119 36.2041 60.4417 36.6564C60.4716 37.1038 60.0243 37.3474 58.2602 37.3474C56.4961 37.3474 56.6203 35.9606 56.5955 35.6375C56.5607 35.3193 56.5408 33.0328 56.5408 33.0328L56.4315 26.5162L56.352 20.8595L56.4961 15.8739V13.0803V13.0753Z" fill="white"/>
<path d="M72.2441 10.8632C73.3225 10.9428 74.3412 11.4498 74.3859 12.1954C74.3859 12.7521 74.1971 12.8068 74.1623 13.0553C74.1176 13.284 74.0281 14.8846 73.9685 15.5158C73.9089 16.1521 73.8393 21.3465 73.8393 21.3465L73.8542 27.5649L73.9585 32.1578L74.1523 37.0291C74.1523 37.0291 74.2617 37.6007 74.5847 38.0431C74.9176 38.4806 74.9276 38.7887 74.6344 38.9925C74.3412 39.1914 73.6703 39.4747 72.433 39.3504C70.6937 39.1665 70.5297 38.3265 70.5496 37.9586C70.5645 37.5858 70.6142 35.861 70.6142 35.861L70.5595 30.7262C70.5595 30.7262 70.4552 24.5278 70.4154 23.6778C70.3757 22.8278 70.4353 17.5886 70.4353 17.5886C70.4353 17.5886 70.3955 13.2591 70.3906 12.8963C70.3906 12.5384 70.0527 12.3495 70.1222 11.6983C70.1968 11.0521 71.1509 10.7837 72.2342 10.8732L72.2441 10.8632Z" fill="white"/>
<path d="M77.069 19.9045C78.033 20.0089 79.2604 19.8648 79.6232 18.1201C80.0456 16.0423 78.4405 15.5253 77.4168 15.5303C75.3943 15.5403 75.1061 17.1508 75.1906 18.2543C75.275 19.3528 76.1099 19.8002 77.069 19.9095V19.9045ZM79.6381 34.091C79.489 33.8076 79.3896 33.4597 79.325 32.7489C79.2654 32.0331 79.166 29.0954 79.1958 28.2901C79.2256 27.4849 79.3548 25.4568 79.3996 24.8256C79.4493 24.1893 79.9114 23.2896 79.4592 22.7776C79.012 22.2706 77.541 21.9624 76.741 21.9922C75.9409 22.0221 75.3496 22.1364 75.3048 22.6534C75.2601 23.1653 75.4688 23.6525 75.4688 23.6525C75.4688 23.6525 75.603 24.5472 75.5831 25.2978C75.5633 26.0484 75.6179 30.0398 75.6179 30.0398C75.6179 30.0398 75.6179 33.6834 75.6527 34.091C75.6875 34.4986 75.285 35.1547 77.5858 35.279C79.8866 35.4082 79.7772 34.3793 79.6282 34.091H79.6381Z" fill="white"/>
<path d="M109.211 23.2496C109.211 23.2496 109.479 23.2347 109.519 22.8917C109.574 22.4046 110.229 16.6684 110.229 16.6684C110.229 16.6684 110.16 15.1672 111.139 14.9386C112.113 14.7099 112.794 14.7099 113.554 15.033C114.309 15.3561 114.558 16.1862 114.195 16.728C113.832 17.2698 113.629 18.7163 113.544 19.104C113.455 19.4967 113.037 22.6581 113.037 22.6581L113.022 22.8271L114.906 22.7525C114.906 22.7525 116.312 22.4245 116.903 22.9364C117.485 23.4484 117.847 23.7765 117.872 24.3282C117.897 24.8701 117.862 25.2975 117.251 25.3124C116.64 25.3323 114.165 25.4715 114.165 25.4715C114.165 25.4715 112.973 25.5361 112.883 25.6604C112.794 25.7896 112.62 28.6925 112.63 30.6261C112.64 32.5647 113.728 33.2606 114.329 33.1115C114.925 32.9624 115.527 31.8191 115.825 31.6501C116.123 31.4811 116.262 31.2873 117.226 32.1174C118.146 32.9127 118.031 33.3899 117.44 34.2448C117.196 34.5928 115.855 36.0293 113.211 35.4627C109.648 34.6972 109.206 32.6691 109.121 31.5905C109.032 30.5019 109.082 28.7919 109.166 28.2601C109.246 27.7282 109.325 26.3861 109.256 26.068C109.231 25.9238 108.242 26.2817 107.308 25.9686C106.373 25.6554 106.219 24.8899 106.194 24.5668C106.165 24.2437 106.075 23.7218 106.358 23.6125C106.652 23.4981 109.216 23.2496 109.216 23.2496H109.211Z" fill="white"/>
<path d="M97.3935 24.9401C97.3935 24.9401 99.4508 22.6337 102.278 23.2401C105.354 23.9012 106.12 26.3667 106.164 28.2357C106.199 30.1147 106.065 32.9132 106.06 33.455C106.06 33.9968 105.891 35.1053 105.891 35.1053C105.891 35.1053 105.861 35.7614 104.047 35.5924C102.552 35.4532 102.224 35.5476 102.124 34.8219C102.015 34.0962 102.288 33.967 102.388 32.2421C102.482 30.5073 102.542 29.6126 102.542 29.6126C102.542 29.6126 102.726 26.2126 101.533 25.9939C100.132 25.7305 98.8942 27.2217 98.5414 27.679C98.1836 28.1413 97.6866 29.036 97.5574 30.8801C97.4233 32.7292 97.4183 33.9719 97.4183 33.9719C97.4183 33.9719 97.304 35.0903 97.4034 35.2345C97.4978 35.3687 97.9848 35.9602 97.3438 36.3579C96.6928 36.7555 95.5498 36.7605 94.6355 36.4225C93.7162 36.0845 93.8106 35.6073 93.7758 34.7921C93.746 33.9769 94.0093 28.9068 94.0093 28.9068L94.1783 19.2337L94.3274 13.0651C94.3274 13.0651 94.397 12.3642 94.1833 11.8423C93.9696 11.3253 94.0789 10.3063 96.1362 10.5151C98.3823 10.7388 98.4122 11.1911 98.3028 11.7826C98.1885 12.3692 98.0892 12.0809 98.0246 12.7271C97.9599 13.3683 97.5624 19.4922 97.5624 19.4922L97.3935 24.9302V24.9401Z" fill="white"/>
<path d="M92.3448 37.178C92.2901 35.7812 92.2702 32.4359 92.2702 32.4359L92.2007 29.0956C92.2007 29.0956 92.2951 25.9392 92.3348 25.467C92.3696 24.9948 92.5187 24.6767 92.7423 24.2889C92.966 23.9062 92.1361 23.4638 91.3907 23.3296C90.6453 23.1954 90.1434 23.3296 89.8899 23.4539C89.6961 23.5483 89.2986 23.1009 89.2986 23.1009C89.2986 23.1009 88.5085 22.4746 87.0226 22.236C83.9516 21.7489 82.5155 23.6328 81.4073 27.157C80.1849 31.3225 80.7712 32.8734 81.2632 33.778C81.7552 34.6777 83.6038 36.1143 85.4027 36.3678C87.2065 36.6312 88.8663 35.3637 88.8464 35.3836C89.0054 36.2584 88.8961 39.2657 88.8961 39.2657C88.8961 39.2657 88.8315 41.3137 87.291 41.5423C85.7505 41.7759 85.3182 40.0859 85.0995 39.6137C84.8809 39.1365 84.9902 38.8183 85.0399 38.3064C85.0896 37.7994 84.6672 37.6304 84.0063 37.6254C83.3503 37.6204 82.0384 37.859 81.5316 38.5052C81.0247 39.1564 81.2632 39.395 81.3874 39.6733C81.5166 39.9467 81.7204 40.3394 81.939 40.7917C82.6695 42.9242 85.0101 44.306 86.6649 44.2315C88.3246 44.1619 90.0191 43.5405 91.1323 42.2829C92.2404 41.0154 92.3994 38.5748 92.3348 37.183L92.3448 37.178ZM88.6228 31.0939C88.4985 31.571 87.5395 33.3406 85.999 33.5444C84.4635 33.7333 84.056 31.412 84.4734 29.1205C84.8858 26.8339 86.0586 25.0594 86.8835 25.119C87.7084 25.1837 88.7222 25.7304 88.7718 27.4404C88.8166 29.1503 88.7719 30.4526 88.6277 31.0889L88.6228 31.0939Z" fill="white"/>
<path d="M8.25895 17.2359C8.25895 17.2359 7.38435 18.061 7.34956 18.7122C7.31478 19.3634 7.926 19.8654 8.45772 20.6557C8.53226 20.7949 10.0231 22.7136 11.4791 24.1502C12.9351 25.5867 16.0657 27.3811 17.2186 27.7838C17.2882 27.8434 17.2286 28.087 17.2286 28.087C17.2286 28.087 17.0397 30.2691 16.7764 32.4612C16.518 34.6533 16.4235 35.7319 16.4235 35.7319C16.4235 35.7319 16.1055 38.4907 17.6609 38.9828C18.2771 39.1717 18.9877 39.4401 20.1306 39.122C21.2736 38.7989 20.9108 38.1924 20.9108 38.1924C20.9108 38.1924 20.6624 37.7749 20.404 37.1884C20.1406 36.6118 20.5332 32.7048 20.5332 32.7048L20.7021 30.7115L20.8959 29.0364C20.8959 29.0364 20.8214 28.9469 21.209 29.0115C21.6016 29.0811 24.5782 29.275 24.5782 29.275C24.5782 29.275 26.8492 29.3893 29.0108 29.0115C29.7016 28.8525 30.6855 28.5443 30.6855 28.5443C30.6855 28.5443 30.7799 28.5443 30.765 28.9668C30.7451 29.3943 30.9439 31.1092 30.9588 31.7057C30.9737 32.3071 31.1178 34.3948 31.1427 34.7776C31.1774 35.1603 31.3265 36.8653 31.3265 36.8653C31.3265 36.8653 31.4806 39.0822 31.9328 39.6041C32.385 40.1211 33.6621 39.9819 33.6621 39.9819C33.6621 39.9819 34.159 40.0068 35.0634 39.5693C35.9728 39.1369 35.6449 38.3664 35.6449 38.3664C35.6449 38.3664 35.5852 38.2322 35.3964 37.9837C35.2076 37.7302 35.0684 36.905 34.9889 36.2439C34.9094 35.5878 34.8001 34.4097 34.8001 34.4097L34.5367 30.7712L34.3628 28.5443C34.3628 28.5443 34.3081 27.0431 34.4075 26.894C34.5019 26.7498 35.2821 26.1981 35.2821 26.1981C35.2821 26.1981 36.8474 24.861 37.1506 23.9712C37.4438 23.0864 37.3145 22.6043 37.3145 22.6043C37.3145 22.6043 37.1853 21.6499 36.4797 21.0584C36.2312 20.8397 35.784 21.0186 35.6399 21.2771C35.4958 21.5306 35.4163 21.7394 35.3169 21.8587C35.2225 21.9829 34.6659 22.6142 34.5963 22.6739C34.5317 22.7335 34.4174 22.9323 34.333 22.8379C34.2534 22.7534 34.164 20.954 34.169 20.6508C34.1739 20.3575 34.0596 17.1365 34.0596 17.1365C34.0596 17.1365 34.0845 14.8897 34.0596 14.1938C34.0398 13.4979 34.2236 10.4956 34.2684 10.1128C34.323 9.92396 34.4969 9.93887 34.5914 9.33244C34.6907 8.72104 33.5876 8.15438 32.226 8.03012C31.4855 7.9655 30.9886 7.97047 30.6457 8.1693C30.2581 8.39298 30.2482 8.7459 30.2333 8.97455C30.1885 9.39209 30.4519 9.65057 30.4917 10.1128C30.5364 10.5702 30.432 11.4599 30.432 11.4599L30.447 13.0655V15.9336L30.4768 20.0046L30.5513 22.7683C30.5513 22.7683 30.6408 24.9107 30.6656 24.9952C30.6904 25.0847 30.6557 25.1393 30.606 25.1791C30.5612 25.2238 29.2096 26.049 25.4081 26.0937C23.5644 26.0738 21.9544 25.8303 21.3183 25.5618C21.3183 25.4376 21.5171 23.7972 21.5171 23.7972C21.5171 23.7972 22.3321 17.8672 22.6004 16.5748C22.8687 15.2874 23.1917 13.2146 23.4352 12.1558C23.6787 11.097 24.0017 10.7441 24.1111 10.5801C24.2254 10.4161 24.7074 9.50145 23.5098 9.08888C21.8003 9.00438 20.6773 9.63069 20.6773 9.63069C20.6773 9.63069 19.6834 10.1576 19.7629 10.9479C19.8474 11.7333 19.7579 12.295 19.7281 12.469C19.6983 12.6479 19.3753 13.6421 19.1418 15.1134C18.9032 16.5947 18.7492 17.7727 18.7492 17.7727L18.3168 20.4122L17.9193 22.7683L17.6758 24.344C17.6758 24.344 16.3937 24.0955 14.083 21.8388C11.7723 19.5821 10.9821 18.1356 10.7436 17.554C10.7088 17.4347 10.7784 16.8134 9.81435 16.6195C8.81551 16.5052 8.24901 17.211 8.24901 17.211L8.25895 17.2359Z" fill="white"/>
<path d="M126.265 20.5405C126.265 20.5405 128.506 20.6349 129.962 22.2753C130.996 23.7367 131.085 25.3173 131.085 25.3173C131.085 25.3173 131.031 25.8293 130.067 25.9138C129.103 25.9983 128.342 26.232 127.647 25.4168C126.951 24.6115 127.06 23.5279 126.066 23.7019C125.063 23.8808 123.298 24.9197 123.169 25.9685C123.045 26.9925 124.983 27.5293 126.33 27.9667C128.327 28.6129 131.493 29.0007 131.031 31.6749C130.569 34.3591 126.921 35.4179 124.004 35.0798C123.323 35.0053 122.702 34.9307 122.131 34.7816C120.083 34.2448 118.831 33.3997 118.816 32.3062C118.598 31.3369 120.451 30.8001 121.052 30.8199C121.649 30.8398 121.599 30.7851 122.17 31.491C122.742 32.1968 123.318 32.3112 124.705 32.4304C126.091 32.5497 126.747 32.0079 126.747 32.0079C126.747 32.0079 127.418 31.5009 126.414 31.0635C125.41 30.631 120.386 29.5822 119.567 27.8673C118.742 26.1425 119.353 24.1343 120.62 23.0308C121.892 21.9223 123.303 20.3615 126.275 20.5405H126.265Z" fill="white"/>
<path d="M128.656 15.192H128.084V16.7131H127.577V15.192H127.006V14.7695H128.656V15.192ZM131.13 16.7181H130.648V15.3958H130.638L130.151 16.7181H129.863L129.376 15.3958H129.366V16.7181H128.884V14.7745H129.565L130.002 15.878L130.44 14.7745H131.12V16.7181H131.13Z" fill="white"/>
</g>
<defs>
<clipPath id="clip0_129_6875">
<rect width="149" height="73" fill="white" transform="translate(0 0.444336)"/>
</clipPath>
</defs>
</svg>
