<svg width="181" height="74" viewBox="0 0 181 74" fill="none" xmlns="http://www.w3.org/2000/svg">
<g clip-path="url(#clip0_129_6778)">
<path d="M117.912 8.96382C118.348 10.3909 118.789 11.7381 119.225 13.0108L116.817 13.8415C116.392 12.489 115.957 11.0619 115.521 9.55489C114.081 8.6177 112.481 7.55803 110.722 6.38121C109.718 5.69962 109.42 5.04464 109.835 4.42162C110.313 3.69743 111.062 3.69743 112.083 4.42695C113.448 5.41739 114.74 6.32796 115.951 7.16398C116.456 5.44934 116.903 3.95303 117.296 2.66971C117.652 1.47692 118.268 1.00832 119.14 1.26924C119.735 1.44497 119.878 2.03071 119.57 3.03713C118.954 5.10322 118.401 7.07878 117.917 8.96915L117.912 8.96382Z" fill="#92D7AE"/>
<path d="M120.24 7.73955C120.335 6.64261 120.782 5.74269 121.584 5.03979C122.387 4.34222 123.38 4.04403 124.565 4.1452C125.718 4.24637 126.616 4.6777 127.265 5.43917C127.913 6.20064 128.184 7.13251 128.088 8.24543C127.998 9.29977 127.557 10.1731 126.765 10.86C125.973 11.5469 124.948 11.8398 123.688 11.728C122.711 11.6428 121.866 11.254 121.154 10.5618C120.442 9.86954 120.133 8.92702 120.24 7.73955ZM122.333 7.84073C122.28 8.46908 122.434 8.95897 122.801 9.32107C123.168 9.67784 123.561 9.88019 123.975 9.91214C124.459 9.93344 124.9 9.77369 125.304 9.43822C125.702 9.10275 125.926 8.66077 125.973 8.1123C126.032 7.46266 125.883 6.96211 125.527 6.61066C125.171 6.25921 124.773 6.06219 124.337 6.02491C123.922 5.98764 123.497 6.12076 123.067 6.42961C122.636 6.73846 122.392 7.20706 122.339 7.84605L122.333 7.84073Z" fill="#92D7AE"/>
<path d="M129.417 3.48983C129.491 2.8881 129.879 2.62718 130.575 2.71771C131.34 2.81356 131.691 3.11175 131.633 3.6123L131.282 6.48778C131.208 7.11081 131.255 7.56875 131.431 7.86695C131.606 8.15982 131.861 8.33555 132.201 8.3888C132.626 8.4527 132.993 8.3675 133.296 8.1332C133.604 7.8989 133.79 7.49953 133.859 6.94041L134.178 4.33117C134.258 3.59633 134.688 3.28215 135.475 3.38865C136.208 3.47918 136.532 3.87322 136.442 4.57612C136.027 7.58473 135.778 9.66146 135.693 10.817L133.514 10.5507L133.588 9.94369C133.147 10.2792 132.414 10.3803 131.388 10.2579C130.602 10.162 129.98 9.75199 129.528 9.02779C129.071 8.3036 128.933 7.31848 129.109 6.07776L129.422 3.50048L129.417 3.48983Z" fill="#92D7AE"/>
<path d="M143.818 12.9206L141.836 12.2763L142.872 9.08134C143.021 8.62872 143.074 8.22935 143.036 7.87257C142.999 7.52112 142.84 7.2602 142.558 7.10045C142.021 6.82355 141.538 6.7703 141.107 6.95135C140.672 7.12708 140.401 7.39865 140.284 7.75542L139.078 11.419L137.069 10.764L139.03 4.72019C139.232 4.09184 139.694 3.8895 140.401 4.12379C140.863 4.27289 141.033 4.66162 140.911 5.27931C141.958 4.86929 143.047 5.01306 144.174 5.71596C144.546 5.96623 144.849 6.34963 145.093 6.86615C145.337 7.388 145.321 8.12817 145.056 9.09732L143.818 12.9206Z" fill="#92D7AE"/>
<path d="M154.26 8.98017C154.828 9.29434 154.908 9.80554 154.504 10.5138C153.346 12.5159 152.448 14.0868 151.805 15.221C151.369 16.0145 150.79 16.6002 150.067 16.9783C149.344 17.3617 148.484 17.3723 147.474 17.0102C146.273 16.4937 145.375 15.8707 144.774 15.1305L145.965 13.5969C146.47 14.2785 147.059 14.7897 147.74 15.1305C148.149 15.3222 148.558 15.3861 148.957 15.3329C149.36 15.2796 149.669 15.0613 149.881 14.6726L150.12 14.2359C149.435 14.2466 148.802 14.0921 148.229 13.7726C147.293 13.2561 146.693 12.5479 146.422 11.664C146.151 10.7747 146.23 9.93866 146.666 9.16122C147.166 8.25597 147.915 7.65958 148.909 7.37735C149.902 7.09513 150.859 7.21228 151.784 7.72348C152.32 8.02167 152.751 8.42637 153.064 8.92692C153.33 8.65535 153.728 8.67132 154.265 8.96952L154.26 8.98017ZM151.412 11.7332C151.699 11.2113 151.752 10.7374 151.576 10.3114C151.396 9.88541 151.114 9.56591 150.731 9.34759C150.365 9.14524 149.95 9.10264 149.488 9.22512C149.026 9.34759 148.686 9.59787 148.473 9.98659C148.229 10.4286 148.191 10.8652 148.361 11.2859C148.531 11.7066 148.776 12.0048 149.089 12.1858C149.573 12.452 150.035 12.5266 150.476 12.4094C150.917 12.2923 151.231 12.0686 151.412 11.7385V11.7332Z" fill="#92D7AE"/>
<path d="M63.3584 9.02843C62.8429 7.94747 62.9226 7.23924 63.6081 6.9091C64.4424 6.53102 65.0907 6.85052 65.5477 7.87292L68.2632 13.9381L69.7564 9.18818C69.8946 8.76219 70.0965 8.52789 70.3728 8.49061C70.6492 8.45334 70.9202 8.62374 71.1806 9.00713L74.0023 13.0328L75.2936 6.57895C75.5221 5.51395 76.0216 5.04003 76.7815 5.16783C77.5733 5.30628 77.8443 5.95593 77.6052 7.11677L75.5221 17.2981L74.3105 17.4685L71.069 12.9689L69.3738 18.2406L67.7956 18.4643L63.3531 9.02311L63.3584 9.02843Z" fill="#92D7AE"/>
<path d="M78.3177 12.724C78.1849 11.627 78.4346 10.6579 79.0776 9.80588C79.7153 8.95388 80.624 8.45866 81.8037 8.30956C82.9515 8.16579 83.9187 8.40009 84.7105 9.01246C85.5023 9.6195 85.9646 10.4768 86.0974 11.5844C86.225 12.6334 85.9752 13.5813 85.3482 14.4173C84.7211 15.2586 83.7752 15.7539 82.5211 15.9083C81.5486 16.0254 80.64 15.8231 79.8003 15.2906C78.9607 14.7581 78.4665 13.9061 78.3231 12.7186L78.3177 12.724ZM80.3902 12.3832C80.4646 13.0062 80.7197 13.4588 81.1554 13.7304C81.5858 14.0073 82.011 14.1191 82.4255 14.0659C82.9037 13.986 83.3023 13.7357 83.6264 13.3257C83.9453 12.9157 84.0728 12.4364 84.009 11.8879C83.9293 11.2436 83.6796 10.7857 83.2598 10.5141C82.8399 10.2425 82.4095 10.136 81.9738 10.1893C81.5593 10.2425 81.1714 10.4608 80.8153 10.8496C80.4593 11.2383 80.3158 11.7495 80.3955 12.3832H80.3902Z" fill="#92D7AE"/>
<path d="M87.1177 13.597C86.9689 12.3722 87.2505 11.2859 87.9626 10.3328C88.6747 9.3796 89.695 8.82581 91.0128 8.66073C92.2935 8.50098 93.3776 8.76191 94.2597 9.4435C95.1418 10.1251 95.6573 11.0836 95.8114 12.319C95.9549 13.4958 95.6732 14.5501 94.9718 15.4873C94.2703 16.4245 93.2128 16.9783 91.8099 17.1541C90.7206 17.2872 89.7109 17.0582 88.7703 16.4671C87.8298 15.8761 87.2824 14.9176 87.1177 13.597ZM89.4293 13.2242C89.5143 13.9218 89.8012 14.4223 90.2848 14.7312C90.7684 15.04 91.2413 15.1625 91.709 15.1039C92.2457 15.0134 92.6921 14.7365 93.0481 14.2786C93.4041 13.8206 93.5476 13.2828 93.4732 12.6704C93.3829 11.9462 93.1066 11.435 92.6336 11.1315C92.1607 10.828 91.6824 10.7108 91.1935 10.7694C90.7312 10.828 90.2954 11.0729 89.8969 11.5043C89.4983 11.9409 89.3442 12.5107 89.4293 13.2189V13.2242Z" fill="#92D7AE"/>
<path d="M101.014 16.8236L99.021 15.7906L103.586 6.25891C103.82 5.77966 104.133 5.54004 104.532 5.54004C105.021 5.54004 105.377 5.77966 105.6 6.25891L110.164 15.6841L108.156 16.8236L106.811 13.9854L102.268 14.2677L101.024 16.8236H101.014ZM103.113 12.2016L105.908 12.0418L104.579 9.02789L103.113 12.2016Z" fill="#92D7AE"/>
<path d="M11.8872 13.7458L10.7288 17.6863C10.3302 18.7726 9.72445 19.2838 8.92203 19.2145C8.11431 19.1506 7.55634 18.8205 7.24281 18.2241L5.45199 13.7298L1.79065 13.3837C1.08389 13.3944 0.547176 13.1175 0.185824 12.553C-0.175528 11.9886 -0.0214218 11.291 0.642828 10.4496L3.57615 7.43571L3.45393 3.08521C3.25731 2.31309 3.40079 1.80722 3.88436 1.57292C4.36794 1.33862 4.94716 1.4398 5.62736 1.87645L9.18242 4.15021L12.7853 2.53142C13.4442 2.17464 14.0235 2.21724 14.5177 2.66454C15.0119 3.11184 15.2191 3.72421 15.1288 4.49633L13.9969 7.85106L17.1375 10.9821C17.637 11.4987 17.7486 12.0525 17.4882 12.6382C17.2225 13.224 16.6167 13.4902 15.6708 13.4263L11.8872 13.7352V13.7458Z" fill="#92D7AE"/>
<path d="M13.3541 34.71L11.7386 36.0199C11.2604 36.3554 10.8618 36.398 10.543 36.137C10.2241 35.8761 10.086 35.5779 10.1285 35.2371L10.6705 32.8462L9.24104 31.6481C8.94346 31.4511 8.79998 31.1795 8.81061 30.8387C8.82124 30.4979 9.08694 30.253 9.60239 30.0932L11.6908 29.6779L12.8864 27.8248C13.0246 27.4467 13.2319 27.2763 13.5029 27.3189C13.7686 27.3615 13.9864 27.5692 14.1405 27.9472L14.9695 29.9228L16.9357 30.2849C17.313 30.3275 17.5415 30.5086 17.6212 30.8387C17.7009 31.1688 17.6106 31.483 17.3502 31.7812L15.9154 32.8569L16.3246 35.072C16.3831 35.4288 16.2768 35.6951 15.9951 35.8655C15.7188 36.0359 15.3893 35.9666 15.012 35.6684L13.3434 34.7046L13.3541 34.71Z" fill="#92D7AE"/>
<path d="M173.023 34.748L170.983 33.5286C170.43 33.1505 170.234 32.7352 170.388 32.2932C170.542 31.8512 170.807 31.585 171.185 31.4945L173.959 31.1324L174.676 29.1249C174.772 28.7255 175.005 28.4646 175.372 28.3421C175.739 28.2196 176.111 28.406 176.483 28.9012L177.748 30.9833L180.203 31.5424C180.66 31.5424 180.925 31.6968 180.984 32.0003C181.048 32.3039 180.904 32.618 180.564 32.9375L178.778 34.6096L179.166 36.8674C179.273 37.288 179.166 37.6075 178.842 37.8205C178.523 38.0335 178.151 38.0602 177.726 37.9004L176.01 36.7822L173.805 38.0974C173.443 38.3051 173.119 38.2891 172.827 38.0548C172.534 37.8205 172.476 37.4425 172.651 36.9206L173.023 34.748Z" fill="#92D7AE"/>
<path d="M164.936 16.6905L161.646 15.716C160.738 15.3805 160.313 14.8747 160.371 14.1984C160.429 13.5221 160.706 13.0535 161.205 12.7926L164.957 11.2963L165.249 8.22376C165.239 7.63269 165.472 7.1854 165.945 6.88187C166.413 6.57835 166.998 6.70615 167.699 7.26527L170.218 9.73073L173.853 9.62956C174.496 9.46448 174.915 9.58696 175.112 9.99165C175.309 10.3964 175.224 10.8809 174.857 11.4507L172.955 14.4327L174.304 17.4573C174.602 18.0111 174.565 18.4956 174.193 18.911C173.821 19.3263 173.305 19.4967 172.662 19.4222L169.862 18.469L167.242 21.0995C166.812 21.5149 166.349 21.6161 165.86 21.3924C165.371 21.1688 165.154 20.6629 165.207 19.8641L164.952 16.6905H164.936Z" fill="#92D7AE"/>
<path d="M42.5332 69.1629C39.9081 69.1842 37.5859 67.2353 37.1448 64.4769C36.6719 61.5322 36.4327 60.0572 35.9545 57.1072C31.0018 57.9965 28.5308 58.4491 23.5888 59.365C23.2859 59.4235 22.9777 59.4502 22.6748 59.4502C21.527 59.4608 20.3951 59.0934 19.4439 58.3852C18.2376 57.4906 17.4246 56.1327 17.1961 54.6204C16.5478 50.3871 16.2236 48.2731 15.5647 44.0344C15.3309 42.5327 15.6922 41.0098 16.5637 39.8064C17.4352 38.6029 18.7478 37.8255 20.2091 37.6391C22.239 37.3835 23.254 37.2557 25.284 37.0001C24.184 35.8446 23.1956 34.5666 22.34 33.1661C20.8043 30.6634 19.7946 27.8838 19.3323 24.9018C18.8806 21.9571 19.0188 19.0443 19.7521 16.2487C20.4695 13.5276 21.6704 11.0249 23.3284 8.81504C24.9917 6.59985 27.0801 4.74676 29.5405 3.30902C32.0327 1.84998 34.8173 0.939412 37.8037 0.593289C38.8665 0.470814 39.9293 0.42289 40.9762 0.449514C42.8733 0.497439 44.7544 0.795637 46.5665 1.33346C49.3298 2.1535 51.8699 3.43682 54.1071 5.15146C56.3336 6.85545 58.2148 8.92154 59.708 11.3018C61.265 13.7832 62.2481 16.5096 62.6467 19.4064C63.0505 22.3458 62.838 25.2372 62.0249 28.0009C61.5201 29.7262 60.8187 31.3556 59.9365 32.8733C62.8539 32.5431 64.3153 32.3834 67.238 32.0585C67.4718 32.0319 67.7056 32.0213 67.9341 32.0266C70.5911 32.0692 72.908 34.0234 73.3278 36.7126C73.8433 39.9874 74.1036 41.6275 74.6191 44.9024C75.0867 47.8897 73.0674 50.6906 70.0969 51.1912C65.5003 51.9633 60.8984 52.7407 56.3071 53.5395C56.796 56.6226 57.0457 58.1615 57.5293 61.234C57.7631 62.7037 57.4018 64.2107 56.5356 65.4141C55.6694 66.6176 54.3675 67.4163 52.9221 67.6347C49.0694 68.2097 47.1457 68.5026 43.2984 69.0937C43.0433 69.131 42.7883 69.1523 42.5385 69.1576L42.5332 69.1629Z" fill="#70BE90"/>
<path d="M82.2712 60.116C79.5717 60.1001 76.9891 59.5569 74.5925 58.4866C72.2543 57.4482 70.1819 56.0158 68.4229 54.2213C66.6693 52.4268 65.2611 50.3074 64.2461 47.9219C63.2046 45.4724 62.6785 42.8365 62.6891 40.1048C62.6998 37.3997 63.2524 34.8011 64.3365 32.3836C65.378 30.0566 66.8128 27.9852 68.6036 26.2279C70.405 24.46 72.5306 23.0596 74.9273 22.0638C77.4036 21.0308 80.0659 20.5462 82.8292 20.6207C85.5978 20.69 88.2388 21.313 90.6779 22.4632C92.0171 23.0968 93.2712 23.853 94.4349 24.721C94.7113 24.2524 95.0567 23.8264 95.4712 23.4536C96.5233 22.5005 97.9156 21.9999 99.3504 22.0425C99.4407 22.0425 99.5364 22.0478 99.6267 22.0585C103.389 22.3514 105.27 22.4951 109.032 22.7933C110.499 22.9105 111.865 23.5867 112.816 24.6784C113.773 25.77 114.24 27.1811 114.123 28.6029C114.033 29.6572 113.99 30.1844 113.905 31.2334C114.495 31.3133 114.793 31.3506 115.383 31.4304C118.279 31.8191 120.351 34.3325 120.112 37.1601C119.91 39.5617 119.809 40.7651 119.607 43.1667C119.368 46.0155 116.892 48.2041 113.974 48.1508C113.385 48.1402 113.087 48.1349 112.497 48.1242C112.29 50.5737 112.189 51.7984 111.987 54.2479C111.748 57.0968 109.298 59.3066 106.402 59.2747C103.4 59.2427 101.901 59.2268 98.8987 59.2001C96.7997 59.1842 94.9929 57.9807 94.1214 56.2288C92.8514 57.15 91.4697 57.9328 90.0031 58.5665C87.5852 59.6048 84.992 60.1267 82.2871 60.1107L82.2712 60.116Z" fill="#70BE90"/>
<path d="M135.687 73.4443C134.784 73.439 133.87 73.3485 132.972 73.1834C130.841 72.7947 128.901 72.0119 127.19 70.8564C125.543 69.7382 124.145 68.343 123.045 66.7083C121.945 65.0735 121.175 63.247 120.76 61.2981C120.33 59.2746 120.34 57.1712 120.792 55.0572C121.233 52.9805 122.083 51.0582 123.311 49.3435C123.497 49.0826 123.694 48.827 123.89 48.5821C121.775 48.0709 119.825 47.2082 118.087 46.0207C116.164 44.7055 114.538 43.0814 113.268 41.2017C111.998 39.3219 111.099 37.2132 110.6 34.9448C110.09 32.6072 110.084 30.1843 110.6 27.7561C111.094 25.3971 112.061 23.2086 113.48 21.265C114.851 19.3906 116.53 17.8037 118.475 16.563C120.426 15.317 122.61 14.4437 124.958 13.9644C126.361 13.6769 127.807 13.5651 129.247 13.6183C130.304 13.6609 131.378 13.794 132.44 14.0124C135.735 14.6993 138.615 16.1583 141.001 18.3362C141.628 18.906 142.208 19.5077 142.734 20.1361C144.376 20.397 145.199 20.5301 146.841 20.791C147.288 20.152 147.883 19.6089 148.59 19.2042C149.536 18.6611 150.62 18.4055 151.698 18.4481C152.113 18.464 152.522 18.5279 152.926 18.6291C156.672 19.6036 158.543 20.0935 162.279 21.0679C163.708 21.4407 164.914 22.3353 165.626 23.5547C166.344 24.7741 166.503 26.2119 166.089 27.5538C163.751 35.046 161.444 42.5489 159.154 50.0571C158.431 52.432 156.12 54.0082 153.643 53.955C153.33 53.9496 153.011 53.9124 152.692 53.8538C152.278 53.7739 152.07 53.7313 151.656 53.6514C151.767 54.0295 151.863 54.4182 151.943 54.8069C152.363 56.8358 152.336 58.9019 151.858 60.9573C151.374 63.05 150.476 64.9723 149.195 66.6657C147.979 68.2738 146.512 69.6423 144.838 70.7339C143.132 71.8415 141.246 72.6296 139.232 73.0769C138.063 73.3325 136.867 73.4603 135.687 73.4497V73.4443Z" fill="#70BE90"/>
<g style="mix-blend-mode:multiply" opacity="0.3">
<path d="M66.8339 40.2214C66.7223 39.5771 66.531 39.2736 65.9092 39.3375C51.0832 41.0361 38.1171 42.7987 23.3069 44.6944C22.6268 44.8222 22.5417 45.376 22.6427 46.0416C23.0944 49.0023 23.3016 50.3655 23.7693 53.4433C23.8649 54.0823 24.2316 54.1622 24.7152 54.077C30.2098 53.0865 35.6992 52.1121 41.1992 51.1536C41.2311 51.1482 41.2629 51.1429 41.2895 51.1429C41.4011 51.1429 41.518 51.1802 41.6083 51.2494C41.7253 51.3346 41.8103 51.4677 41.8315 51.6168C42.5914 56.3561 42.99 58.8322 43.7127 63.3531C43.7977 63.9441 44.09 63.9867 44.5895 63.9175C47.018 63.5554 49.7441 63.156 50.9982 62.9697C51.4392 62.9058 51.6731 62.6182 51.6252 62.1762C51.418 60.206 50.8016 54.4018 50.3605 50.1578C50.3127 49.8543 50.5093 49.572 50.8069 49.5188C56.7585 48.4964 61.1001 47.5006 67.0624 46.5208C67.7426 46.3824 67.716 45.6848 67.6682 45.36C67.3653 43.4537 67.158 42.1437 66.8498 40.2214H66.8339Z" fill="black"/>
</g>
<path d="M43.192 62.6981C42.751 62.6981 42.1983 62.5117 42.0655 61.6384C41.3481 57.1282 40.9495 54.6468 40.1843 49.9075C34.8119 50.8341 29.2641 51.8192 23.7056 52.8203C23.5621 52.8469 23.4399 52.8576 23.323 52.8576C22.6641 52.8576 22.2283 52.4476 22.1167 51.7234L20.9902 44.3216C20.767 42.8307 21.5907 42.4473 22.1008 42.3514C25.9588 41.8562 29.6626 41.3769 33.3027 40.903C43.8138 39.5345 53.7403 38.2459 64.7403 36.9892C64.82 36.9785 64.8891 36.9785 64.9582 36.9785C66.0369 36.9785 66.207 37.9583 66.2707 38.3311C66.2707 38.3311 66.8128 41.7177 67.0944 43.475C67.2432 44.4015 66.834 45.1044 66.0582 45.2642C62.8485 45.7913 60.1862 46.3079 57.3698 46.8563C55.0051 47.3143 52.5553 47.7882 49.7867 48.2674C50.2384 52.5487 50.8548 58.3476 51.0621 60.3232C51.1365 61.0527 50.7007 61.6118 49.9674 61.7183C48.7133 61.9047 45.9925 62.3041 43.564 62.6662C43.4259 62.6875 43.2983 62.6981 43.1867 62.6981H43.192Z" fill="#92D7AE"/>
<path d="M65.3192 37.8786C65.2076 37.2343 65.0163 36.9308 64.3946 36.9947C49.5686 38.6933 36.6024 40.4559 21.7923 42.3516C21.1121 42.4794 21.0271 43.0332 21.128 43.6988C21.5797 46.6595 21.787 48.0227 22.2546 51.1005C22.3503 51.7395 22.7169 51.8194 23.2005 51.7342C28.6899 50.7438 34.1845 49.7693 39.6845 48.8108C39.7164 48.8055 39.7483 48.8001 39.7749 48.8001C39.8865 48.8001 40.0034 48.8374 40.0937 48.9066C40.2106 48.9918 40.2956 49.125 40.3169 49.2741C41.0821 54.0133 41.4753 56.4894 42.198 61.0103C42.2831 61.6014 42.5753 61.644 43.0749 61.5747C45.5033 61.2126 48.2294 60.8133 49.4835 60.6269C49.9246 60.563 50.1584 60.2754 50.1106 59.8335C49.9033 57.8632 49.2869 52.059 48.8458 47.815C48.798 47.5115 48.9946 47.2293 49.2922 47.176C55.2439 46.1536 59.5854 45.1579 65.5477 44.1781C66.2279 44.0396 66.2014 43.342 66.1535 43.0172C65.8506 41.1109 65.6381 39.8009 65.3352 37.8786H65.3192Z" fill="white"/>
<g style="mix-blend-mode:multiply" opacity="0.3">
<path d="M28.2968 31.0259C29.3809 32.7938 30.7466 34.3008 32.3514 35.4935C33.9562 36.6917 35.7896 37.5703 37.7929 38.1028C39.0524 38.4383 40.3596 38.614 41.6722 38.6246C42.4427 38.63 43.2345 38.582 44.0263 38.4755C46.1625 38.188 48.134 37.517 49.8876 36.484C51.6465 35.4509 53.1504 34.1357 54.3567 32.5861C55.5683 31.0312 56.4716 29.2527 57.0349 27.2984C57.5982 25.3495 57.7417 23.3047 57.4494 21.2173C57.1625 19.1778 56.4716 17.2609 55.3823 15.5302C54.2929 13.789 52.9166 12.282 51.2958 11.0466C49.6803 9.81122 47.8364 8.88468 45.8224 8.28828C44.5364 7.91021 43.1973 7.70254 41.8475 7.67059C41.0929 7.65461 40.3118 7.69189 39.5359 7.78241C37.3731 8.03801 35.3698 8.69831 33.5789 9.74732C31.7881 10.7963 30.2736 12.1382 29.0727 13.7304C27.8717 15.3226 27.0002 17.1277 26.4794 19.0926C25.9587 21.0469 25.8577 23.0917 26.1712 25.1684C26.4954 27.2878 27.2075 29.2633 28.2915 31.0312L28.2968 31.0259ZM38.0055 19.7955C38.9301 18.5974 40.1524 17.8999 41.6456 17.7135C41.8953 17.6815 42.1451 17.6709 42.3895 17.6762C43.5161 17.6975 44.6055 18.0916 45.6151 18.853C46.8533 19.7796 47.5866 20.9724 47.7886 22.3995C48.0011 23.8745 47.6291 25.2164 46.6939 26.3932C45.7692 27.5593 44.5895 28.2463 43.2026 28.422C42.9156 28.4593 42.634 28.4752 42.3577 28.4699C41.1992 28.4539 40.1098 28.0812 39.1214 27.3623C37.8833 26.4624 37.1499 25.2536 36.9268 23.768C36.7142 22.3356 37.0756 20.999 38.0002 19.7955H38.0055Z" fill="black"/>
</g>
<path d="M40.5669 37.3888C39.2065 37.3781 37.8514 37.1971 36.5495 36.8456C34.477 36.2918 32.5799 35.3813 30.922 34.1459C29.2587 32.9052 27.8505 31.3503 26.7292 29.5238C25.608 27.6867 24.8693 25.6472 24.5345 23.4587C24.2051 21.3074 24.3167 19.188 24.8534 17.1539C25.3954 15.1198 26.2988 13.2507 27.5423 11.6053C28.7857 9.95455 30.3587 8.56473 32.208 7.47844C34.0572 6.39214 36.135 5.71055 38.3775 5.4443C39.0471 5.36442 39.7219 5.32715 40.3862 5.32715C40.5137 5.32715 40.6359 5.32715 40.7635 5.32715C42.1611 5.3591 43.5427 5.57742 44.8765 5.96614C46.9543 6.57852 48.8567 7.53701 50.5306 8.815C52.2045 10.093 53.618 11.6479 54.7499 13.4424C55.8765 15.2369 56.5992 17.2231 56.8968 19.3425C57.1997 21.5044 57.0562 23.6291 56.4663 25.6579C55.8818 27.6814 54.9465 29.5238 53.6924 31.1319C52.4383 32.7401 50.8813 34.098 49.0693 35.1683C47.2519 36.2386 45.206 36.9308 43.0007 37.229C42.2248 37.3355 41.4543 37.3835 40.6997 37.3835H40.5722L40.5669 37.3888ZM41.1939 16.4297C41.0026 16.4297 40.806 16.4404 40.6094 16.467C39.2649 16.6321 38.1649 17.2604 37.336 18.336C36.507 19.4117 36.1828 20.6098 36.3688 21.8878C36.5654 23.219 37.2297 24.3053 38.3403 25.1147C39.2331 25.7644 40.2161 26.1052 41.2577 26.1158H41.3268C41.5553 26.1158 41.7891 26.0999 42.0282 26.0679C43.2717 25.9082 44.3239 25.2958 45.1635 24.2414C46.0031 23.1871 46.3326 21.989 46.1412 20.6737C45.9606 19.401 45.2963 18.3254 44.1804 17.4894C43.2611 16.8025 42.2833 16.4457 41.2736 16.4244H41.1886L41.1939 16.4297Z" fill="#92D7AE"/>
<path d="M26.7826 28.6773C27.8667 30.4452 29.2324 31.9521 30.8372 33.1449C32.442 34.343 34.2753 35.2217 36.2787 35.7541C37.5381 36.0896 38.8454 36.2653 40.1579 36.276C40.9285 36.2813 41.7203 36.2334 42.5067 36.1269C44.643 35.8393 46.6144 35.1684 48.3681 34.1354C50.127 33.1023 51.6309 31.787 52.8371 30.2375C54.0487 28.6826 54.9521 26.9041 55.5154 24.9498C56.0787 23.0008 56.2221 20.9561 55.9299 18.8687C55.6429 16.8292 54.9521 14.9122 53.8627 13.1816C52.7734 11.4403 51.397 9.93338 49.7763 8.69798C48.1608 7.46259 46.3169 6.53605 44.3029 5.93965C43.0169 5.56158 41.6777 5.3539 40.328 5.32195C39.5734 5.30598 38.7922 5.34325 38.0164 5.43378C35.8536 5.68938 33.8502 6.34967 32.0594 7.39869C30.2686 8.44771 28.7541 9.7896 27.5531 11.3818C26.3522 12.9739 25.4807 14.7791 24.9599 16.744C24.4391 18.6983 24.3382 20.7431 24.6517 22.8198C24.9759 24.9391 25.6879 26.9147 26.772 28.6826L26.7826 28.6773ZM36.486 17.4469C37.4106 16.2488 38.6328 15.5512 40.1261 15.3648C40.3758 15.3329 40.6256 15.3222 40.8753 15.3276C42.0019 15.3489 43.0913 15.7429 44.1009 16.5044C45.3391 17.4309 46.0724 18.6237 46.2743 20.0508C46.4869 21.5258 46.1149 22.8677 45.185 24.0445C44.255 25.2107 43.0806 25.8976 41.6937 26.0734C41.4067 26.1106 41.1251 26.1266 40.8434 26.1213C39.685 26.1053 38.5956 25.7326 37.6072 25.0137C36.3691 24.1138 35.6357 22.905 35.4125 21.4193C35.2 19.9869 35.5613 18.6504 36.486 17.4469Z" fill="white"/>
<g style="mix-blend-mode:multiply" opacity="0.3">
<path d="M114.681 38.2732C112.566 37.9963 111.344 37.8365 109.075 37.5383C108.788 37.5011 108.575 37.2455 108.602 36.9632C108.804 34.3966 108.921 32.9748 109.107 30.6532C109.128 30.3763 109.123 29.7639 108.496 29.7266C106.168 29.5509 104.287 29.4178 102.145 29.258C101.332 29.1941 100.886 29.5615 100.918 30.5254C100.854 38.172 100.732 46.0796 100.732 53.7209C100.732 54.3812 101.205 54.3812 101.433 54.3865C103.346 54.4132 104.579 54.4291 106.492 54.4558C106.715 54.4558 107.167 54.5197 107.258 53.7262C107.56 49.9082 107.736 47.7729 108.06 43.7313C108.081 43.4437 108.331 43.2254 108.623 43.2307C110.86 43.2733 112.162 43.3 114.208 43.3426C114.421 43.3426 114.777 43.268 114.83 42.7621C114.942 41.3776 115.027 40.3872 115.138 39.0027C115.175 38.5607 115.069 38.3318 114.676 38.2785L114.681 38.2732Z" fill="black"/>
</g>
<path d="M100.323 53.1404C99.2013 53.1244 99.0791 52.2831 99.0791 51.9263C99.0791 46.809 99.1376 41.5054 99.1907 36.3774C99.2173 33.8108 99.2438 31.2548 99.2651 28.7254C99.2438 28.1344 99.3926 27.6658 99.7008 27.3409C99.9825 27.0481 100.376 26.9043 100.865 26.9043C100.934 26.9043 101.008 26.9043 101.082 26.9149C102.044 26.9895 102.953 27.0534 103.878 27.1226C105.004 27.2025 106.147 27.2877 107.433 27.3835C107.853 27.4102 108.108 27.6072 108.246 27.7669C108.48 28.0385 108.586 28.4326 108.549 28.9065L108.044 35.2166L113.65 35.9354C114.038 35.9834 114.681 36.223 114.585 37.256L114.277 41.0155C114.203 41.6811 113.751 42.1018 113.119 42.1018L107.507 41.9899L107.353 43.8803L106.699 51.9742C106.609 52.7783 106.184 53.215 105.498 53.215C105.498 53.215 102.236 53.1724 100.317 53.1457L100.323 53.1404Z" fill="#92D7AE"/>
<path d="M113.166 35.9246C111.046 35.6477 109.829 35.4879 107.56 35.1897C107.268 35.1524 107.061 34.8968 107.082 34.6146C107.289 32.048 107.401 30.6262 107.587 28.3045C107.608 28.0276 107.603 27.4153 106.976 27.378C104.643 27.2023 102.767 27.0691 100.625 26.9094C99.8124 26.8455 99.366 27.2129 99.3979 28.1767C99.3341 35.8234 99.2119 43.731 99.2119 51.3723C99.2119 52.0326 99.6849 52.0326 99.9134 52.0379C101.832 52.0645 103.059 52.0805 104.972 52.1071C105.195 52.1071 105.647 52.171 105.737 51.3776C106.046 47.5596 106.216 45.4243 106.545 41.3826C106.566 41.0951 106.816 40.8768 107.109 40.8821C109.346 40.9247 110.648 40.9513 112.694 40.9939C112.906 40.9939 113.262 40.9194 113.315 40.4135C113.427 39.029 113.512 38.0386 113.623 36.6541C113.661 36.2121 113.56 35.9831 113.166 35.9299V35.9246Z" fill="white"/>
<g style="mix-blend-mode:multiply" opacity="0.3">
<path d="M93.8183 32.0637C92.5749 30.7857 91.1029 29.742 89.4449 28.9646C87.7976 28.1871 86.0014 27.7718 84.1043 27.7292C82.2072 27.6866 80.3899 28.0221 78.7053 28.725C77.0155 29.4332 75.5169 30.4183 74.2522 31.6537C72.9928 32.8891 71.9725 34.3534 71.2285 36.0042C70.4899 37.6443 70.1073 39.4228 70.0913 41.2759C70.0754 43.1663 70.4314 44.9768 71.1488 46.6541C71.8609 48.3368 72.8493 49.8278 74.0715 51.0792C75.2991 52.3305 76.7604 53.3423 78.4131 54.0825C80.0604 54.8226 81.8512 55.2007 83.7217 55.2167C85.5976 55.2327 87.3831 54.8812 89.0357 54.1783C90.6937 53.4701 92.1816 52.4956 93.4623 51.2815C94.7376 50.0674 95.7739 48.6244 96.5338 46.9843C97.2937 45.3442 97.6975 43.571 97.7347 41.7126C97.7719 39.8861 97.4372 38.1289 96.741 36.4781C96.0449 34.8274 95.0565 33.3417 93.813 32.0637H93.8183ZM90.0294 43.9384C89.6787 44.6573 89.2164 45.3016 88.6425 45.8501C88.0686 46.4039 87.4043 46.8405 86.6657 47.144C85.9217 47.4529 85.1406 47.6073 84.3435 47.5966C83.5145 47.586 82.7174 47.4103 81.9841 47.0801C81.256 46.7553 80.6024 46.2974 80.0445 45.7276C79.4865 45.1578 79.0454 44.4922 78.7319 43.7573C78.4184 43.0172 78.2643 42.2184 78.2749 41.3824C78.2855 40.5837 78.4556 39.8062 78.785 39.0767C79.1145 38.3525 79.5715 37.7029 80.1454 37.1437C80.714 36.5953 81.3783 36.148 82.1169 35.8285C82.8662 35.4983 83.6739 35.3439 84.5135 35.3599C85.3212 35.3758 86.1024 35.5622 86.8464 35.919C87.5744 36.2704 88.2227 36.7337 88.7807 37.3035C89.3333 37.8733 89.7797 38.5282 90.1092 39.2577C90.4386 40.0032 90.6034 40.7807 90.5874 41.5794C90.5715 42.4101 90.3855 43.1982 90.0294 43.9331V43.9384Z" fill="black"/>
</g>
<path d="M82.6218 53.9759C80.6715 53.96 78.8116 53.5606 77.0899 52.7938C75.3682 52.027 73.8537 50.9727 72.5783 49.6734C71.3029 48.3688 70.2827 46.8245 69.5387 45.0779C68.7947 43.326 68.4281 41.4463 68.4387 39.4814C68.4546 37.5484 68.8532 35.7007 69.6237 33.986C70.3943 32.2767 71.4517 30.7538 72.7643 29.4704C74.0769 28.1818 75.6339 27.1594 77.3875 26.4246C79.0401 25.7323 80.8203 25.3809 82.6749 25.3809C82.7865 25.3809 82.9034 25.3809 83.015 25.3809C84.9865 25.4235 86.857 25.8601 88.5788 26.6695C90.2952 27.4789 91.8203 28.5545 93.1116 29.8805C94.4029 31.2064 95.4232 32.7453 96.1512 34.4653C96.8792 36.1852 97.2246 38.0223 97.1874 39.9234C97.1502 41.8616 96.7251 43.7094 95.9333 45.4134C95.1468 47.1121 94.0734 48.619 92.7449 49.881C91.4164 51.1431 89.8754 52.1548 88.1536 52.8843C86.4691 53.6032 84.6464 53.9653 82.7493 53.9653H82.6218V53.9759ZM83.3019 34.1245C82.5792 34.1245 81.8831 34.2682 81.2401 34.5505C80.5652 34.8487 79.9541 35.2534 79.4334 35.7592C78.9126 36.2651 78.4928 36.8562 78.1952 37.5218C77.8976 38.1821 77.7382 38.885 77.7329 39.6039C77.7223 40.36 77.8657 41.0842 78.1474 41.7551C78.4343 42.4261 78.8329 43.0331 79.343 43.555C79.8532 44.0768 80.4483 44.4922 81.1126 44.7904C81.7821 45.0886 82.4995 45.2483 83.2541 45.259H83.3179C84.014 45.259 84.6995 45.1205 85.3585 44.8489C86.0333 44.5667 86.6391 44.1674 87.1652 43.6668C87.686 43.1609 88.1164 42.5752 88.4353 41.9096C88.7541 41.2493 88.9242 40.5357 88.9348 39.7902C88.9454 39.0767 88.8019 38.3738 88.5044 37.7028C88.2068 37.0319 87.7976 36.4302 87.2874 35.9083C86.7773 35.3865 86.1821 34.9605 85.5126 34.6357C84.843 34.3162 84.1363 34.1458 83.4082 34.1298H83.3073L83.3019 34.1245Z" fill="#92D7AE"/>
<path d="M92.3039 29.7209C91.0605 28.4429 89.5885 27.3993 87.9305 26.6218C86.2832 25.8444 84.4817 25.429 82.59 25.3864C80.6929 25.3438 78.8755 25.6793 77.1909 26.3822C75.5011 27.0904 74.0025 28.0755 72.7431 29.3109C71.4784 30.5463 70.4634 32.0107 69.7195 33.6614C68.9808 35.3015 68.5982 37.08 68.5823 38.9331C68.5716 40.8235 68.9224 42.634 69.6398 44.3114C70.3518 45.994 71.3402 47.485 72.5625 48.7364C73.79 49.9878 75.2513 50.9995 76.904 51.7397C78.5513 52.4799 80.3421 52.8579 82.2127 52.8739C84.0885 52.8899 85.874 52.5384 87.5267 51.8355C89.1846 51.1273 90.6779 50.1528 91.9532 48.9388C93.2286 47.7247 94.2648 46.2816 95.0194 44.6415C95.7793 43.0014 96.1832 41.2282 96.2204 39.3698C96.2576 37.5433 95.9228 35.7861 95.2266 34.1353C94.5305 32.4846 93.5421 30.9989 92.2986 29.7209H92.3039ZM88.5151 41.5903C88.1643 42.3092 87.702 42.9535 87.1281 43.502C86.5542 44.0558 85.89 44.4924 85.1513 44.7959C84.4073 45.1048 83.6262 45.2592 82.8291 45.2485C81.9948 45.2379 81.203 45.0622 80.4697 44.732C79.7417 44.4072 79.088 43.9493 78.5301 43.3795C77.9721 42.8097 77.531 42.1441 77.2175 41.4092C76.904 40.6691 76.7499 39.8703 76.7552 39.0343C76.7658 38.2356 76.9359 37.4581 77.2653 36.7286C77.5948 36.0044 78.0518 35.3548 78.6257 34.7956C79.1943 34.2472 79.8586 33.7999 80.5972 33.4804C81.3465 33.1555 82.1542 32.9958 82.9938 33.0118C83.8015 33.0277 84.5827 33.2141 85.3214 33.5709C86.0494 33.9223 86.6977 34.3856 87.2556 34.9554C87.8083 35.5252 88.2547 36.1801 88.5841 36.9096C88.9136 37.6551 89.0784 38.4326 89.0624 39.2313C89.0465 40.062 88.8605 40.8501 88.5044 41.585L88.5151 41.5903Z" fill="white"/>
<g style="mix-blend-mode:multiply" opacity="0.3">
<path d="M145.556 53.8059C144.87 52.7835 143.983 51.8836 142.92 51.1488C141.862 50.4139 140.661 49.9134 139.365 49.6631C138.796 49.5513 138.222 49.4874 137.664 49.4767C136.915 49.4608 136.166 49.5353 135.438 49.695C134.162 49.9773 132.967 50.4725 131.893 51.1647C130.82 51.857 129.895 52.7409 129.135 53.7953C128.381 54.8443 127.86 56.0264 127.584 57.3044C127.302 58.6144 127.286 59.903 127.546 61.1278C127.807 62.3632 128.29 63.508 128.976 64.5357C129.667 65.5635 130.549 66.4474 131.59 67.1556C132.632 67.8638 133.828 68.3431 135.156 68.588C135.719 68.6945 136.288 68.7478 136.846 68.7584C137.569 68.7691 138.302 68.6945 139.019 68.5348C140.295 68.2579 141.485 67.768 142.553 67.0757C143.621 66.3835 144.557 65.5102 145.332 64.4772C146.103 63.4548 146.645 62.2833 146.937 60.9893C147.224 59.7273 147.24 58.4653 146.98 57.2299C146.719 55.9838 146.236 54.8336 145.55 53.8113L145.556 53.8059ZM140.672 59.7859C140.465 60.7018 139.949 61.426 139.136 61.9372C138.52 62.3259 137.856 62.5123 137.165 62.5016C136.952 62.5016 136.734 62.475 136.516 62.4377C135.581 62.262 134.848 61.7881 134.338 61.0213C133.828 60.2598 133.668 59.4078 133.87 58.4919C134.072 57.576 134.577 56.8465 135.369 56.314C135.985 55.904 136.655 55.7016 137.361 55.7176C137.569 55.7176 137.781 55.7442 137.994 55.7815C138.929 55.9625 139.668 56.4524 140.194 57.2352C140.72 58.018 140.879 58.8753 140.672 59.7859Z" fill="black"/>
</g>
<path d="M135.74 67.5066C135.15 67.5013 134.55 67.4374 133.955 67.3309C132.552 67.0699 131.282 66.5587 130.182 65.8132C129.077 65.0624 128.147 64.1306 127.419 63.0443C126.691 61.958 126.18 60.7439 125.904 59.4446C125.628 58.14 125.644 56.7768 125.941 55.3923C126.234 54.0397 126.786 52.7884 127.583 51.6808C128.38 50.5679 129.358 49.636 130.49 48.9065C131.617 48.177 132.871 47.6604 134.21 47.3622C134.906 47.2078 135.629 47.1279 136.346 47.1279C136.421 47.1279 136.495 47.1279 136.564 47.1279C137.154 47.1439 137.754 47.2078 138.355 47.325C139.731 47.5912 141.001 48.1237 142.122 48.9011C143.244 49.6786 144.179 50.6211 144.902 51.7074C145.624 52.7884 146.134 54.0078 146.411 55.3231C146.687 56.6383 146.671 57.9802 146.368 59.3168C146.055 60.6853 145.481 61.9313 144.668 63.0123C143.849 64.0933 142.872 65.0145 141.745 65.7387C140.624 66.4682 139.37 66.9847 138.031 67.2776C137.313 67.432 136.58 67.5119 135.852 67.5119H135.735L135.74 67.5066ZM136.197 54.4764C135.623 54.4764 135.081 54.6468 134.577 54.9823C133.907 55.4296 133.477 56.0473 133.307 56.8194C133.136 57.5968 133.259 58.2837 133.689 58.9227C134.114 59.5564 134.731 59.9558 135.512 60.1049C135.692 60.1368 135.878 60.1581 136.064 60.1635C136.676 60.1635 137.223 59.9984 137.733 59.6789C138.419 59.2476 138.854 58.6405 139.024 57.8737C139.2 57.1016 139.067 56.4094 138.626 55.7491C138.185 55.0941 137.563 54.6841 136.777 54.535C136.596 54.503 136.415 54.4817 136.24 54.4764H136.181H136.197Z" fill="#92D7AE"/>
<path d="M144.041 51.4573C143.355 50.4349 142.468 49.535 141.405 48.8001C140.348 48.0653 139.147 47.5647 137.85 47.3145C137.282 47.2026 136.708 47.1387 136.15 47.1281C135.4 47.1121 134.651 47.1867 133.923 47.3464C132.648 47.6286 131.452 48.1239 130.379 48.8161C129.305 49.5084 128.381 50.3923 127.621 51.4466C126.871 52.4957 126.345 53.6778 126.069 54.9558C125.782 56.2657 125.771 57.5544 126.032 58.7791C126.292 60.0145 126.776 61.1594 127.461 62.1871C128.152 63.2148 129.034 64.0988 130.076 64.807C131.112 65.5152 132.313 65.9945 133.641 66.2394C134.205 66.3459 134.773 66.3992 135.331 66.4098C136.054 66.4205 136.787 66.3459 137.505 66.1862C138.78 65.9093 139.97 65.4194 141.038 64.7271C142.107 64.0349 143.042 63.1616 143.818 62.1285C144.588 61.1061 145.13 59.9346 145.423 58.6407C145.709 57.3787 145.725 56.1166 145.465 54.8813C145.205 53.6352 144.721 52.485 144.036 51.4626L144.041 51.4573ZM139.157 57.4426C138.95 58.3585 138.435 59.0827 137.622 59.5938C137.005 59.9826 136.341 60.1689 135.65 60.1583C135.438 60.1583 135.22 60.1317 135.002 60.0944C134.067 59.9187 133.333 59.4447 132.823 58.678C132.313 57.9165 132.153 57.0645 132.355 56.1486C132.557 55.2327 133.062 54.5032 133.854 53.9707C134.47 53.5607 135.14 53.3583 135.847 53.3743C136.054 53.3743 136.267 53.4009 136.479 53.4382C137.414 53.6192 138.158 54.1091 138.679 54.8919C139.205 55.6747 139.365 56.532 139.157 57.4426Z" fill="white"/>
<g style="mix-blend-mode:multiply" opacity="0.3">
<path d="M160.307 27.4367C157.586 26.7338 156.189 26.3717 153.42 25.6581C152.91 25.541 152.676 25.9617 152.644 26.0895C152.469 26.8349 152.395 27.1491 152.198 28.0011C152.139 28.2514 151.9 28.4271 151.635 28.4165C151.613 28.4165 151.587 28.4165 151.566 28.4111C148.064 27.8627 146.246 27.5751 142.872 27.0479C142.452 26.9734 142.42 27.1864 142.404 27.2769C142.319 27.7615 142.261 28.0863 142.16 28.6454C142.117 28.8851 141.91 29.0661 141.66 29.0874C141.639 29.0874 141.612 29.0874 141.591 29.0874C141.368 29.0821 141.166 28.9383 141.092 28.7306C140.406 26.8136 139.264 25.115 137.696 23.6826C136.134 22.2608 134.242 21.3076 132.068 20.855C131.351 20.7059 130.639 20.6207 129.938 20.5941C129.002 20.5621 128.067 20.6367 127.158 20.8231C125.559 21.1532 124.082 21.7443 122.764 22.5909C121.44 23.4376 120.298 24.5133 119.357 25.7966C118.422 27.0692 117.784 28.507 117.455 30.0619C117.11 31.6807 117.104 33.2782 117.439 34.8118C117.774 36.3507 118.374 37.7724 119.23 39.0398C120.085 40.3071 121.185 41.4041 122.498 42.304C123.8 43.1986 125.304 43.8163 126.962 44.1411C127.69 44.2849 128.423 44.3647 129.14 44.3807C130.602 44.4127 132.047 44.1837 133.455 43.6938C135.554 42.9643 137.34 41.7875 138.769 40.2006C138.881 40.0781 139.04 40.0089 139.205 40.0142C139.285 40.0142 139.359 40.0355 139.434 40.0675C139.657 40.174 139.779 40.4136 139.721 40.6479C139.604 41.1804 139.529 41.4946 139.428 41.9472C139.343 42.2507 139.582 42.304 139.689 42.3306C142.957 43.0548 144.7 43.4382 148.064 44.1837C148.351 44.2476 148.531 44.5192 148.473 44.7961C148.25 45.8238 147.888 47.5331 147.888 47.5384C147.878 47.6982 147.92 47.9112 148.17 47.9751C148.17 47.9751 151.682 48.6726 153.808 49.088C154.015 49.1306 154.409 49.2318 154.632 48.6247C156.688 41.8034 158.681 35.2484 160.769 28.4378C160.897 28.0171 160.95 27.6071 160.307 27.426V27.4367ZM134.391 33.4645C134.263 34.0396 134.019 34.5721 133.663 35.0461C133.312 35.5093 132.882 35.9087 132.382 36.2229C131.882 36.537 131.351 36.7607 130.788 36.8885C130.453 36.963 130.108 37.0003 129.762 36.9897C129.518 36.9843 129.268 36.9524 129.018 36.9045C127.791 36.6595 126.824 36.0099 126.143 34.9768C125.463 33.9438 125.245 32.8362 125.495 31.6807C125.623 31.1002 125.862 30.5678 126.218 30.0938C126.563 29.6306 126.983 29.2365 127.461 28.917C127.95 28.5922 128.503 28.3685 129.109 28.2514C129.454 28.1822 129.805 28.1555 130.145 28.1662C130.405 28.1768 130.66 28.2035 130.915 28.2567C131.516 28.3792 132.063 28.6135 132.536 28.9543C132.998 29.2844 133.397 29.6945 133.716 30.1737C134.04 30.6583 134.268 31.1854 134.385 31.7392C134.508 32.3037 134.508 32.8841 134.38 33.4645H134.391ZM150.652 34.8544C150.391 36.0631 150.264 36.6648 150.009 37.8683C149.955 38.1239 149.711 38.3049 149.445 38.2943C149.424 38.2943 149.403 38.2943 149.381 38.2943C146.209 37.8417 144.62 37.618 141.448 37.1707C141.278 37.1494 141.134 37.0482 141.049 36.9098C140.964 36.766 140.959 36.5956 141.023 36.4465C141.235 35.9619 141.405 35.4401 141.527 34.9076C141.682 34.2207 141.761 33.587 141.751 33.0226C141.751 32.8575 141.825 32.7031 141.958 32.6019C142.064 32.522 142.192 32.4794 142.324 32.4847C142.362 32.4847 142.399 32.4847 142.431 32.4954C145.561 33.193 147.123 33.5444 150.242 34.242C150.529 34.3059 150.71 34.5775 150.652 34.8544Z" fill="black"/>
</g>
<path d="M152.953 47.8893C152.814 47.8893 152.698 47.868 152.618 47.852C151.975 47.7242 146.969 46.7338 146.932 46.7285C146.475 46.6113 146.204 46.2173 146.236 45.722C146.236 45.6954 146.236 45.6688 146.831 42.8998L138.467 41.0893C138.366 41.068 138.047 40.9988 137.866 40.6953C137.787 40.5622 137.707 40.3332 137.792 40.019L138.079 38.7463C136.58 40.445 134.715 41.6697 132.531 42.4312C131.16 42.9105 129.741 43.1501 128.322 43.1501C128.221 43.1501 128.126 43.1501 128.025 43.1501C127.281 43.1341 126.516 43.0489 125.75 42.8998C124.018 42.559 122.45 41.9147 121.085 40.9775C119.714 40.0403 118.566 38.8901 117.673 37.5695C116.775 36.2436 116.148 34.7579 115.797 33.1498C115.446 31.5363 115.452 29.859 115.813 28.1656C116.164 26.5309 116.833 25.0239 117.811 23.6927C118.789 22.3561 119.985 21.2325 121.366 20.3486C122.743 19.47 124.284 18.8469 125.947 18.5061C126.749 18.3411 127.578 18.2559 128.413 18.2559C128.561 18.2559 128.71 18.2559 128.859 18.2612C129.592 18.2878 130.336 18.3783 131.08 18.5328C133.349 19.0014 135.331 19.9971 136.968 21.4881C138.605 22.9791 139.795 24.7523 140.513 26.7598L140.72 25.6522L140.768 25.3913C140.842 24.9493 141.161 24.6937 141.613 24.6937C141.687 24.6937 141.772 24.6991 141.873 24.7204C141.873 24.7204 147.33 25.5777 150.556 26.0836L151.018 24.1826C151.098 23.8418 151.475 23.3039 152.156 23.3039C152.251 23.3039 152.352 23.3146 152.453 23.3412L159.351 25.1251C159.744 25.2369 160.02 25.4286 160.174 25.7108C160.382 26.0889 160.307 26.4883 160.206 26.8344C158.235 33.2563 156.285 39.6729 154.069 47.0213C153.782 47.7988 153.256 47.9106 152.969 47.9106L152.953 47.8893ZM141.193 31.2435C141.209 31.8239 141.129 32.5002 140.964 33.235C140.837 33.8048 140.656 34.3532 140.428 34.8698C143.504 35.2638 145.088 35.4875 148.074 35.9135L148.361 35.9561L148.648 34.6887L149.02 32.9474L143.09 31.6588L141.209 31.2381C141.209 31.2381 141.203 31.2381 141.198 31.2381L141.193 31.2435ZM128.902 26.9196C128.641 26.9196 128.375 26.9462 128.115 26.9941C127.584 27.0953 127.095 27.2923 126.67 27.5746C126.245 27.8568 125.873 28.2082 125.564 28.6236C125.261 29.0336 125.049 29.4969 124.937 29.9974C124.719 30.9985 124.911 31.9677 125.506 32.8729C126.101 33.7835 126.951 34.3479 128.03 34.5662C128.248 34.6088 128.466 34.6355 128.678 34.6408H128.779C129.045 34.6408 129.311 34.6142 129.566 34.5556C130.065 34.4438 130.544 34.2467 130.985 33.9645C131.426 33.6876 131.808 33.3362 132.116 32.9208C132.425 32.5108 132.637 32.0529 132.749 31.5523C132.86 31.0518 132.86 30.5565 132.754 30.0666C132.648 29.5767 132.451 29.1135 132.164 28.6875C131.877 28.2615 131.527 27.8994 131.117 27.6065C130.708 27.3136 130.235 27.1113 129.709 26.9995C129.481 26.9515 129.252 26.9249 129.029 26.9196H128.896H128.902Z" fill="#92D7AE"/>
<path d="M158.787 25.088C156.067 24.3851 154.669 24.023 151.901 23.3095C151.39 23.1923 151.157 23.613 151.125 23.7408C150.949 24.4863 150.875 24.8005 150.678 25.6525C150.62 25.9028 150.375 26.0785 150.115 26.0678C150.094 26.0678 150.067 26.0678 150.046 26.0625C146.544 25.514 144.727 25.2265 141.352 24.6993C140.932 24.6248 140.901 24.8378 140.885 24.9283C140.8 25.4129 140.741 25.7377 140.64 26.2968C140.598 26.5364 140.39 26.7175 140.135 26.7388C140.114 26.7388 140.093 26.7388 140.066 26.7388C139.843 26.7335 139.641 26.5897 139.567 26.382C138.881 24.465 137.739 22.7664 136.171 21.3339C134.609 19.9122 132.717 18.959 130.544 18.5064C129.832 18.3573 129.114 18.2721 128.413 18.2455C127.477 18.2135 126.542 18.2881 125.633 18.4744C124.034 18.8046 122.557 19.3956 121.239 20.2423C119.916 21.089 118.768 22.1646 117.833 23.4479C116.897 24.7206 116.26 26.1584 115.93 27.7132C115.585 29.332 115.579 30.9295 115.914 32.4631C116.249 34.002 116.849 35.4238 117.705 36.6911C118.561 37.9585 119.661 39.0554 120.973 39.9553C122.28 40.8499 123.779 41.4676 125.437 41.7925C126.165 41.9362 126.898 42.0161 127.616 42.0321C129.072 42.064 130.522 41.8351 131.925 41.3452C134.024 40.6156 135.81 39.4388 137.239 37.852C137.351 37.7295 137.51 37.6603 137.675 37.6656C137.749 37.6656 137.829 37.6869 137.903 37.7189C138.127 37.8254 138.244 38.065 138.19 38.2993C138.074 38.8318 137.999 39.146 137.898 39.5986C137.813 39.9021 138.047 39.9554 138.159 39.982C141.427 40.7062 143.164 41.0896 146.533 41.8351C146.82 41.899 147.001 42.1705 146.943 42.4474C146.725 43.4752 146.358 45.1845 146.358 45.1898C146.347 45.3495 146.39 45.5625 146.64 45.6264C146.64 45.6264 150.152 46.324 152.278 46.7394C152.485 46.782 152.878 46.8831 153.101 46.2761C155.158 39.4548 157.151 32.8998 159.239 26.0891C159.367 25.6685 159.42 25.2584 158.777 25.0774L158.787 25.088ZM132.876 31.1212C132.749 31.6963 132.504 32.2288 132.148 32.7027C131.798 33.166 131.367 33.5654 130.873 33.8796C130.374 34.1937 129.837 34.4174 129.279 34.5452C128.944 34.6197 128.599 34.657 128.253 34.6464C128.009 34.641 127.759 34.6091 127.509 34.5612C126.282 34.3162 125.315 33.6666 124.634 32.6335C123.954 31.6005 123.736 30.4929 123.986 29.3374C124.114 28.7569 124.353 28.2244 124.709 27.7505C125.054 27.2872 125.474 26.8932 125.952 26.5737C126.441 26.2489 126.994 26.0252 127.6 25.9081C127.945 25.8442 128.296 25.8122 128.636 25.8229C128.896 25.8335 129.151 25.8602 129.406 25.9134C130.007 26.0359 130.554 26.2702 131.027 26.611C131.489 26.9411 131.888 27.3511 132.207 27.8304C132.531 28.315 132.76 28.8421 132.876 29.3959C132.999 29.9604 132.999 30.5408 132.871 31.1212H132.876ZM149.137 32.511C148.877 33.7198 148.755 34.3215 148.494 35.525C148.441 35.7806 148.197 35.9616 147.931 35.951C147.91 35.951 147.888 35.951 147.867 35.951C144.695 35.4984 143.106 35.2747 139.933 34.8274C139.763 34.8061 139.62 34.7049 139.535 34.5665C139.45 34.4227 139.439 34.2523 139.508 34.1032C139.721 33.6186 139.891 33.0968 140.013 32.5643C140.167 31.8774 140.247 31.2437 140.236 30.6793C140.236 30.5142 140.311 30.3598 140.444 30.2586C140.55 30.1787 140.677 30.1361 140.81 30.1414C140.847 30.1414 140.879 30.1414 140.916 30.1574C144.046 30.855 145.609 31.2064 148.728 31.904C149.015 31.9679 149.196 32.2395 149.137 32.5164V32.511Z" fill="white"/>
</g>
<defs>
<clipPath id="clip0_129_6778">
<rect width="181" height="73" fill="white" transform="translate(0 0.444336)"/>
</clipPath>
</defs>
</svg>
