<svg width="217" height="74" viewBox="0 0 217 74" fill="none" xmlns="http://www.w3.org/2000/svg">
<g clip-path="url(#clip0_129_6763)">
<path d="M7.50942 58.6128C6.70177 57.2551 4.68551 57.4098 4.09553 58.8763L0.257761 68.4374C0.257761 68.4374 0.252033 68.4546 0.246305 68.4661C0.0916482 68.8728 0 69.3254 0 69.7951C0 71.8001 1.72986 73.4442 3.74612 73.4442H12.9854C14.4632 73.4442 15.3797 71.8402 14.6293 70.5742L7.51515 58.6128H7.50942Z" fill="#70BE90"/>
<path d="M51.4033 2.73006C50.8878 1.44112 49.6448 0.51308 48.1842 0.444336H32.5181L60.8603 71.0555C61.4388 72.4991 62.8422 73.4443 64.4059 73.4443H74.2753C76.9159 73.4443 78.7259 70.7862 77.7464 68.3401L51.4033 2.73006Z" fill="#92D7AE"/>
<path d="M71.8348 35.9277H31.2862L26.4804 47.9063C26.3143 48.3245 26.2227 48.7828 26.2227 49.2583C26.2227 51.2747 27.8609 52.9074 29.8829 52.9074H75.7184C78.359 52.9074 80.1691 50.2493 79.1896 47.8032L75.3805 38.3166C74.8019 36.873 73.3986 35.9277 71.8348 35.9277Z" fill="#92D7AE"/>
<path d="M29.9173 0.444336C28.3764 0.444336 27.059 1.39529 26.5148 2.73579L11.8282 39.3532L8.40284 47.8889C8.40284 47.8889 8.40284 47.8946 8.40284 47.9003C8.16799 48.4847 8.07634 49.1492 8.18518 49.8424C8.46012 51.6068 10.0181 52.9129 11.811 52.9129C11.8225 52.9129 11.8282 52.9129 11.8396 52.9129H24.4814H29.8943C27.8724 52.9129 26.2341 51.2802 26.2341 49.2638C26.2341 48.7883 26.3258 48.33 26.4919 47.9118L29.923 39.3647L44.6039 2.72433V2.74152C45.1423 1.39529 46.4597 0.444336 48.0063 0.444336H29.9173Z" fill="#70BE90"/>
<path d="M104.908 5.50801H99.5469L89.0933 28.8808H94.6552L96.7344 23.874H107.623L109.703 28.8808H115.402L104.914 5.50801H104.908ZM98.4757 19.7666L102.193 10.8185L105.911 19.7666H98.47H98.4757ZM149.512 14.9259C151.156 14.9259 152.594 15.6935 153.568 17.3949L157.623 15.2238C156.317 12.285 153.333 10.6466 149.547 10.6466C143.681 10.6466 139.494 14.4848 139.494 19.8983C139.494 25.3119 143.681 29.1501 149.547 29.1501C153.333 29.1501 156.317 27.4831 157.623 24.6073L153.568 22.4018C152.594 24.1375 151.156 24.8708 149.512 24.8708C146.866 24.8708 144.787 23.0319 144.787 19.8926C144.787 16.7533 146.866 14.9144 149.512 14.9144V14.9259ZM135.903 28.8808V18.5979C135.903 13.1214 132.683 10.6523 128.428 10.6523C125.982 10.6523 123.868 11.4887 122.465 13.024V10.9216H117.47V28.8866H122.7V20.0015C122.7 16.696 124.51 15.1608 127.024 15.1608C129.338 15.1608 130.679 16.4955 130.679 19.4V28.8808H135.908H135.903ZM192.438 29.1501C198.166 29.1501 202.325 25.3119 202.325 19.8983C202.325 14.4848 198.172 10.6466 192.438 10.6466C186.704 10.6466 182.517 14.4848 182.517 19.8983C182.517 25.3119 186.704 29.1501 192.438 29.1501ZM192.438 14.9259C195.05 14.9259 197.032 16.7934 197.032 19.9041C197.032 23.0147 195.056 24.8823 192.438 24.8823C189.82 24.8823 187.816 23.0147 187.816 19.9041C187.816 16.7934 189.826 14.9259 192.438 14.9259ZM210.802 13.2875V10.9158H205.807V28.8808H211.037V20.3967C211.037 16.9596 212.944 15.3899 215.831 15.3899C216.232 15.3899 216.57 15.4243 217.006 15.4586V10.6523C214.222 10.6523 212.079 11.5517 210.808 13.2932L210.802 13.2875ZM173.707 19.4V28.8808H178.937V18.5979C178.937 13.1214 175.718 10.6523 171.462 10.6523C169.148 10.6523 167.137 11.3856 165.734 12.7891V4.10449H160.504V28.8808H165.734V19.9957C165.734 16.6903 167.544 15.155 170.059 15.155C172.373 15.155 173.713 16.4898 173.713 19.3942L173.707 19.4Z" fill="#70BE90"/>
<path d="M115.517 40.6884C117.041 41.3758 118.215 42.3497 119.04 43.6157C119.865 44.8817 120.277 46.3769 120.277 48.107C120.277 49.837 119.865 51.3093 119.04 52.581C118.215 53.8585 117.041 54.8324 115.517 55.5084C113.993 56.1843 112.195 56.5223 110.127 56.5223H105.418V62.9441H100.011V39.6572H110.127C112.195 39.6572 113.993 40.0009 115.517 40.6884ZM113.529 51.0859C114.377 50.387 114.801 49.3959 114.801 48.107C114.801 46.818 114.377 45.7926 113.529 45.0937C112.682 44.3948 111.45 44.0454 109.823 44.0454H105.418V52.1285H109.823C111.45 52.1285 112.682 51.779 113.529 51.0801V51.0859Z" fill="#70BE90"/>
<path d="M124.08 38.2588H129.287V62.9435H124.08V38.2588Z" fill="#70BE90"/>
<path d="M147.788 46.7603C149.278 48.0779 150.028 50.0714 150.028 52.7295V62.9437H145.154V60.7153C144.174 62.3766 142.347 63.2129 139.678 63.2129C138.297 63.2129 137.1 62.9781 136.086 62.514C135.072 62.05 134.299 61.4027 133.766 60.5835C133.234 59.7643 132.964 58.8305 132.964 57.7879C132.964 56.1266 133.594 54.8148 134.849 53.8638C136.103 52.9129 138.051 52.4316 140.674 52.4316H144.816C144.816 51.3031 144.472 50.4324 143.779 49.8194C143.086 49.2122 142.055 48.9028 140.674 48.9028C139.718 48.9028 138.778 49.0518 137.85 49.3496C136.928 49.6475 136.143 50.0543 135.496 50.5641L133.629 46.9379C134.608 46.2505 135.783 45.7177 137.152 45.3396C138.521 44.9615 139.93 44.7725 141.373 44.7725C144.157 44.7725 146.293 45.4313 147.783 46.7546L147.788 46.7603ZM143.344 59.0998C144.031 58.6873 144.523 58.0858 144.81 57.2838V55.4564H141.236C139.099 55.4564 138.028 56.1553 138.028 57.5531C138.028 58.2176 138.291 58.7446 138.813 59.1342C139.334 59.5237 140.056 59.7185 140.966 59.7185C141.877 59.7185 142.645 59.5122 143.338 59.1055L143.344 59.0998Z" fill="#70BE90"/>
<path d="M172.23 45.0479L164.119 64.044C163.294 66.1063 162.275 67.5614 161.066 68.4035C159.852 69.2456 158.391 69.6695 156.673 69.6695C155.739 69.6695 154.817 69.5263 153.9 69.2399C152.99 68.9534 152.239 68.5524 151.661 68.0426L153.562 64.3476C153.963 64.7028 154.427 64.9778 154.949 65.1783C155.47 65.3788 155.991 65.4762 156.501 65.4762C157.211 65.4762 157.79 65.3043 158.236 64.9606C158.683 64.6169 159.084 64.044 159.439 63.2477L159.508 63.0816L151.729 45.0479H157.102L162.143 57.1926L167.218 45.0479H172.224H172.23Z" fill="#70BE90"/>
<path d="M191.362 55.4624H177.775C178.021 56.5737 178.6 57.4502 179.51 58.0918C180.421 58.7334 181.555 59.0542 182.918 59.0542C183.852 59.0542 184.683 58.9167 185.404 58.636C186.126 58.361 186.802 57.9199 187.426 57.3242L190.199 60.3202C188.509 62.2508 186.034 63.2132 182.787 63.2132C180.759 63.2132 178.966 62.8179 177.408 62.0331C175.85 61.2483 174.647 60.1541 173.799 58.7563C172.952 57.3585 172.528 55.7717 172.528 54.0016C172.528 52.2314 172.946 50.6675 173.782 49.2582C174.619 47.849 175.764 46.7548 177.219 45.9643C178.674 45.1795 180.306 44.7842 182.111 44.7842C183.915 44.7842 185.462 45.1623 186.888 45.9127C188.314 46.6689 189.431 47.7459 190.245 49.1551C191.058 50.5644 191.465 52.197 191.465 54.0646C191.465 54.1333 191.43 54.5973 191.367 55.4624H191.362ZM179.172 49.7051C178.37 50.3696 177.884 51.2805 177.7 52.4319H186.55C186.372 51.3034 185.88 50.3982 185.084 49.7223C184.282 49.0463 183.302 48.7083 182.145 48.7083C180.988 48.7083 179.974 49.0406 179.172 49.7051Z" fill="#70BE90"/>
<path d="M202.428 45.4428C203.488 45.0017 204.702 44.7783 206.083 44.7783V49.5675C205.504 49.5216 205.115 49.4987 204.914 49.4987C203.425 49.4987 202.256 49.9169 201.409 50.7476C200.561 51.5782 200.137 52.8271 200.137 54.4884V62.9381H194.93V45.0361H199.908V47.3963C200.532 46.5313 201.368 45.8782 202.428 45.4314V45.4428Z" fill="#70BE90"/>
</g>
<defs>
<clipPath id="clip0_129_6763">
<rect width="217" height="73" fill="white" transform="translate(0 0.444336)"/>
</clipPath>
</defs>
</svg>
