<svg width="227" height="74" viewBox="0 0 227 74" fill="none" xmlns="http://www.w3.org/2000/svg">
<g clip-path="url(#clip0_129_6757)">
<path d="M7.4828 58.611C6.67787 57.257 4.66855 57.4121 4.08424 58.8734L0.256383 68.4346C0.256383 68.4346 0.25042 68.4525 0.244458 68.4584C0.0894358 68.8759 0 69.3233 0 69.7945C0 71.8045 1.72313 73.4448 3.73245 73.4448H12.9384C14.4111 73.4448 15.3233 71.8403 14.5721 70.5758L7.4828 58.611Z" fill="#70BE90"/>
<path d="M51.205 2.72875C50.6863 1.44041 49.452 0.51591 47.9913 0.444336H32.3877L60.6196 71.0526C61.198 72.496 62.5931 73.4443 64.1493 73.4443H73.9813C76.6167 73.4443 78.4173 70.7842 77.4395 68.3387L51.205 2.72875Z" fill="#92D7AE"/>
<path d="M29.7999 0.444336C28.2675 0.444336 26.9498 1.3927 26.4132 2.73472L11.7815 39.357L8.37103 47.8923C8.37103 47.8923 8.37103 47.8982 8.37103 47.9042C8.1385 48.4887 8.04906 49.1508 8.15639 49.8427C8.43066 51.6022 9.98088 52.9144 11.7636 52.9144C11.7696 52.9144 11.7815 52.9144 11.7875 52.9144H24.38H29.77C27.7548 52.9144 26.1211 51.2801 26.1211 49.2641C26.1211 48.7869 26.2105 48.3277 26.3774 47.9101L29.7939 39.363L44.4315 2.72279V2.74068C44.9682 1.3927 46.2799 0.444336 47.8182 0.444336L29.7999 0.444336Z" fill="#70BE90"/>
<path d="M71.5544 35.9278H31.1652L26.3833 47.9046C26.2164 48.3222 26.127 48.7814 26.127 49.2586C26.127 51.2746 27.7606 52.9089 29.7759 52.9089H75.4299C78.0653 52.9089 79.8659 50.2487 78.8881 47.8032L75.096 38.3137C74.5177 36.8702 73.1225 35.9219 71.5663 35.9219L71.5544 35.9278Z" fill="#92D7AE"/>
<path d="M115.348 5.50811H110.006L99.5897 28.8831H105.129L107.198 23.8729H118.049L120.118 28.8831H125.794L115.348 5.50811ZM108.939 19.7693L112.641 10.8225L116.344 19.7693H108.933H108.939ZM159.774 14.9261C161.408 14.9261 162.845 15.6955 163.811 17.3954L167.847 15.2243C166.547 12.2838 163.572 10.6495 159.804 10.6495C153.961 10.6495 149.787 14.4907 149.787 19.9005C149.787 25.3104 153.961 29.1515 159.804 29.1515C163.578 29.1515 166.547 27.4815 167.847 24.6125L163.811 22.4116C162.845 24.1473 161.408 24.8809 159.774 24.8809C157.139 24.8809 155.07 23.0439 155.07 19.9065C155.07 16.7692 157.139 14.9321 159.774 14.9321V14.9261ZM146.222 28.8831V18.6003C146.222 13.1248 143.02 10.6555 138.775 10.6555C136.336 10.6555 134.237 11.4905 132.83 13.0294V10.9239H127.857V28.8891H133.063V20.0079C133.063 16.7036 134.863 15.1647 137.367 15.1647C139.669 15.1647 141.004 16.5008 141.004 19.4055V28.8891H146.21L146.222 28.8831ZM202.536 29.1515C208.242 29.1515 212.386 25.3104 212.386 19.9005C212.386 14.4907 208.248 10.6495 202.536 10.6495C196.824 10.6495 192.657 14.4907 192.657 19.9005C192.657 25.3104 196.83 29.1515 202.536 29.1515ZM202.536 14.9261C205.142 14.9261 207.109 16.799 207.109 19.9005C207.109 23.0021 205.142 24.875 202.536 24.875C199.931 24.875 197.927 23.0021 197.927 19.9005C197.927 16.799 199.931 14.9261 202.536 14.9261ZM220.829 13.2918V10.9179H215.856V28.8831H221.061V20.4016C221.061 16.96 222.963 15.3914 225.837 15.3914C226.237 15.3914 226.571 15.4271 227.006 15.457V10.6495C224.233 10.6495 222.099 11.5502 220.829 13.2859V13.2918ZM183.874 19.3995V28.8831H189.079V18.6003C189.079 13.1248 185.877 10.6555 181.638 10.6555C179.337 10.6555 177.333 11.3891 175.932 12.7908V4.10645H170.727V28.8831H175.932V20.0019C175.932 16.6976 177.733 15.1587 180.237 15.1587C182.538 15.1587 183.874 16.4948 183.874 19.3995ZM132.896 44.8025C130.457 44.8025 128.358 45.6375 126.951 47.1764V45.0709H121.978V63.0361H127.184V54.1549C127.184 50.8505 128.984 49.3117 131.488 49.3117C133.79 49.3117 135.126 50.6477 135.126 53.5525V63.0361H140.331V52.7532C140.331 47.2778 137.129 44.8085 132.884 44.8085L132.896 44.8025ZM104.89 53.2841H115.742V49.0791H104.89V44.0032H117.173V39.6611H99.5122V63.0361H117.602V58.6939H104.884V53.2841H104.89ZM179.963 63.0361H185.168V45.0709H179.963V63.0361ZM159.267 47.3732C157.896 45.6375 155.827 44.8025 153.323 44.8025C148.35 44.8025 144.343 48.244 144.343 53.4869C144.343 58.7297 148.35 62.1712 153.323 62.1712C155.66 62.1712 157.628 61.4376 158.999 59.9345V60.704C158.999 63.9427 157.395 65.6128 153.722 65.6128C151.421 65.6128 148.917 64.8135 147.378 63.5789L145.309 67.3186C147.414 68.9529 150.717 69.7879 154.122 69.7879C160.597 69.7879 164.204 66.7162 164.204 60.0359V45.0769H159.261V47.3792L159.267 47.3732ZM154.36 57.8947C151.623 57.8947 149.62 56.1232 149.62 53.4869C149.62 50.8505 151.623 49.0791 154.36 49.0791C157.097 49.0791 159.065 50.8505 159.065 53.4869C159.065 56.1232 157.097 57.8947 154.36 57.8947ZM219.517 44.8025C217.216 44.8025 215.212 45.5361 213.811 46.9378V38.2534H208.606V63.0301H213.811V54.1489C213.811 50.8446 215.612 49.3057 218.116 49.3057C220.418 49.3057 221.753 50.6418 221.753 53.5465V63.0301H226.958V52.7473C226.958 47.2718 223.756 44.8025 219.517 44.8025ZM194.117 50.4151C194.117 49.4787 195.119 48.7451 197.456 48.7451C199.09 48.7451 200.861 49.0791 202.632 50.0811L204.367 46.3771C202.662 45.3751 199.925 44.8085 197.456 44.8085C192.215 44.8085 189.145 47.2122 189.145 50.6179C189.145 57.7992 199.996 54.7931 199.996 57.7336C199.996 58.7357 199.096 59.3679 196.693 59.3679C194.493 59.3679 192.054 58.6641 190.451 57.6322L188.715 61.372C190.385 62.4754 193.456 63.3105 196.496 63.3105C201.869 63.3105 204.975 60.9366 204.975 57.6024C204.975 50.5225 194.123 53.4928 194.123 50.4211L194.117 50.4151ZM182.568 36.7563C180.631 36.7563 179.331 38.0268 179.331 39.6611C179.331 41.2953 180.631 42.5658 182.568 42.5658C184.506 42.5658 185.806 41.2953 185.806 39.5597C185.806 37.9552 184.506 36.7563 182.568 36.7563ZM169.481 63.0361H174.686V38.2594H169.481V63.0361Z" fill="#70BE90"/>
</g>
<defs>
<clipPath id="clip0_129_6757">
<rect width="227" height="73" fill="white" transform="translate(0 0.444336)"/>
</clipPath>
</defs>
</svg>
