<svg width="145" height="74" viewBox="0 0 145 74" fill="none" xmlns="http://www.w3.org/2000/svg">
<g clip-path="url(#clip0_129_6853)">
<path d="M109.098 51.8712C109.679 51.7818 110.125 51.5084 110.438 51.056C110.721 50.6435 110.826 50.211 110.756 49.7537C110.682 49.2864 110.443 48.9037 110.036 48.6055C109.589 48.2724 109.068 48.1482 108.472 48.2426C107.891 48.3321 107.444 48.6005 107.132 49.0479C106.849 49.4555 106.744 49.8829 106.814 50.3402C106.888 50.8075 107.127 51.1952 107.539 51.4984C107.991 51.8414 108.512 51.9607 109.103 51.8712H109.098Z" fill="white"/>
<path d="M105.175 47.8398L101.948 48.2524C102.102 49.7635 102.271 51.2448 102.464 52.7012C102.479 52.7957 102.419 52.8553 102.29 52.8752C102.256 52.8802 102.117 52.8752 101.883 52.8652C101.645 52.8553 101.461 52.8603 101.322 52.8802C99.7185 53.1287 98.5169 53.8296 97.7275 54.9679C97.0224 55.9918 96.7692 57.1351 96.9678 58.3977C97.1466 59.5359 97.6182 60.4704 98.3928 61.2011C99.3213 62.081 100.488 62.409 101.898 62.1903C102.41 62.1108 102.881 61.9318 103.313 61.6485C103.338 61.6336 103.373 61.6187 103.417 61.6137C103.601 61.5839 103.7 61.7877 103.715 62.2201C103.74 62.7073 103.79 62.9707 103.859 63.0055L106.689 62.5432C106.689 62.5432 106.714 62.5035 106.709 62.4687L105.24 47.9293C105.235 47.8945 105.215 47.8647 105.18 47.8398H105.175ZM102.171 59.8938C100.781 60.1076 99.9816 59.5558 99.7731 58.2386C99.5199 56.6281 100.428 55.6638 102.504 55.3407C102.668 55.3158 102.757 55.3655 102.777 55.4948L103.318 59.4316C103.338 59.6155 102.956 59.7646 102.166 59.8889L102.171 59.8938Z" fill="white"/>
<path d="M110.949 52.9248L107.816 53.3771L107.782 53.402C108.124 56.0613 108.487 58.6958 108.874 61.3104C108.874 61.3353 108.899 61.3551 108.929 61.375L112.002 60.878C112.007 60.8481 112.007 60.8233 112.002 60.8034L110.999 52.9894C110.999 52.9894 110.979 52.9447 110.944 52.9248H110.949Z" fill="white"/>
<path d="M86.4069 62.2101C85.5529 62.6773 84.8131 62.9557 84.1875 63.0551C83.0456 63.234 82.2164 62.901 81.6951 62.0659C81.5114 61.7677 81.4021 61.5489 81.3823 61.3949C81.3624 61.2805 81.422 61.2159 81.561 61.201L85.6423 60.7089C85.7863 60.5946 85.8757 60.2118 85.9154 59.5656C85.9452 59.0238 85.9353 58.6113 85.8955 58.3379C85.4437 55.435 84.0535 54.1674 81.7249 54.5303C80.3247 54.749 79.3863 55.6686 78.9047 57.289C78.5572 58.4671 78.4827 59.7048 78.6862 61.0121C78.8997 62.389 79.5005 63.4577 80.4836 64.2182C81.6007 65.0732 83.0307 65.3665 84.7784 65.0931C85.0763 65.0483 85.4735 64.939 85.97 64.7799C86.5857 64.5711 86.8935 64.3972 86.8985 64.258C86.8737 64.089 86.7942 63.7212 86.6651 63.1545C86.5261 62.553 86.4417 62.2399 86.4119 62.22L86.4069 62.2101ZM81.1142 59.8887C81.0347 59.3718 81.0794 58.8648 81.2482 58.3727C81.4766 57.7215 81.8887 57.3487 82.4796 57.2542C83.2591 57.1349 83.7159 57.5177 83.8549 58.4124C83.9691 59.1481 83.8946 59.5408 83.6265 59.5955L81.3426 60.0279C81.2085 60.0478 81.1291 60.0031 81.1092 59.8887H81.1142Z" fill="white"/>
<path d="M95.642 56.6981C95.2845 54.4166 93.7552 53.4871 91.0493 53.9096C89.1725 54.2028 87.9858 55.4356 87.4893 57.6128C87.4844 57.6326 87.4744 57.6476 87.4645 57.6525C87.4744 57.6873 87.4943 57.7072 87.5191 57.7171L90.2102 56.9169C90.2598 56.8224 90.2896 56.7528 90.2995 56.6981C90.5279 56.1365 90.9351 55.8084 91.5259 55.7139C91.9579 55.6444 92.3352 55.7338 92.653 55.9774C92.941 56.1961 93.1098 56.4745 93.1644 56.8075C93.2389 57.2847 93.214 57.5382 93.085 57.5581C92.9658 57.578 92.7672 57.5929 92.4991 57.6028C92.231 57.6128 92.0274 57.6326 91.8983 57.6525C90.4833 57.8712 89.3611 58.2937 88.522 58.9051C87.5688 59.6209 87.1716 60.4858 87.3304 61.5098C87.4645 62.3697 87.8716 63.001 88.5518 63.3937C89.2321 63.7864 90.1307 63.8958 91.2528 63.7218C91.9976 63.6075 92.7473 63.3539 93.502 62.9762C93.5368 62.9563 93.5616 62.9463 93.5765 62.9463C93.7006 62.9265 93.7751 62.9662 93.79 63.0706C93.8049 63.1651 93.8198 63.3142 93.8297 63.518C93.8396 63.7218 93.8545 63.8759 93.8694 63.9753C93.8744 64.015 93.8943 64.0449 93.929 64.0598L96.2825 63.6721C96.352 63.6074 96.2825 62.5288 96.064 60.4411C95.8704 58.5373 95.7264 57.2897 95.632 56.6882L95.642 56.6981ZM92.4891 61.8677C91.4117 62.0367 90.8209 61.7583 90.7067 61.0326C90.6421 60.625 90.7762 60.282 91.1039 59.9937C91.4117 59.7303 91.8387 59.5563 92.3898 59.4718C93.0899 59.3625 93.4474 59.3724 93.4573 59.5066L93.651 61.4352C93.6659 61.5993 93.2786 61.7434 92.4891 61.8627V61.8677Z" fill="white"/>
<path d="M77.6139 63.801C76.4173 62.6677 75.8115 62.0613 75.7966 61.9768C75.7966 61.9519 75.8066 61.9221 75.8413 61.8774C77.1174 60.5303 77.6238 59.0242 77.3656 57.359C77.1869 56.1958 76.6357 55.2315 75.7222 54.471C74.4561 53.4122 72.5495 53.0792 70.0024 53.4769C68.4881 53.7155 67.5248 53.9491 67.1078 54.1777C67.0581 54.2026 67.0383 54.2324 67.0432 54.2622L69.1484 67.37C69.1484 67.3998 69.1732 67.4247 69.208 67.4446L72.192 66.6741C72.2218 66.6493 72.2317 66.6194 72.2218 66.5747L71.76 63.4084C71.7501 63.304 71.8047 63.2443 71.9239 63.2244C71.9934 63.2145 72.053 63.2344 72.1026 63.2891L75.7023 66.4256L79.3914 65.7098C79.4211 65.685 79.4311 65.6601 79.4261 65.6303C79.4112 65.5408 78.8055 64.9294 77.6089 63.7961L77.6139 63.801ZM73.9596 59.73C73.5822 60.2818 72.5445 60.6695 71.765 60.9131L71.7104 60.923C71.5763 60.9429 71.5019 60.8981 71.482 60.7838L70.8763 56.2853C70.8614 56.171 70.9259 56.1014 71.0798 56.0765C71.3628 56.0318 72.1126 56.0318 72.4055 56.0716C73.5524 56.2456 74.2078 56.8818 74.3717 57.9803C74.466 58.6216 74.332 59.2081 73.9596 59.735V59.73Z" fill="white"/>
<path d="M128.024 46.0013C127.995 46.036 127.985 46.0957 127.999 46.1802C128.004 46.2299 128.024 46.3094 128.054 46.4188C128.084 46.5281 128.104 46.6126 128.114 46.6673C128.143 46.8463 128.089 46.9457 127.95 46.9705C127.875 46.9805 127.731 46.9855 127.518 46.9855C127.304 46.9855 127.146 46.9855 127.031 47.0053C125.467 47.2489 124.31 47.905 123.566 48.9638C122.9 49.9082 122.662 50.9968 122.856 52.2246C123.039 53.3927 123.531 54.3371 124.33 55.0579C125.284 55.9178 126.485 56.231 127.945 56.0023C128.173 55.9675 128.456 55.8781 128.799 55.7389C129.141 55.5997 129.335 55.5252 129.375 55.5202C129.514 55.5003 129.588 55.5351 129.603 55.6295L129.812 56.9667C129.901 57.5333 129.752 58.0055 129.375 58.3783C128.993 58.7511 128.422 58.9947 127.667 59.114C127.568 59.1289 127.414 59.1389 127.21 59.1488C127.006 59.1538 126.858 59.1687 126.763 59.1836C126.733 59.1836 126.719 59.2134 126.723 59.2631L127.175 62.1561C127.205 62.3599 127.751 62.3798 128.804 62.2157C130.08 62.0169 131.068 61.4801 131.758 60.6152C132.349 59.8646 132.667 58.9649 132.711 57.9161C132.736 57.3345 132.706 56.6585 132.622 55.888C132.538 55.2219 132.453 54.5509 132.374 53.8848C132.076 51.5138 131.813 49.5752 131.574 48.0641C131.316 46.4238 131.162 45.5837 131.103 45.5439L128.029 46.0062L128.024 46.0013ZM128.526 53.4772C127.304 53.6661 126.614 53.2486 126.45 52.2196C126.361 51.6579 126.485 51.1758 126.813 50.7731C127.17 50.3357 127.712 50.0623 128.446 49.948C128.566 49.9281 128.64 49.9679 128.66 50.0623L129.181 53.1939C129.201 53.3132 128.983 53.4076 128.526 53.4822V53.4772Z" fill="white"/>
<path d="M117.737 49.9374C117.265 50.0119 116.853 50.176 116.486 50.4345C116.257 50.5935 116.024 50.8122 115.791 51.0956C115.597 51.3192 115.478 51.4385 115.433 51.4435C115.294 51.4634 115.205 51.3839 115.18 51.1999C115.17 51.1453 115.165 51.0558 115.16 50.9315C115.16 50.8073 115.15 50.7178 115.14 50.6631C115.125 50.5736 115.1 50.514 115.061 50.4891L112.111 50.9514C112.087 50.9812 112.072 51.0061 112.077 51.0309L113.601 60.5101C113.601 60.5101 113.626 60.5598 113.66 60.5847L116.659 60.0627C116.659 60.0627 116.669 60.023 116.659 59.9782L115.711 54.3862V54.3514C115.84 53.5064 116.361 53.0143 117.28 52.8701C118.124 52.7359 118.66 53.397 118.889 54.8485C119.038 55.8177 119.276 57.4531 119.599 59.7546C119.604 59.8043 119.614 59.8341 119.629 59.844L122.558 59.5607C122.583 59.5309 122.598 59.4961 122.598 59.4513C122.305 56.6976 122.106 55.0075 122.007 54.3812C121.49 51.0558 120.065 49.5795 117.737 49.9424V49.9374Z" fill="white"/>
<path d="M52.7837 49.2273L60.7874 73.4446L143.64 63.7169L145.005 37.5908L52.7837 49.2273ZM132.706 57.9111C132.662 58.9599 132.344 59.8596 131.753 60.6102C131.063 61.4801 130.075 62.012 128.799 62.2108C127.741 62.3748 127.2 62.3549 127.17 62.1511L126.719 59.2582C126.719 59.2085 126.729 59.1836 126.758 59.1787C126.853 59.1637 127.002 59.1538 127.205 59.1439C127.409 59.1389 127.563 59.124 127.662 59.1091C128.422 58.9898 128.988 58.7462 129.37 58.3734C129.752 58.0006 129.896 57.5284 129.807 56.9617L129.598 55.6246C129.583 55.5301 129.509 55.4904 129.37 55.5152C129.33 55.5202 129.137 55.5948 128.794 55.7339C128.451 55.8731 128.168 55.9626 127.94 55.9974C126.48 56.2261 125.274 55.9129 124.325 55.053C123.526 54.3322 123.035 53.3878 122.851 52.2197C122.657 50.9919 122.895 49.9083 123.561 48.9589C124.306 47.9001 125.462 47.244 127.026 47.0004C127.136 46.9855 127.3 46.9755 127.513 46.9805C127.727 46.9805 127.87 46.9805 127.945 46.9656C128.079 46.9457 128.134 46.8463 128.109 46.6624C128.099 46.6077 128.079 46.5232 128.049 46.4138C128.019 46.2995 128 46.22 127.995 46.1753C127.98 46.0908 127.995 46.0311 128.019 45.9963L131.093 45.534C131.152 45.5738 131.306 46.4138 131.565 48.0542C131.798 49.5653 132.066 51.5039 132.364 53.8749C132.448 54.541 132.533 55.212 132.612 55.8781C132.697 56.6486 132.726 57.3246 132.702 57.9062L132.706 57.9111ZM122.007 54.3769C122.106 55.0033 122.3 56.6933 122.598 59.4471C122.598 59.4918 122.588 59.5266 122.558 59.5564L119.628 59.8398C119.628 59.8398 119.609 59.8 119.599 59.7503C119.276 57.4488 119.038 55.8185 118.889 54.8442C118.66 53.3927 118.129 52.7366 117.28 52.8658C116.361 53.01 115.84 53.5021 115.706 54.3471V54.3819L116.659 59.974C116.664 60.0137 116.664 60.0436 116.659 60.0585L113.66 60.5804C113.626 60.5555 113.606 60.5307 113.601 60.5058L112.077 51.0267C112.077 51.0267 112.087 50.977 112.111 50.9471L115.061 50.4849C115.1 50.5097 115.13 50.5644 115.14 50.6588C115.15 50.7135 115.155 50.803 115.16 50.9273C115.16 51.0515 115.17 51.141 115.18 51.1957C115.21 51.3796 115.294 51.4641 115.433 51.4392C115.478 51.4343 115.597 51.315 115.79 51.0913C116.024 50.808 116.257 50.5893 116.486 50.4302C116.848 50.1717 117.265 50.0027 117.737 49.9331C120.065 49.5703 121.49 51.0515 122.007 54.372V54.3769ZM107.812 53.3778L110.945 52.9255C110.984 52.9454 111.004 52.9653 110.999 52.9901L112.002 60.8041C112.002 60.8041 112.002 60.8488 112.002 60.8786L108.929 61.3757C108.894 61.3558 108.874 61.3359 108.874 61.3111C108.487 58.6965 108.124 56.062 107.782 53.4027L107.817 53.3778H107.812ZM107.539 51.4989C107.126 51.1957 106.888 50.808 106.814 50.3407C106.744 49.8834 106.848 49.4559 107.131 49.0483C107.444 48.601 107.891 48.3325 108.472 48.2431C109.068 48.1486 109.589 48.2729 110.036 48.6059C110.443 48.9042 110.686 49.2869 110.756 49.7542C110.825 50.2115 110.721 50.6439 110.438 51.0565C110.125 51.5088 109.678 51.7822 109.098 51.8717C108.507 51.9661 107.985 51.8419 107.534 51.4989H107.539ZM101.948 48.253L105.175 47.8404C105.21 47.8653 105.23 47.8951 105.235 47.9299L106.704 62.4693C106.709 62.5041 106.704 62.5289 106.685 62.5438L103.854 63.0061C103.78 62.9663 103.73 62.7079 103.71 62.2207C103.696 61.7883 103.596 61.5845 103.413 61.6143C103.368 61.6193 103.333 61.6342 103.308 61.6491C102.876 61.9324 102.405 62.1114 101.893 62.1909C100.483 62.4096 99.3164 62.0816 98.3879 61.2017C97.6183 60.471 97.1417 59.5365 96.9629 58.3983C96.7643 57.1357 97.0175 55.9924 97.7226 54.9685C98.512 53.8252 99.7086 53.1293 101.317 52.8808C101.451 52.8609 101.64 52.8559 101.878 52.8658C102.117 52.8758 102.251 52.8808 102.285 52.8758C102.415 52.8559 102.474 52.7963 102.459 52.7018C102.271 51.2454 102.097 49.7641 101.943 48.253H101.948ZM95.6422 56.6983C95.7365 57.2997 95.8805 58.5474 96.0742 60.4512C96.2877 62.5389 96.3572 63.6175 96.2926 63.6821L93.9392 64.0698C93.9044 64.0549 93.8846 64.0301 93.8796 63.9853C93.8647 63.8859 93.8498 63.7318 93.8399 63.528C93.83 63.3242 93.8151 63.1751 93.8002 63.0807C93.7853 62.9813 93.7108 62.9365 93.5867 62.9564C93.5718 62.9564 93.5469 62.9663 93.5122 62.9862C92.7525 63.369 92.0028 63.6175 91.263 63.7318C90.1409 63.9058 89.2422 63.7965 88.562 63.4038C87.8818 63.0111 87.4747 62.3798 87.3406 61.5199C87.1817 60.4959 87.5789 59.626 88.5322 58.9152C89.3664 58.2988 90.4934 57.8813 91.9085 57.6626C92.0376 57.6427 92.2411 57.6278 92.5093 57.6129C92.7774 57.6029 92.976 57.588 93.0951 57.5681C93.2192 57.5483 93.249 57.2997 93.1746 56.8176C93.12 56.4845 92.9511 56.2062 92.6632 55.9875C92.3454 55.7439 91.9681 55.6544 91.5361 55.724C90.9452 55.8184 90.5381 56.1465 90.3097 56.7082C90.2948 56.7579 90.265 56.8325 90.2203 56.9269L87.5293 57.7272C87.5044 57.7173 87.4846 57.6974 87.4747 57.6626C87.4846 57.6526 87.4945 57.6427 87.4995 57.6228C87.991 55.4456 89.1777 54.2129 91.0594 53.9196C93.7654 53.4971 95.2996 54.4266 95.6521 56.7082L95.6422 56.6983ZM81.6953 62.0617C82.2117 62.9017 83.0458 63.2298 84.1878 63.0508C84.8134 62.9514 85.5532 62.6731 86.4072 62.2058C86.437 62.2257 86.5214 62.5389 86.6604 63.1403C86.7895 63.707 86.8689 64.0748 86.8937 64.2438C86.8937 64.383 86.5809 64.5619 85.9653 64.7657C85.4688 64.9298 85.0716 65.0342 84.7737 65.0789C83.026 65.3523 81.596 65.059 80.4789 64.2041C79.4958 63.4435 78.9 62.3748 78.6815 60.9979C78.4779 59.6956 78.5524 58.4529 78.9 57.2749C79.3816 55.6544 80.325 54.7348 81.7201 54.5161C84.0488 54.1533 85.439 55.4208 85.8908 58.3237C85.9355 58.5971 85.9405 59.0097 85.9107 59.5515C85.8709 60.2026 85.7816 60.5804 85.6376 60.6947L81.5563 61.1868C81.4173 61.2017 81.3577 61.2664 81.3775 61.3807C81.4024 61.5298 81.5066 61.7535 81.6903 62.0517L81.6953 62.0617ZM67.1079 54.1781C67.52 53.9495 68.4882 53.7158 70.0026 53.4772C72.5497 53.0796 74.4562 53.4126 75.7223 54.4714C76.6409 55.2369 77.187 56.2012 77.3658 57.3594C77.624 59.0246 77.1175 60.5307 75.8415 61.8778C75.8067 61.9225 75.7918 61.9523 75.7968 61.9772C75.8117 62.0617 76.4174 62.6681 77.614 63.8014C78.8106 64.9348 79.4163 65.5461 79.4312 65.6356C79.4312 65.6654 79.4263 65.6903 79.3965 65.7152L75.7074 66.4309L72.1078 63.2944C72.0581 63.2397 71.9985 63.2199 71.929 63.2298C71.8099 63.2497 71.7552 63.3093 71.7652 63.4137L72.2269 66.5801C72.2319 66.6198 72.2269 66.6546 72.1971 66.6795L69.2131 67.4499C69.1784 67.4301 69.1585 67.4052 69.1535 67.3754L67.0483 54.2676C67.0483 54.2378 67.0632 54.2079 67.1129 54.1831L67.1079 54.1781ZM74.3718 57.9757C74.4662 58.617 74.3321 59.2035 73.9597 59.7304C73.5824 60.2822 72.5447 60.6699 71.7652 60.9134L71.7105 60.9234C71.5765 60.9433 71.502 60.8985 71.4822 60.7842L70.8764 56.2857C70.8615 56.1714 70.9261 56.1018 71.08 56.0769C71.363 56.0322 72.1127 56.0322 72.4057 56.072C73.5526 56.2459 74.208 56.8822 74.3718 57.9807V57.9757ZM83.6317 59.5962L81.3478 60.0287C81.2137 60.0485 81.1343 60.0038 81.1144 59.8895C81.035 59.3725 81.0796 58.8655 81.2485 58.3734C81.4769 57.7222 81.889 57.3494 82.4798 57.255C83.2593 57.1357 83.7161 57.5184 83.8551 58.4132C83.9693 59.1488 83.8948 59.5415 83.6267 59.5962H83.6317ZM93.4576 59.5067L93.6512 61.4354C93.6661 61.5994 93.2788 61.7435 92.4894 61.8628C91.412 62.0318 90.8211 61.7535 90.7069 61.0278C90.6424 60.6202 90.7764 60.2772 91.1041 59.9889C91.412 59.7254 91.839 59.5515 92.3901 59.467C93.0902 59.3576 93.4476 59.3675 93.4576 59.5018V59.5067ZM128.66 50.0624L129.181 53.1939C129.201 53.3132 128.983 53.4076 128.526 53.4822C127.304 53.6711 126.614 53.2536 126.45 52.2246C126.361 51.6629 126.485 51.1808 126.813 50.7781C127.17 50.3407 127.712 50.0673 128.446 49.953C128.566 49.9331 128.64 49.9729 128.66 50.0673V50.0624ZM102.782 55.5003L103.323 59.4371C103.343 59.6211 102.961 59.7702 102.171 59.8944C100.781 60.1082 99.9817 59.5564 99.7731 58.2392C99.5199 56.6287 100.429 55.6644 102.504 55.3413C102.668 55.3164 102.757 55.3661 102.777 55.4954L102.782 55.5003Z" fill="#92D7AE"/>
<path d="M12.2091 57.2348L129.931 42.089L137.513 0.444336H0L12.2091 57.2348Z" fill="#70BE90"/>
<path d="M39.8944 15.9477C38.1616 15.9228 37.2827 17.0909 37.2778 18.3684C37.3175 19.9938 38.7474 20.476 39.3135 20.5207C39.8844 20.5704 41.657 20.4263 42.0145 18.597C42.3719 16.7629 40.7633 16.0172 39.8894 15.9526L39.8944 15.9477ZM40.8328 22.9116C40.232 22.5189 39.4277 22.4494 38.9014 22.3897C36.6075 22.4146 37.104 23.4932 37.1934 23.702C37.2778 23.9058 37.2281 25.8543 37.2281 25.8543C37.2281 25.8543 37.1189 30.9244 37.1239 31.4066C37.1239 31.8937 36.96 33.9367 37.1636 34.5232C37.3622 35.1098 37.5558 35.1993 38.4942 35.3384C39.4326 35.4826 40.4902 35.4826 40.6342 34.9706C40.7831 34.4536 40.5547 34.1653 40.5051 33.7379C40.3313 32.53 40.5845 28.4938 40.6292 27.4598C40.6789 26.416 40.942 24.4874 40.9917 24.204C41.0363 23.9157 41.5428 23.3839 40.8328 22.9166V22.9116Z" fill="white"/>
<path d="M53.186 32.0685C53.1065 30.4331 53.0817 26.1831 53.0817 26.1831C53.0817 26.1831 53.1512 24.4036 53.1611 24.1849C53.181 23.9712 53.7867 23.2156 53.0072 22.7484C52.2227 22.2712 51.1652 22.5794 50.912 22.6142C50.6637 22.644 50.4155 22.3259 50.4155 22.3259C50.4155 22.3259 50.2864 22.127 49.482 21.6399C47.7045 20.7402 46.5973 21.0384 45.7284 21.4013C43.365 22.5992 42.3869 26.4416 42.3869 26.4416C42.3869 26.4416 41.5031 30.115 42.0692 31.8448C42.6402 33.5796 44.0403 34.4793 45.5398 34.9763C47.0293 35.4834 48.4245 34.8968 48.7621 34.7029C49.0997 34.5141 49.9835 33.9375 49.9835 33.9375C49.9835 33.9375 50.0977 35.2497 50.0431 35.8711C49.9835 36.4825 50.4949 39.6438 48.9259 40.4441C47.3669 41.2394 45.9072 39.44 45.783 39.3058C45.6589 39.1667 45.4603 38.9281 45.5944 38.5354C45.7284 38.1427 45.6788 37.8395 45.51 37.6506C45.3362 37.4667 44.8546 37.1237 43.3502 37.6556C41.8557 38.1924 41.945 38.7392 41.9848 39.1418C42.0245 39.5494 42.4266 40.5038 42.8685 40.9263C44.8198 43.1482 46.2795 43.4663 48.3996 43.4017C49.3182 43.3669 51.5822 42.1839 52.5157 40.6778C52.9228 40.0266 53.1165 39.2313 53.1909 38.436C53.4243 35.7965 53.2604 33.6889 53.181 32.0635L53.186 32.0685ZM49.7899 29.6229C49.77 30.8407 48.2159 32.5755 46.6072 32.4661C45.5398 32.3965 45.227 30.7661 45.3809 28.9121C45.5348 27.053 46.4384 24.0358 48.1067 24.2843C48.1067 24.2843 49.1494 24.3589 49.5764 25.7258C49.6806 25.9942 49.8941 29.3942 49.7899 29.6229Z" fill="white"/>
<path d="M54.9834 12.7471C54.9834 12.7471 54.9934 12.086 54.8742 11.9418C54.7501 11.7977 54.2883 11.3404 54.8841 10.8483C55.4849 10.3612 57.0886 10.2667 57.8135 10.5202C58.5434 10.7787 58.7767 11.2261 58.6874 11.8126C58.603 12.3942 58.5781 13.1895 58.4987 13.8208C58.4193 14.4521 58.2405 17.4246 58.2405 17.4246L58.0221 23.4342L58.0717 24.5277C58.0717 24.5277 60.2166 22.3108 62.6694 22.614C64.0348 22.8774 65.3704 23.8318 65.3704 23.8318C65.3704 23.8318 66.6762 24.4879 66.9542 27.2865C67.1628 29.3841 67.0684 31.5613 67.0684 31.5613C67.0684 31.5613 67.0982 33.6738 67.0039 34.2107C66.9095 34.7525 66.3435 34.842 66.3435 34.842C66.3435 34.842 65.5392 35.1104 64.2334 34.9662C62.9275 34.827 63.2254 33.7782 63.4042 33.137C63.4985 32.6499 63.5035 29.2101 63.4638 28.5093C63.4241 27.8134 63.1559 25.4125 61.8501 25.4274C60.5443 25.4374 59.6804 26.8192 59.2882 27.5946C58.8959 28.3701 58.6526 28.7628 58.5285 29.3344C58.3746 30.09 58.3746 31.0543 58.3398 31.5016C58.3051 31.944 58.2703 33.8776 58.4838 35.0706C58.6973 35.5379 58.8115 35.2844 58.8413 35.7218C58.8711 36.1592 58.4342 36.3978 56.7162 36.3928C54.9983 36.3928 55.1225 35.0408 55.0976 34.7276C55.0678 34.4145 55.048 32.1926 55.048 32.1926L54.9387 25.845L54.8593 20.3324L54.9983 15.476V12.757L54.9834 12.7471Z" fill="white"/>
<path d="M70.3057 10.5898C71.3533 10.6693 72.3463 11.1564 72.391 11.8871C72.391 12.4289 72.2073 12.4836 72.1725 12.7272C72.1278 12.9509 72.0434 14.5067 71.9839 15.1231C71.9243 15.7444 71.8597 20.7996 71.8597 20.7996L71.8746 26.854L71.9789 31.3276L72.1676 36.0747C72.1676 36.0747 72.2718 36.6314 72.5846 37.0638C72.9074 37.4913 72.9173 37.7896 72.6293 37.9884C72.3463 38.1823 71.6909 38.4606 70.4894 38.3363C68.7963 38.1574 68.6374 37.3422 68.6573 36.9793C68.6722 36.6165 68.7218 34.9364 68.7218 34.9364L68.6672 29.9309C68.6672 29.9309 68.5679 23.8964 68.5282 23.0663C68.4884 22.2362 68.548 17.1362 68.548 17.1362C68.548 17.1362 68.5083 12.9161 68.5083 12.5632C68.5083 12.2102 68.1757 12.0313 68.2501 11.395C68.3196 10.7638 69.2531 10.5053 70.3057 10.5898Z" fill="white"/>
<path d="M75.0025 19.4025C75.9409 19.5069 77.1325 19.3628 77.485 17.6628C77.8971 15.6397 76.3381 15.1376 75.3351 15.1426C73.364 15.1526 73.0859 16.7233 73.1703 17.797C73.2498 18.8707 74.0641 19.3031 75.0025 19.4075V19.4025ZM77.5049 33.2162C77.3609 32.9378 77.2616 32.5998 77.202 31.9089C77.1424 31.213 77.0481 28.3498 77.0779 27.5694C77.1027 26.784 77.2318 24.8107 77.2765 24.1943C77.3261 23.573 77.7779 22.6981 77.336 22.201C76.8991 21.704 75.4692 21.4057 74.6946 21.4405C73.9151 21.4654 73.3392 21.5797 73.2994 22.0867C73.2548 22.5838 73.4583 23.061 73.4583 23.061C73.4583 23.061 73.5874 23.9308 73.5725 24.6665C73.5527 25.3972 73.6073 29.2843 73.6073 29.2843C73.6073 29.2843 73.6073 32.8334 73.642 33.2261C73.6768 33.6238 73.2845 34.26 75.5238 34.3843C77.763 34.5085 77.6538 33.5094 77.5098 33.2261L77.5049 33.2162Z" fill="white"/>
<path d="M106.282 22.6581C106.282 22.6581 106.541 22.6432 106.58 22.3102C106.635 21.838 107.271 16.2459 107.271 16.2459C107.271 16.2459 107.201 14.7845 108.154 14.5608C109.103 14.3371 109.768 14.3371 110.503 14.6553C111.238 14.9684 111.481 15.7787 111.128 16.3056C110.776 16.8324 110.577 18.2392 110.498 18.6219C110.408 19.0047 110.006 22.0865 110.006 22.0865L109.991 22.2505L111.823 22.176C111.823 22.176 113.194 21.8578 113.77 22.3549C114.336 22.852 114.688 23.1751 114.713 23.707C114.738 24.2388 114.703 24.6514 114.107 24.6663C113.512 24.6812 111.104 24.8204 111.104 24.8204C111.104 24.8204 109.942 24.885 109.857 25.0043C109.768 25.1286 109.604 27.9569 109.609 29.8408C109.619 31.7297 110.682 32.4057 111.262 32.2616C111.838 32.1124 112.429 31.004 112.717 30.8399C113.005 30.6759 113.139 30.482 114.083 31.2972C114.981 32.0727 114.867 32.5399 114.291 33.37C114.053 33.708 112.747 35.1098 110.175 34.558C106.704 33.8124 106.277 31.8341 106.193 30.7853C106.104 29.7265 106.153 28.0613 106.238 27.5394C106.317 27.0224 106.392 25.7151 106.327 25.4069C106.302 25.2678 105.344 25.6157 104.43 25.3125C103.522 25.0093 103.373 24.2637 103.348 23.9455C103.318 23.6274 103.229 23.1204 103.507 23.016C103.79 22.9067 106.287 22.6631 106.287 22.6631L106.282 22.6581Z" fill="white"/>
<path d="M94.7835 24.3037C94.7835 24.3037 96.7893 22.057 99.535 22.6485C102.529 23.2947 103.274 25.6906 103.313 27.5148C103.348 29.3441 103.214 32.073 103.214 32.5999C103.214 33.1268 103.05 34.2054 103.05 34.2054C103.05 34.2054 103.021 34.8466 101.258 34.6826C99.8031 34.5484 99.4804 34.6379 99.3861 33.932C99.2818 33.2262 99.545 33.097 99.6443 31.4218C99.7336 29.7318 99.7932 28.8569 99.7932 28.8569C99.7932 28.8569 99.972 25.5464 98.8101 25.3327C97.4447 25.0792 96.2432 26.5306 95.8956 26.978C95.5481 27.4303 95.0665 28.3002 94.9374 30.0946C94.8083 31.899 94.8033 33.1069 94.8033 33.1069C94.8033 33.1069 94.6941 34.1955 94.7884 34.3347C94.8828 34.4689 95.3544 35.0405 94.7288 35.4282C94.0983 35.8159 92.9861 35.8209 92.0924 35.4928C91.1987 35.1648 91.288 34.6975 91.2583 33.9072C91.2285 33.1168 91.4866 28.1759 91.4866 28.1759L91.6505 18.7564L91.7945 12.7518C91.7945 12.7518 91.864 12.0708 91.6555 11.5638C91.4469 11.0568 91.5512 10.0676 93.5571 10.2714C95.7417 10.4901 95.7715 10.9325 95.6672 11.5041C95.558 12.0758 95.4587 11.7974 95.3991 12.4287C95.3346 13.05 94.9473 19.0149 94.9473 19.0149L94.7835 24.3137V24.3037Z" fill="white"/>
<path d="M89.868 36.2234C89.8134 34.8664 89.7985 31.6007 89.7985 31.6007L89.729 28.3449C89.729 28.3449 89.8184 25.2729 89.8581 24.8107C89.8928 24.3534 90.0368 24.0402 90.2553 23.6624C90.4738 23.2896 89.6645 22.8572 88.9396 22.7279C88.2147 22.5937 87.7281 22.7279 87.4798 22.8472C87.2911 22.9367 86.9039 22.5043 86.9039 22.5043C86.9039 22.5043 86.1343 21.8929 84.6895 21.6592C81.7005 21.187 80.3053 23.0212 79.2279 26.451C78.0412 30.5121 78.6072 32.0232 79.0888 32.903C79.5705 33.7778 81.3678 35.1746 83.1205 35.4281C84.8781 35.6816 86.4918 34.4489 86.4719 34.4688C86.6258 35.3188 86.5216 38.2515 86.5216 38.2515C86.5216 38.2515 86.457 40.2448 84.9576 40.4684C83.4581 40.6971 83.0361 39.0518 82.8226 38.5895C82.6091 38.1272 82.7183 37.8141 82.763 37.317C82.8127 36.8249 82.4005 36.6609 81.7601 36.6509C81.1245 36.646 79.8485 36.8746 79.352 37.5059C78.8555 38.1421 79.0888 38.3758 79.213 38.6392C79.3371 38.9076 79.5407 39.2854 79.7492 39.7328C80.4592 41.8105 82.7382 43.1576 84.3469 43.083C85.9605 43.0134 87.6139 42.412 88.6913 41.1842C89.7687 39.9515 89.9276 37.5755 89.8631 36.2185L89.868 36.2234ZM86.2435 30.2934C86.1194 30.7556 85.1909 32.4855 83.6915 32.6843C82.197 32.8682 81.8047 30.6065 82.2019 28.3747C82.6041 26.1478 83.7411 24.418 84.5455 24.4776C85.3498 24.5422 86.3329 25.0741 86.3825 26.7393C86.4272 28.4045 86.3825 29.672 86.2435 30.2934Z" fill="white"/>
<path d="M8.03856 16.7981C8.03856 16.7981 7.18953 17.6033 7.15477 18.2346C7.12002 18.8659 7.71583 19.358 8.23716 20.1285C8.30667 20.2627 9.76144 22.1317 11.1765 23.5334C12.5915 24.9351 15.6401 26.6799 16.7622 27.0726C16.8267 27.1322 16.7721 27.3658 16.7721 27.3658C16.7721 27.3658 16.5884 29.4933 16.3352 31.6257C16.082 33.7631 15.9926 34.812 15.9926 34.812C15.9926 34.812 15.6798 37.4962 17.1941 37.9783C17.7949 38.1622 18.4851 38.4257 19.5972 38.1125C20.7094 37.7994 20.3569 37.2079 20.3569 37.2079C20.3569 37.2079 20.1136 36.8003 19.8654 36.2336C19.6121 35.6719 19.9895 31.8693 19.9895 31.8693L20.1533 29.9257L20.342 28.2953C20.342 28.2953 20.2675 28.2059 20.6449 28.2705C21.0272 28.3401 23.9218 28.529 23.9218 28.529C23.9218 28.529 26.1313 28.6383 28.2365 28.2705C28.9068 28.1164 29.865 27.8182 29.865 27.8182C29.865 27.8182 29.9544 27.8182 29.9445 28.2307C29.9246 28.6433 30.1182 30.3184 30.1331 30.9C30.148 31.4866 30.287 33.5196 30.3119 33.8924C30.3466 34.2652 30.4906 35.9254 30.4906 35.9254C30.4906 35.9254 30.6396 38.0827 31.0815 38.5897C31.5233 39.0918 32.7646 38.9575 32.7646 38.9575C32.7646 38.9575 33.2462 38.9824 34.13 38.5549C35.0138 38.1324 34.696 37.3818 34.696 37.3818C34.696 37.3818 34.6364 37.2476 34.4527 37.009C34.269 36.7605 34.135 35.9552 34.0555 35.314C33.9811 34.6728 33.8718 33.5245 33.8718 33.5245L33.6136 29.9804L33.4448 27.8132C33.4448 27.8132 33.3952 26.3518 33.4846 26.2076C33.5739 26.0685 34.3385 25.5267 34.3385 25.5267C34.3385 25.5267 35.8628 24.2243 36.1558 23.3594C36.4437 22.4945 36.3146 22.0273 36.3146 22.0273C36.3146 22.0273 36.1905 21.0977 35.5004 20.5211C35.2571 20.3124 34.8202 20.4864 34.6861 20.7349C34.5471 20.9834 34.4676 21.1872 34.3733 21.3015C34.2839 21.4208 33.7378 22.0372 33.6732 22.0969C33.6136 22.1565 33.4994 22.3454 33.415 22.2559C33.3356 22.1714 33.2462 20.4217 33.2562 20.1285C33.2611 19.8451 33.1519 16.7036 33.1519 16.7036C33.1519 16.7036 33.1767 14.5165 33.1519 13.8355C33.132 13.1545 33.3108 10.2318 33.3555 9.85895C33.4051 9.67503 33.5789 9.68995 33.6732 9.09843C33.7725 8.50691 32.7001 7.95019 31.3694 7.8309C30.6495 7.76628 30.1629 7.77125 29.8303 7.97008C29.4529 8.18382 29.443 8.53177 29.4281 8.75545C29.3884 9.16305 29.6366 9.41656 29.6813 9.86392C29.721 10.3063 29.6217 11.1762 29.6217 11.1762L29.6366 12.742V15.5355L29.6664 19.5021L29.7409 22.1963C29.7409 22.1963 29.8303 24.284 29.8551 24.3685C29.8749 24.453 29.8452 24.5126 29.7955 24.5474C29.7508 24.5922 28.4351 25.3925 24.7361 25.4372C22.9437 25.4223 21.3747 25.1787 20.7591 24.9202C20.7591 24.8009 20.9527 23.2053 20.9527 23.2053C20.9527 23.2053 21.7471 17.4294 22.0053 16.1718C22.2635 14.9191 22.5813 12.8961 22.8146 11.8671C23.048 10.8332 23.3707 10.4952 23.47 10.3312C23.5792 10.1721 24.0509 9.28235 22.8841 8.87972C21.2208 8.80019 20.1285 9.40662 20.1285 9.40662C20.1285 9.40662 19.1603 9.9186 19.2398 10.6891C19.3242 11.4546 19.2348 12.0013 19.205 12.1703C19.1752 12.3443 18.8624 13.3086 18.634 14.7501C18.4007 16.1916 18.2517 17.3399 18.2517 17.3399L17.8297 19.9097L17.4424 22.2062L17.2041 23.7422C17.2041 23.7422 15.9578 23.4986 13.7087 21.3015C11.4595 19.0995 10.6899 17.6928 10.4615 17.1311C10.4317 17.0168 10.4963 16.4104 9.55787 16.2215C8.58471 16.1121 8.03359 16.7981 8.03359 16.7981H8.03856Z" fill="white"/>
<path d="M122.881 20.0186C122.881 20.0186 125.065 20.1081 126.48 21.7086C127.483 23.1302 127.573 24.6712 127.573 24.6712C127.573 24.6712 127.518 25.1682 126.58 25.2527C125.641 25.3323 124.902 25.5609 124.221 24.7706C123.546 23.9852 123.65 22.9314 122.682 23.1004C121.709 23.2744 119.991 24.2884 119.862 25.3074C119.743 26.3065 121.625 26.8285 122.94 27.251C124.887 27.8773 127.965 28.2551 127.513 30.8647C127.066 33.4793 123.511 34.5132 120.676 34.1802C120.011 34.1056 119.405 34.036 118.854 33.8869C116.863 33.365 115.642 32.5398 115.627 31.4761C115.413 30.5317 117.216 30.0097 117.802 30.0296C118.382 30.0495 118.333 29.9948 118.889 30.6857C119.445 31.3767 120.006 31.486 121.357 31.6004C122.707 31.7197 123.343 31.1928 123.343 31.1928C123.343 31.1928 123.993 30.7007 123.02 30.2682C122.042 29.8457 117.156 28.8267 116.357 27.1565C115.552 25.4814 116.148 23.518 117.384 22.4443C118.626 21.3656 119.996 19.8446 122.886 20.0186H122.881Z" fill="white"/>
<path d="M125.204 14.81H124.648V16.2913H124.157V14.81H123.601V14.3975H125.209V14.81H125.204ZM127.617 16.2963H127.151V15.0089H127.141L126.669 16.2963H126.386L125.914 15.0089H125.904V16.2963H125.438V14.4024H126.103L126.53 15.4761L126.957 14.4024H127.622V16.2963H127.617Z" fill="white"/>
</g>
<defs>
<clipPath id="clip0_129_6853">
<rect width="145" height="73" fill="white" transform="translate(0 0.444336)"/>
</clipPath>
</defs>
</svg>
